%TF.GenerationSoftware,KiCad,Pcbnew,(6.0.1)*%
%TF.CreationDate,2022-02-17T17:48:38+01:00*%
%TF.ProjectId,365modPanel,3336356d-6f64-4506-916e-656c2e6b6963,rev?*%
%TF.SameCoordinates,Original*%
%TF.FileFunction,Soldermask,Top*%
%TF.FilePolarity,Negative*%
%FSLAX46Y46*%
G04 Gerber Fmt 4.6, Leading zero omitted, Abs format (unit mm)*
G04 Created by KiCad (PCBNEW (6.0.1)) date 2022-02-17 17:48:38*
%MOMM*%
%LPD*%
G01*
G04 APERTURE LIST*
%ADD10C,0.200000*%
%ADD11O,2.000000X3.000000*%
%ADD12R,3.000000X2.000000*%
%ADD13O,3.000000X2.000000*%
%ADD14R,1.700000X1.700000*%
%ADD15O,1.700000X1.700000*%
%ADD16R,1.600000X1.600000*%
%ADD17O,1.600000X1.600000*%
%ADD18C,1.500000*%
%ADD19C,3.100000*%
%ADD20C,1.400000*%
%ADD21O,1.400000X1.400000*%
%ADD22C,1.600000*%
%ADD23R,1.500000X1.050000*%
%ADD24O,1.500000X1.050000*%
G04 APERTURE END LIST*
D10*
X79000000Y-58000000D02*
X89000000Y-58000000D01*
X89000000Y-58000000D02*
X89000000Y-68000000D01*
X89000000Y-68000000D02*
X79000000Y-68000000D01*
X79000000Y-68000000D02*
X79000000Y-58000000D01*
G36*
X79000000Y-58000000D02*
G01*
X89000000Y-58000000D01*
X89000000Y-68000000D01*
X79000000Y-68000000D01*
X79000000Y-58000000D01*
G37*
X79000000Y-91300000D02*
X89000000Y-91300000D01*
X89000000Y-91300000D02*
X89000000Y-101300000D01*
X89000000Y-101300000D02*
X79000000Y-101300000D01*
X79000000Y-101300000D02*
X79000000Y-91300000D01*
G36*
X79000000Y-91300000D02*
G01*
X89000000Y-91300000D01*
X89000000Y-101300000D01*
X79000000Y-101300000D01*
X79000000Y-91300000D01*
G37*
X129000000Y-91300000D02*
X139000000Y-91300000D01*
X139000000Y-91300000D02*
X139000000Y-101300000D01*
X139000000Y-101300000D02*
X129000000Y-101300000D01*
X129000000Y-101300000D02*
X129000000Y-91300000D01*
G36*
X129000000Y-91300000D02*
G01*
X139000000Y-91300000D01*
X139000000Y-101300000D01*
X129000000Y-101300000D01*
X129000000Y-91300000D01*
G37*
X129000000Y-124600000D02*
X139000000Y-124600000D01*
X139000000Y-124600000D02*
X139000000Y-134600000D01*
X139000000Y-134600000D02*
X129000000Y-134600000D01*
X129000000Y-134600000D02*
X129000000Y-124600000D01*
G36*
X129000000Y-124600000D02*
G01*
X139000000Y-124600000D01*
X139000000Y-134600000D01*
X129000000Y-134600000D01*
X129000000Y-124600000D01*
G37*
X129000000Y-58000000D02*
X139000000Y-58000000D01*
X139000000Y-58000000D02*
X139000000Y-68000000D01*
X139000000Y-68000000D02*
X129000000Y-68000000D01*
X129000000Y-68000000D02*
X129000000Y-58000000D01*
G36*
X129000000Y-58000000D02*
G01*
X139000000Y-58000000D01*
X139000000Y-68000000D01*
X129000000Y-68000000D01*
X129000000Y-58000000D01*
G37*
X79000000Y-124600000D02*
X89000000Y-124600000D01*
X89000000Y-124600000D02*
X89000000Y-134600000D01*
X89000000Y-134600000D02*
X79000000Y-134600000D01*
X79000000Y-134600000D02*
X79000000Y-124600000D01*
G36*
X79000000Y-124600000D02*
G01*
X89000000Y-124600000D01*
X89000000Y-134600000D01*
X79000000Y-134600000D01*
X79000000Y-124600000D01*
G37*
D11*
%TO.C,K1*%
X76350000Y-86500000D03*
X76350000Y-79000000D03*
X81390000Y-86500000D03*
X81390000Y-79000000D03*
X71310000Y-79000000D03*
X71310000Y-86500000D03*
D12*
X96650000Y-79000000D03*
D13*
X96650000Y-86500000D03*
%TD*%
D14*
%TO.C,J17*%
X164750000Y-120050000D03*
D15*
X167290000Y-120050000D03*
%TD*%
D14*
%TO.C,J7*%
X164750000Y-86750000D03*
D15*
X167290000Y-86750000D03*
%TD*%
D16*
%TO.C,D4*%
X151250000Y-112050000D03*
D17*
X151250000Y-119670000D03*
%TD*%
D14*
%TO.C,J22*%
X114750000Y-153350000D03*
D15*
X117290000Y-153350000D03*
%TD*%
D11*
%TO.C,K5*%
X76350000Y-145600000D03*
X76350000Y-153100000D03*
X81390000Y-145600000D03*
X81390000Y-153100000D03*
X71310000Y-153100000D03*
X71310000Y-145600000D03*
D12*
X96650000Y-145600000D03*
D13*
X96650000Y-153100000D03*
%TD*%
D14*
%TO.C,J4*%
X118000000Y-80000000D03*
D15*
X118000000Y-77460000D03*
%TD*%
D14*
%TO.C,J6*%
X155250000Y-86750000D03*
D15*
X157790000Y-86750000D03*
X160330000Y-86750000D03*
%TD*%
D14*
%TO.C,J15*%
X118000000Y-102050000D03*
D15*
X118000000Y-104590000D03*
%TD*%
D16*
%TO.C,D6*%
X151250000Y-145350000D03*
D17*
X151250000Y-152970000D03*
%TD*%
D18*
%TO.C,U1*%
X97770000Y-58455000D03*
X95230000Y-58455000D03*
D19*
X105710000Y-73125000D03*
D18*
X100310000Y-58455000D03*
D19*
X75845000Y-57115000D03*
D14*
X71100000Y-56550000D03*
X71100000Y-73695000D03*
X110470000Y-73695000D03*
X110470000Y-56550000D03*
%TD*%
%TO.C,J25*%
X118000000Y-135350000D03*
D15*
X118000000Y-137890000D03*
%TD*%
D18*
%TO.C,U4*%
X145230000Y-91755000D03*
X150310000Y-91755000D03*
D19*
X125845000Y-90415000D03*
D18*
X147770000Y-91755000D03*
D19*
X155710000Y-106425000D03*
D14*
X121100000Y-89850000D03*
X121100000Y-106995000D03*
X160470000Y-106995000D03*
X160470000Y-89850000D03*
%TD*%
%TO.C,J23*%
X118000000Y-125600000D03*
D15*
X118000000Y-128140000D03*
X118000000Y-130680000D03*
%TD*%
D20*
%TO.C,R6*%
X161250000Y-144350000D03*
D21*
X163790000Y-144350000D03*
%TD*%
D14*
%TO.C,J30*%
X168000000Y-135350000D03*
D15*
X168000000Y-137890000D03*
%TD*%
D22*
%TO.C,C3*%
X114250000Y-115300000D03*
X111750000Y-115300000D03*
%TD*%
D23*
%TO.C,Q3*%
X107000000Y-111530000D03*
D24*
X107000000Y-112800000D03*
X107000000Y-114070000D03*
%TD*%
D14*
%TO.C,J13*%
X118000000Y-92300000D03*
D15*
X118000000Y-94840000D03*
X118000000Y-97380000D03*
%TD*%
D14*
%TO.C,J14*%
X118000000Y-113300000D03*
D15*
X118000000Y-110760000D03*
%TD*%
D14*
%TO.C,J20*%
X168000000Y-102050000D03*
D15*
X168000000Y-104590000D03*
%TD*%
D14*
%TO.C,J5*%
X118000000Y-68750000D03*
D15*
X118000000Y-71290000D03*
%TD*%
D11*
%TO.C,K4*%
X126350000Y-112300000D03*
X126350000Y-119800000D03*
X131390000Y-119800000D03*
X131390000Y-112300000D03*
X121310000Y-112300000D03*
X121310000Y-119800000D03*
D12*
X146650000Y-112300000D03*
D13*
X146650000Y-119800000D03*
%TD*%
D14*
%TO.C,J26*%
X155250000Y-153350000D03*
D15*
X157790000Y-153350000D03*
X160330000Y-153350000D03*
%TD*%
D16*
%TO.C,D2*%
X151250000Y-78750000D03*
D17*
X151250000Y-86370000D03*
%TD*%
D23*
%TO.C,Q2*%
X157000000Y-78230000D03*
D24*
X157000000Y-79500000D03*
X157000000Y-80770000D03*
%TD*%
D16*
%TO.C,D3*%
X101250000Y-112050000D03*
D17*
X101250000Y-119670000D03*
%TD*%
D14*
%TO.C,J21*%
X105250000Y-153350000D03*
D15*
X107790000Y-153350000D03*
X110330000Y-153350000D03*
%TD*%
D16*
%TO.C,D1*%
X101250000Y-78750000D03*
D17*
X101250000Y-86370000D03*
%TD*%
D20*
%TO.C,R2*%
X161250000Y-77750000D03*
D21*
X163790000Y-77750000D03*
%TD*%
D14*
%TO.C,J11*%
X105250000Y-120050000D03*
D15*
X107790000Y-120050000D03*
X110330000Y-120050000D03*
%TD*%
D14*
%TO.C,J3*%
X118000000Y-59000000D03*
D15*
X118000000Y-61540000D03*
X118000000Y-64080000D03*
%TD*%
D11*
%TO.C,K3*%
X76350000Y-119800000D03*
X76350000Y-112300000D03*
X81390000Y-112300000D03*
X81390000Y-119800000D03*
X71310000Y-112300000D03*
X71310000Y-119800000D03*
D12*
X96650000Y-112300000D03*
D13*
X96650000Y-119800000D03*
%TD*%
D14*
%TO.C,J2*%
X114750000Y-86750000D03*
D15*
X117290000Y-86750000D03*
%TD*%
D20*
%TO.C,R1*%
X111250000Y-77750000D03*
D21*
X113790000Y-77750000D03*
%TD*%
D23*
%TO.C,Q5*%
X107000000Y-144830000D03*
D24*
X107000000Y-146100000D03*
X107000000Y-147370000D03*
%TD*%
D14*
%TO.C,J1*%
X105250000Y-86750000D03*
D15*
X107790000Y-86750000D03*
X110330000Y-86750000D03*
%TD*%
D14*
%TO.C,J8*%
X168000000Y-59000000D03*
D15*
X168000000Y-61540000D03*
X168000000Y-64080000D03*
%TD*%
D14*
%TO.C,J10*%
X168000000Y-68750000D03*
D15*
X168000000Y-71290000D03*
%TD*%
D14*
%TO.C,J9*%
X168000000Y-80000000D03*
D15*
X168000000Y-77460000D03*
%TD*%
D18*
%TO.C,U3*%
X97770000Y-91755000D03*
X95230000Y-91755000D03*
X100310000Y-91755000D03*
D19*
X105710000Y-106425000D03*
X75845000Y-90415000D03*
D14*
X71100000Y-89850000D03*
X71100000Y-106995000D03*
X110470000Y-106995000D03*
X110470000Y-89850000D03*
%TD*%
D22*
%TO.C,C5*%
X114250000Y-148600000D03*
X111750000Y-148600000D03*
%TD*%
D11*
%TO.C,K2*%
X126350000Y-79000000D03*
X126350000Y-86500000D03*
X131390000Y-79000000D03*
X131390000Y-86500000D03*
X121310000Y-86500000D03*
X121310000Y-79000000D03*
D12*
X146650000Y-79000000D03*
D13*
X146650000Y-86500000D03*
%TD*%
D18*
%TO.C,U2*%
X147770000Y-58455000D03*
X150310000Y-58455000D03*
X145230000Y-58455000D03*
D19*
X155710000Y-73125000D03*
X125845000Y-57115000D03*
D14*
X121100000Y-56550000D03*
X121100000Y-73695000D03*
X160470000Y-73695000D03*
X160470000Y-56550000D03*
%TD*%
D23*
%TO.C,Q1*%
X107000000Y-78230000D03*
D24*
X107000000Y-79500000D03*
X107000000Y-80770000D03*
%TD*%
D14*
%TO.C,J18*%
X168000000Y-92300000D03*
D15*
X168000000Y-94840000D03*
X168000000Y-97380000D03*
%TD*%
D23*
%TO.C,Q4*%
X157000000Y-111530000D03*
D24*
X157000000Y-112800000D03*
X157000000Y-114070000D03*
%TD*%
D22*
%TO.C,C6*%
X164250000Y-148600000D03*
X161750000Y-148600000D03*
%TD*%
D18*
%TO.C,U6*%
X145230000Y-125055000D03*
D19*
X155710000Y-139725000D03*
D18*
X150310000Y-125055000D03*
D19*
X125845000Y-123715000D03*
D18*
X147770000Y-125055000D03*
D14*
X121100000Y-123150000D03*
X121100000Y-140295000D03*
X160470000Y-140295000D03*
X160470000Y-123150000D03*
%TD*%
%TO.C,J19*%
X168000000Y-113300000D03*
D15*
X168000000Y-110760000D03*
%TD*%
D14*
%TO.C,J24*%
X118000000Y-146600000D03*
D15*
X118000000Y-144060000D03*
%TD*%
D14*
%TO.C,J27*%
X164750000Y-153350000D03*
D15*
X167290000Y-153350000D03*
%TD*%
D11*
%TO.C,K6*%
X126350000Y-145600000D03*
X126350000Y-153100000D03*
X131390000Y-145600000D03*
X131390000Y-153100000D03*
X121310000Y-145600000D03*
X121310000Y-153100000D03*
D12*
X146650000Y-145600000D03*
D13*
X146650000Y-153100000D03*
%TD*%
D14*
%TO.C,J29*%
X168000000Y-146600000D03*
D15*
X168000000Y-144060000D03*
%TD*%
D22*
%TO.C,C2*%
X164250000Y-82000000D03*
X161750000Y-82000000D03*
%TD*%
D20*
%TO.C,R4*%
X161250000Y-111050000D03*
D21*
X163790000Y-111050000D03*
%TD*%
D22*
%TO.C,C4*%
X164250000Y-115300000D03*
X161750000Y-115300000D03*
%TD*%
D16*
%TO.C,D5*%
X101250000Y-145350000D03*
D17*
X101250000Y-152970000D03*
%TD*%
D20*
%TO.C,R3*%
X111250000Y-111050000D03*
D21*
X113790000Y-111050000D03*
%TD*%
D14*
%TO.C,J28*%
X168000000Y-125600000D03*
D15*
X168000000Y-128140000D03*
X168000000Y-130680000D03*
%TD*%
D22*
%TO.C,C1*%
X114250000Y-82000000D03*
X111750000Y-82000000D03*
%TD*%
D14*
%TO.C,J16*%
X155250000Y-120050000D03*
D15*
X157790000Y-120050000D03*
X160330000Y-120050000D03*
%TD*%
D20*
%TO.C,R5*%
X111250000Y-144350000D03*
D21*
X113790000Y-144350000D03*
%TD*%
D23*
%TO.C,Q6*%
X157000000Y-144830000D03*
D24*
X157000000Y-146100000D03*
X157000000Y-147370000D03*
%TD*%
D19*
%TO.C,U5*%
X75845000Y-123715000D03*
D18*
X95230000Y-125055000D03*
X97770000Y-125055000D03*
D19*
X105710000Y-139725000D03*
D18*
X100310000Y-125055000D03*
D14*
X71100000Y-123150000D03*
X71100000Y-140295000D03*
X110470000Y-140295000D03*
X110470000Y-123150000D03*
%TD*%
%TO.C,J12*%
X114750000Y-120050000D03*
D15*
X117290000Y-120050000D03*
%TD*%
M02*
