M48
; DRILL file {KiCad (6.0.1)} date Thu Feb 17 17:48:51 2022
; FORMAT={-:-/ absolute / inch / decimal}
; #@! TF.CreationDate,2022-02-17T17:48:51+01:00
; #@! TF.GenerationSoftware,Kicad,Pcbnew,(6.0.1)
; #@! TF.FileFunction,Plated,1,2,PTH
FMAT,2
INCH
; #@! TA.AperFunction,Plated,PTH,ViaDrill
T1C0.0157
; #@! TA.AperFunction,Plated,PTH,ComponentDrill
T2C0.0276
; #@! TA.AperFunction,Plated,PTH,ComponentDrill
T3C0.0295
; #@! TA.AperFunction,Plated,PTH,ComponentDrill
T4C0.0315
; #@! TA.AperFunction,Plated,PTH,ComponentDrill
T5C0.0394
; #@! TA.AperFunction,Plated,PTH,ComponentDrill
T6C0.0512
%
G90
G05
T1
X3.1496Y-2.4016
X3.1496Y-2.4803
X3.1496Y-2.5591
X3.1496Y-2.6378
X3.1496Y-3.7126
X3.1496Y-3.7913
X3.1496Y-3.8701
X3.1496Y-3.9488
X3.1496Y-5.0236
X3.1496Y-5.1024
X3.1496Y-5.1811
X3.1496Y-5.2598
X3.2283Y-2.3228
X3.2283Y-2.4016
X3.2283Y-2.4803
X3.2283Y-2.5591
X3.2283Y-2.6378
X3.2283Y-3.6339
X3.2283Y-3.7126
X3.2283Y-3.7913
X3.2283Y-3.8701
X3.2283Y-3.9488
X3.2283Y-4.9449
X3.2283Y-5.0236
X3.2283Y-5.1024
X3.2283Y-5.1811
X3.2283Y-5.2598
X3.3071Y-2.3228
X3.3071Y-2.4016
X3.3071Y-2.4803
X3.3071Y-2.5591
X3.3071Y-2.6378
X3.3071Y-3.6339
X3.3071Y-3.7126
X3.3071Y-3.7913
X3.3071Y-3.8701
X3.3071Y-3.9488
X3.3071Y-4.9449
X3.3071Y-5.0236
X3.3071Y-5.1024
X3.3071Y-5.1811
X3.3071Y-5.2598
X3.3858Y-2.3228
X3.3858Y-2.4016
X3.3858Y-2.4803
X3.3858Y-2.5591
X3.3858Y-2.6378
X3.3858Y-3.6339
X3.3858Y-3.7126
X3.3858Y-3.7913
X3.3858Y-3.8701
X3.3858Y-3.9488
X3.3858Y-4.9449
X3.3858Y-5.0236
X3.3858Y-5.1024
X3.3858Y-5.1811
X3.3858Y-5.2598
X3.4646Y-2.3228
X3.4646Y-2.4016
X3.4646Y-2.4803
X3.4646Y-2.5591
X3.4646Y-2.6378
X3.4646Y-3.6339
X3.4646Y-3.7126
X3.4646Y-3.7913
X3.4646Y-3.8701
X3.4646Y-3.9488
X3.4646Y-4.9449
X3.4646Y-5.0236
X3.4646Y-5.1024
X3.4646Y-5.1811
X3.4646Y-5.2598
X5.1181Y-2.4016
X5.1181Y-2.4803
X5.1181Y-2.5591
X5.1181Y-2.6378
X5.1181Y-3.7126
X5.1181Y-3.7913
X5.1181Y-3.8701
X5.1181Y-3.9488
X5.1181Y-5.0236
X5.1181Y-5.1024
X5.1181Y-5.1811
X5.1181Y-5.2598
X5.1969Y-2.3228
X5.1969Y-2.4016
X5.1969Y-2.4803
X5.1969Y-2.5591
X5.1969Y-2.6378
X5.1969Y-3.6339
X5.1969Y-3.7126
X5.1969Y-3.7913
X5.1969Y-3.8701
X5.1969Y-3.9488
X5.1969Y-4.9449
X5.1969Y-5.0236
X5.1969Y-5.1024
X5.1969Y-5.1811
X5.1969Y-5.2598
X5.2756Y-2.3228
X5.2756Y-2.4016
X5.2756Y-2.4803
X5.2756Y-2.5591
X5.2756Y-2.6378
X5.2756Y-3.6339
X5.2756Y-3.7126
X5.2756Y-3.7913
X5.2756Y-3.8701
X5.2756Y-3.9488
X5.2756Y-4.9449
X5.2756Y-5.0236
X5.2756Y-5.1024
X5.2756Y-5.1811
X5.2756Y-5.2598
X5.3543Y-2.3228
X5.3543Y-2.4016
X5.3543Y-2.4803
X5.3543Y-2.5591
X5.3543Y-2.6378
X5.3543Y-3.6339
X5.3543Y-3.7126
X5.3543Y-3.7913
X5.3543Y-3.8701
X5.3543Y-3.9488
X5.3543Y-4.9449
X5.3543Y-5.0236
X5.3543Y-5.1024
X5.3543Y-5.1811
X5.3543Y-5.2598
X5.4331Y-2.3228
X5.4331Y-2.4016
X5.4331Y-2.4803
X5.4331Y-2.5591
X5.4331Y-2.6378
X5.4331Y-3.6339
X5.4331Y-3.7126
X5.4331Y-3.7913
X5.4331Y-3.8701
X5.4331Y-3.9488
X5.4331Y-4.9449
X5.4331Y-5.0236
X5.4331Y-5.1024
X5.4331Y-5.1811
X5.4331Y-5.2598
T2
X4.3799Y-3.061
X4.3799Y-4.372
X4.3799Y-5.6831
X4.4799Y-3.061
X4.4799Y-4.372
X4.4799Y-5.6831
X6.3484Y-3.061
X6.3484Y-4.372
X6.3484Y-5.6831
X6.4484Y-3.061
X6.4484Y-4.372
X6.4484Y-5.6831
T3
X4.2126Y-3.0799
X4.2126Y-3.1299
X4.2126Y-3.1799
X4.2126Y-4.3909
X4.2126Y-4.4409
X4.2126Y-4.4909
X4.2126Y-5.702
X4.2126Y-5.752
X4.2126Y-5.802
X6.1811Y-3.0799
X6.1811Y-3.1299
X6.1811Y-3.1799
X6.1811Y-4.3909
X6.1811Y-4.4409
X6.1811Y-4.4909
X6.1811Y-5.702
X6.1811Y-5.752
X6.1811Y-5.802
T4
X3.9862Y-3.1004
X3.9862Y-3.4004
X3.9862Y-4.4114
X3.9862Y-4.7114
X3.9862Y-5.7224
X3.9862Y-6.0224
X4.3996Y-3.2283
X4.3996Y-4.5394
X4.3996Y-5.8504
X4.498Y-3.2283
X4.498Y-4.5394
X4.498Y-5.8504
X5.9547Y-3.1004
X5.9547Y-3.4004
X5.9547Y-4.4114
X5.9547Y-4.7114
X5.9547Y-5.7224
X5.9547Y-6.0224
X6.3681Y-3.2283
X6.3681Y-4.5394
X6.3681Y-5.8504
X6.4665Y-3.2283
X6.4665Y-4.5394
X6.4665Y-5.8504
T5
X2.7992Y-2.2264
X2.7992Y-2.9014
X2.7992Y-3.5374
X2.7992Y-4.2124
X2.7992Y-4.8484
X2.7992Y-5.5234
X4.1437Y-3.4154
X4.1437Y-4.7264
X4.1437Y-6.0374
X4.2437Y-3.4154
X4.2437Y-4.7264
X4.2437Y-6.0374
X4.3437Y-3.4154
X4.3437Y-4.7264
X4.3437Y-6.0374
X4.3492Y-2.2264
X4.3492Y-2.9014
X4.3492Y-3.5374
X4.3492Y-4.2124
X4.3492Y-4.8484
X4.3492Y-5.5234
X4.5177Y-3.4154
X4.5177Y-4.7264
X4.5177Y-6.0374
X4.6177Y-3.4154
X4.6177Y-4.7264
X4.6177Y-6.0374
X4.6457Y-2.3228
X4.6457Y-2.4228
X4.6457Y-2.5228
X4.6457Y-2.7067
X4.6457Y-2.8067
X4.6457Y-3.0496
X4.6457Y-3.1496
X4.6457Y-3.6339
X4.6457Y-3.7339
X4.6457Y-3.8339
X4.6457Y-4.0177
X4.6457Y-4.1177
X4.6457Y-4.3606
X4.6457Y-4.4606
X4.6457Y-4.9449
X4.6457Y-5.0449
X4.6457Y-5.1449
X4.6457Y-5.3287
X4.6457Y-5.4287
X4.6457Y-5.6717
X4.6457Y-5.7717
X4.7677Y-2.2264
X4.7677Y-2.9014
X4.7677Y-3.5374
X4.7677Y-4.2124
X4.7677Y-4.8484
X4.7677Y-5.5234
X6.1122Y-3.4154
X6.1122Y-4.7264
X6.1122Y-6.0374
X6.2122Y-3.4154
X6.2122Y-4.7264
X6.2122Y-6.0374
X6.3122Y-3.4154
X6.3122Y-4.7264
X6.3122Y-6.0374
X6.3177Y-2.2264
X6.3177Y-2.9014
X6.3177Y-3.5374
X6.3177Y-4.2124
X6.3177Y-4.8484
X6.3177Y-5.5234
X6.4862Y-3.4154
X6.4862Y-4.7264
X6.4862Y-6.0374
X6.5862Y-3.4154
X6.5862Y-4.7264
X6.5862Y-6.0374
X6.6142Y-2.3228
X6.6142Y-2.4228
X6.6142Y-2.5228
X6.6142Y-2.7067
X6.6142Y-2.8067
X6.6142Y-3.0496
X6.6142Y-3.1496
X6.6142Y-3.6339
X6.6142Y-3.7339
X6.6142Y-3.8339
X6.6142Y-4.0177
X6.6142Y-4.1177
X6.6142Y-4.3606
X6.6142Y-4.4606
X6.6142Y-4.9449
X6.6142Y-5.0449
X6.6142Y-5.1449
X6.6142Y-5.3287
X6.6142Y-5.4287
X6.6142Y-5.6717
X6.6142Y-5.7717
T6
X2.8075Y-3.1102
X2.8075Y-3.4055
X2.8075Y-4.4213
X2.8075Y-4.7165
X2.8075Y-5.7323
X2.8075Y-6.0276
X3.0059Y-3.1102
X3.0059Y-3.4055
X3.0059Y-4.4213
X3.0059Y-4.7165
X3.0059Y-5.7323
X3.0059Y-6.0276
X3.2043Y-3.1102
X3.2043Y-3.4055
X3.2043Y-4.4213
X3.2043Y-4.7165
X3.2043Y-5.7323
X3.2043Y-6.0276
X3.8051Y-3.1102
X3.8051Y-3.4055
X3.8051Y-4.4213
X3.8051Y-4.7165
X3.8051Y-5.7323
X3.8051Y-6.0276
X4.776Y-3.1102
X4.776Y-3.4055
X4.776Y-4.4213
X4.776Y-4.7165
X4.776Y-5.7323
X4.776Y-6.0276
X4.9744Y-3.1102
X4.9744Y-3.4055
X4.9744Y-4.4213
X4.9744Y-4.7165
X4.9744Y-5.7323
X4.9744Y-6.0276
X5.1728Y-3.1102
X5.1728Y-3.4055
X5.1728Y-4.4213
X5.1728Y-4.7165
X5.1728Y-5.7323
X5.1728Y-6.0276
X5.7736Y-3.1102
X5.7736Y-3.4055
X5.7736Y-4.4213
X5.7736Y-4.7165
X5.7736Y-5.7323
X5.7736Y-6.0276
T0
M30
