M48
; DRILL file {KiCad (6.0.1)} date Thu Feb 17 17:48:51 2022
; FORMAT={-:-/ absolute / inch / decimal}
; #@! TF.CreationDate,2022-02-17T17:48:51+01:00
; #@! TF.GenerationSoftware,Kicad,Pcbnew,(6.0.1)
; #@! TF.FileFunction,NonPlated,1,2,NPTH
FMAT,2
INCH
; #@! TA.AperFunction,NonPlated,NPTH,ComponentDrill
T1C0.0591
; #@! TA.AperFunction,NonPlated,NPTH,ComponentDrill
T2C0.1220
%
G90
G05
T1
X3.7492Y-2.3014
X3.7492Y-3.6124
X3.7492Y-4.9234
X3.8492Y-2.3014
X3.8492Y-3.6124
X3.8492Y-4.9234
X3.9492Y-2.3014
X3.9492Y-3.6124
X3.9492Y-4.9234
X5.7177Y-2.3014
X5.7177Y-3.6124
X5.7177Y-4.9234
X5.8177Y-2.3014
X5.8177Y-3.6124
X5.8177Y-4.9234
X5.9177Y-2.3014
X5.9177Y-3.6124
X5.9177Y-4.9234
T2
X2.986Y-2.2486
X2.986Y-3.5596
X2.986Y-4.8707
X4.1618Y-2.8789
X4.1618Y-4.19
X4.1618Y-5.501
X4.9545Y-2.2486
X4.9545Y-3.5596
X4.9545Y-4.8707
X6.1303Y-2.8789
X6.1303Y-4.19
X6.1303Y-5.501
T0
M30
