%TF.GenerationSoftware,KiCad,Pcbnew,(6.0.1)*%
%TF.CreationDate,2022-02-17T17:48:38+01:00*%
%TF.ProjectId,365modPanel,3336356d-6f64-4506-916e-656c2e6b6963,rev?*%
%TF.SameCoordinates,Original*%
%TF.FileFunction,Legend,Bot*%
%TF.FilePolarity,Positive*%
%FSLAX46Y46*%
G04 Gerber Fmt 4.6, Leading zero omitted, Abs format (unit mm)*
G04 Created by KiCad (PCBNEW (6.0.1)) date 2022-02-17 17:48:38*
%MOMM*%
%LPD*%
G01*
G04 APERTURE LIST*
%ADD10C,0.300000*%
%ADD11C,0.010000*%
G04 APERTURE END LIST*
D10*
X146892857Y-136178214D02*
X146964285Y-136249642D01*
X147178571Y-136321071D01*
X147321428Y-136321071D01*
X147535714Y-136249642D01*
X147678571Y-136106785D01*
X147750000Y-135963928D01*
X147821428Y-135678214D01*
X147821428Y-135463928D01*
X147750000Y-135178214D01*
X147678571Y-135035357D01*
X147535714Y-134892500D01*
X147321428Y-134821071D01*
X147178571Y-134821071D01*
X146964285Y-134892500D01*
X146892857Y-134963928D01*
X145607142Y-136321071D02*
X145607142Y-135535357D01*
X145678571Y-135392500D01*
X145821428Y-135321071D01*
X146107142Y-135321071D01*
X146250000Y-135392500D01*
X145607142Y-136249642D02*
X145750000Y-136321071D01*
X146107142Y-136321071D01*
X146250000Y-136249642D01*
X146321428Y-136106785D01*
X146321428Y-135963928D01*
X146250000Y-135821071D01*
X146107142Y-135749642D01*
X145750000Y-135749642D01*
X145607142Y-135678214D01*
X144892857Y-136321071D02*
X144892857Y-135321071D01*
X144892857Y-135463928D02*
X144821428Y-135392500D01*
X144678571Y-135321071D01*
X144464285Y-135321071D01*
X144321428Y-135392500D01*
X144250000Y-135535357D01*
X144250000Y-136321071D01*
X144250000Y-135535357D02*
X144178571Y-135392500D01*
X144035714Y-135321071D01*
X143821428Y-135321071D01*
X143678571Y-135392500D01*
X143607142Y-135535357D01*
X143607142Y-136321071D01*
X142892857Y-136321071D02*
X142892857Y-135321071D01*
X142892857Y-134821071D02*
X142964285Y-134892500D01*
X142892857Y-134963928D01*
X142821428Y-134892500D01*
X142892857Y-134821071D01*
X142892857Y-134963928D01*
X141964285Y-136321071D02*
X142107142Y-136249642D01*
X142178571Y-136106785D01*
X142178571Y-134821071D01*
X141178571Y-136321071D02*
X141321428Y-136249642D01*
X141392857Y-136178214D01*
X141464285Y-136035357D01*
X141464285Y-135606785D01*
X141392857Y-135463928D01*
X141321428Y-135392500D01*
X141178571Y-135321071D01*
X140964285Y-135321071D01*
X140821428Y-135392500D01*
X140750000Y-135463928D01*
X140678571Y-135606785D01*
X140678571Y-136035357D01*
X140750000Y-136178214D01*
X140821428Y-136249642D01*
X140964285Y-136321071D01*
X141178571Y-136321071D01*
X146821428Y-137378928D02*
X146750000Y-137307500D01*
X146607142Y-137236071D01*
X146250000Y-137236071D01*
X146107142Y-137307500D01*
X146035714Y-137378928D01*
X145964285Y-137521785D01*
X145964285Y-137664642D01*
X146035714Y-137878928D01*
X146892857Y-138736071D01*
X145964285Y-138736071D01*
X145035714Y-137236071D02*
X144892857Y-137236071D01*
X144750000Y-137307500D01*
X144678571Y-137378928D01*
X144607142Y-137521785D01*
X144535714Y-137807500D01*
X144535714Y-138164642D01*
X144607142Y-138450357D01*
X144678571Y-138593214D01*
X144750000Y-138664642D01*
X144892857Y-138736071D01*
X145035714Y-138736071D01*
X145178571Y-138664642D01*
X145250000Y-138593214D01*
X145321428Y-138450357D01*
X145392857Y-138164642D01*
X145392857Y-137807500D01*
X145321428Y-137521785D01*
X145250000Y-137378928D01*
X145178571Y-137307500D01*
X145035714Y-137236071D01*
X143964285Y-137378928D02*
X143892857Y-137307500D01*
X143750000Y-137236071D01*
X143392857Y-137236071D01*
X143250000Y-137307500D01*
X143178571Y-137378928D01*
X143107142Y-137521785D01*
X143107142Y-137664642D01*
X143178571Y-137878928D01*
X144035714Y-138736071D01*
X143107142Y-138736071D01*
X142535714Y-137378928D02*
X142464285Y-137307500D01*
X142321428Y-137236071D01*
X141964285Y-137236071D01*
X141821428Y-137307500D01*
X141750000Y-137378928D01*
X141678571Y-137521785D01*
X141678571Y-137664642D01*
X141750000Y-137878928D01*
X142607142Y-138736071D01*
X141678571Y-138736071D01*
X96892857Y-69578214D02*
X96964285Y-69649642D01*
X97178571Y-69721071D01*
X97321428Y-69721071D01*
X97535714Y-69649642D01*
X97678571Y-69506785D01*
X97750000Y-69363928D01*
X97821428Y-69078214D01*
X97821428Y-68863928D01*
X97750000Y-68578214D01*
X97678571Y-68435357D01*
X97535714Y-68292500D01*
X97321428Y-68221071D01*
X97178571Y-68221071D01*
X96964285Y-68292500D01*
X96892857Y-68363928D01*
X95607142Y-69721071D02*
X95607142Y-68935357D01*
X95678571Y-68792500D01*
X95821428Y-68721071D01*
X96107142Y-68721071D01*
X96250000Y-68792500D01*
X95607142Y-69649642D02*
X95750000Y-69721071D01*
X96107142Y-69721071D01*
X96250000Y-69649642D01*
X96321428Y-69506785D01*
X96321428Y-69363928D01*
X96250000Y-69221071D01*
X96107142Y-69149642D01*
X95750000Y-69149642D01*
X95607142Y-69078214D01*
X94892857Y-69721071D02*
X94892857Y-68721071D01*
X94892857Y-68863928D02*
X94821428Y-68792500D01*
X94678571Y-68721071D01*
X94464285Y-68721071D01*
X94321428Y-68792500D01*
X94250000Y-68935357D01*
X94250000Y-69721071D01*
X94250000Y-68935357D02*
X94178571Y-68792500D01*
X94035714Y-68721071D01*
X93821428Y-68721071D01*
X93678571Y-68792500D01*
X93607142Y-68935357D01*
X93607142Y-69721071D01*
X92892857Y-69721071D02*
X92892857Y-68721071D01*
X92892857Y-68221071D02*
X92964285Y-68292500D01*
X92892857Y-68363928D01*
X92821428Y-68292500D01*
X92892857Y-68221071D01*
X92892857Y-68363928D01*
X91964285Y-69721071D02*
X92107142Y-69649642D01*
X92178571Y-69506785D01*
X92178571Y-68221071D01*
X91178571Y-69721071D02*
X91321428Y-69649642D01*
X91392857Y-69578214D01*
X91464285Y-69435357D01*
X91464285Y-69006785D01*
X91392857Y-68863928D01*
X91321428Y-68792500D01*
X91178571Y-68721071D01*
X90964285Y-68721071D01*
X90821428Y-68792500D01*
X90750000Y-68863928D01*
X90678571Y-69006785D01*
X90678571Y-69435357D01*
X90750000Y-69578214D01*
X90821428Y-69649642D01*
X90964285Y-69721071D01*
X91178571Y-69721071D01*
X96821428Y-70778928D02*
X96750000Y-70707500D01*
X96607142Y-70636071D01*
X96250000Y-70636071D01*
X96107142Y-70707500D01*
X96035714Y-70778928D01*
X95964285Y-70921785D01*
X95964285Y-71064642D01*
X96035714Y-71278928D01*
X96892857Y-72136071D01*
X95964285Y-72136071D01*
X95035714Y-70636071D02*
X94892857Y-70636071D01*
X94750000Y-70707500D01*
X94678571Y-70778928D01*
X94607142Y-70921785D01*
X94535714Y-71207500D01*
X94535714Y-71564642D01*
X94607142Y-71850357D01*
X94678571Y-71993214D01*
X94750000Y-72064642D01*
X94892857Y-72136071D01*
X95035714Y-72136071D01*
X95178571Y-72064642D01*
X95250000Y-71993214D01*
X95321428Y-71850357D01*
X95392857Y-71564642D01*
X95392857Y-71207500D01*
X95321428Y-70921785D01*
X95250000Y-70778928D01*
X95178571Y-70707500D01*
X95035714Y-70636071D01*
X93964285Y-70778928D02*
X93892857Y-70707500D01*
X93750000Y-70636071D01*
X93392857Y-70636071D01*
X93250000Y-70707500D01*
X93178571Y-70778928D01*
X93107142Y-70921785D01*
X93107142Y-71064642D01*
X93178571Y-71278928D01*
X94035714Y-72136071D01*
X93107142Y-72136071D01*
X92535714Y-70778928D02*
X92464285Y-70707500D01*
X92321428Y-70636071D01*
X91964285Y-70636071D01*
X91821428Y-70707500D01*
X91750000Y-70778928D01*
X91678571Y-70921785D01*
X91678571Y-71064642D01*
X91750000Y-71278928D01*
X92607142Y-72136071D01*
X91678571Y-72136071D01*
X96892857Y-136178214D02*
X96964285Y-136249642D01*
X97178571Y-136321071D01*
X97321428Y-136321071D01*
X97535714Y-136249642D01*
X97678571Y-136106785D01*
X97750000Y-135963928D01*
X97821428Y-135678214D01*
X97821428Y-135463928D01*
X97750000Y-135178214D01*
X97678571Y-135035357D01*
X97535714Y-134892500D01*
X97321428Y-134821071D01*
X97178571Y-134821071D01*
X96964285Y-134892500D01*
X96892857Y-134963928D01*
X95607142Y-136321071D02*
X95607142Y-135535357D01*
X95678571Y-135392500D01*
X95821428Y-135321071D01*
X96107142Y-135321071D01*
X96250000Y-135392500D01*
X95607142Y-136249642D02*
X95750000Y-136321071D01*
X96107142Y-136321071D01*
X96250000Y-136249642D01*
X96321428Y-136106785D01*
X96321428Y-135963928D01*
X96250000Y-135821071D01*
X96107142Y-135749642D01*
X95750000Y-135749642D01*
X95607142Y-135678214D01*
X94892857Y-136321071D02*
X94892857Y-135321071D01*
X94892857Y-135463928D02*
X94821428Y-135392500D01*
X94678571Y-135321071D01*
X94464285Y-135321071D01*
X94321428Y-135392500D01*
X94250000Y-135535357D01*
X94250000Y-136321071D01*
X94250000Y-135535357D02*
X94178571Y-135392500D01*
X94035714Y-135321071D01*
X93821428Y-135321071D01*
X93678571Y-135392500D01*
X93607142Y-135535357D01*
X93607142Y-136321071D01*
X92892857Y-136321071D02*
X92892857Y-135321071D01*
X92892857Y-134821071D02*
X92964285Y-134892500D01*
X92892857Y-134963928D01*
X92821428Y-134892500D01*
X92892857Y-134821071D01*
X92892857Y-134963928D01*
X91964285Y-136321071D02*
X92107142Y-136249642D01*
X92178571Y-136106785D01*
X92178571Y-134821071D01*
X91178571Y-136321071D02*
X91321428Y-136249642D01*
X91392857Y-136178214D01*
X91464285Y-136035357D01*
X91464285Y-135606785D01*
X91392857Y-135463928D01*
X91321428Y-135392500D01*
X91178571Y-135321071D01*
X90964285Y-135321071D01*
X90821428Y-135392500D01*
X90750000Y-135463928D01*
X90678571Y-135606785D01*
X90678571Y-136035357D01*
X90750000Y-136178214D01*
X90821428Y-136249642D01*
X90964285Y-136321071D01*
X91178571Y-136321071D01*
X96821428Y-137378928D02*
X96750000Y-137307500D01*
X96607142Y-137236071D01*
X96250000Y-137236071D01*
X96107142Y-137307500D01*
X96035714Y-137378928D01*
X95964285Y-137521785D01*
X95964285Y-137664642D01*
X96035714Y-137878928D01*
X96892857Y-138736071D01*
X95964285Y-138736071D01*
X95035714Y-137236071D02*
X94892857Y-137236071D01*
X94750000Y-137307500D01*
X94678571Y-137378928D01*
X94607142Y-137521785D01*
X94535714Y-137807500D01*
X94535714Y-138164642D01*
X94607142Y-138450357D01*
X94678571Y-138593214D01*
X94750000Y-138664642D01*
X94892857Y-138736071D01*
X95035714Y-138736071D01*
X95178571Y-138664642D01*
X95250000Y-138593214D01*
X95321428Y-138450357D01*
X95392857Y-138164642D01*
X95392857Y-137807500D01*
X95321428Y-137521785D01*
X95250000Y-137378928D01*
X95178571Y-137307500D01*
X95035714Y-137236071D01*
X93964285Y-137378928D02*
X93892857Y-137307500D01*
X93750000Y-137236071D01*
X93392857Y-137236071D01*
X93250000Y-137307500D01*
X93178571Y-137378928D01*
X93107142Y-137521785D01*
X93107142Y-137664642D01*
X93178571Y-137878928D01*
X94035714Y-138736071D01*
X93107142Y-138736071D01*
X92535714Y-137378928D02*
X92464285Y-137307500D01*
X92321428Y-137236071D01*
X91964285Y-137236071D01*
X91821428Y-137307500D01*
X91750000Y-137378928D01*
X91678571Y-137521785D01*
X91678571Y-137664642D01*
X91750000Y-137878928D01*
X92607142Y-138736071D01*
X91678571Y-138736071D01*
X146892857Y-69578214D02*
X146964285Y-69649642D01*
X147178571Y-69721071D01*
X147321428Y-69721071D01*
X147535714Y-69649642D01*
X147678571Y-69506785D01*
X147750000Y-69363928D01*
X147821428Y-69078214D01*
X147821428Y-68863928D01*
X147750000Y-68578214D01*
X147678571Y-68435357D01*
X147535714Y-68292500D01*
X147321428Y-68221071D01*
X147178571Y-68221071D01*
X146964285Y-68292500D01*
X146892857Y-68363928D01*
X145607142Y-69721071D02*
X145607142Y-68935357D01*
X145678571Y-68792500D01*
X145821428Y-68721071D01*
X146107142Y-68721071D01*
X146250000Y-68792500D01*
X145607142Y-69649642D02*
X145750000Y-69721071D01*
X146107142Y-69721071D01*
X146250000Y-69649642D01*
X146321428Y-69506785D01*
X146321428Y-69363928D01*
X146250000Y-69221071D01*
X146107142Y-69149642D01*
X145750000Y-69149642D01*
X145607142Y-69078214D01*
X144892857Y-69721071D02*
X144892857Y-68721071D01*
X144892857Y-68863928D02*
X144821428Y-68792500D01*
X144678571Y-68721071D01*
X144464285Y-68721071D01*
X144321428Y-68792500D01*
X144250000Y-68935357D01*
X144250000Y-69721071D01*
X144250000Y-68935357D02*
X144178571Y-68792500D01*
X144035714Y-68721071D01*
X143821428Y-68721071D01*
X143678571Y-68792500D01*
X143607142Y-68935357D01*
X143607142Y-69721071D01*
X142892857Y-69721071D02*
X142892857Y-68721071D01*
X142892857Y-68221071D02*
X142964285Y-68292500D01*
X142892857Y-68363928D01*
X142821428Y-68292500D01*
X142892857Y-68221071D01*
X142892857Y-68363928D01*
X141964285Y-69721071D02*
X142107142Y-69649642D01*
X142178571Y-69506785D01*
X142178571Y-68221071D01*
X141178571Y-69721071D02*
X141321428Y-69649642D01*
X141392857Y-69578214D01*
X141464285Y-69435357D01*
X141464285Y-69006785D01*
X141392857Y-68863928D01*
X141321428Y-68792500D01*
X141178571Y-68721071D01*
X140964285Y-68721071D01*
X140821428Y-68792500D01*
X140750000Y-68863928D01*
X140678571Y-69006785D01*
X140678571Y-69435357D01*
X140750000Y-69578214D01*
X140821428Y-69649642D01*
X140964285Y-69721071D01*
X141178571Y-69721071D01*
X146821428Y-70778928D02*
X146750000Y-70707500D01*
X146607142Y-70636071D01*
X146250000Y-70636071D01*
X146107142Y-70707500D01*
X146035714Y-70778928D01*
X145964285Y-70921785D01*
X145964285Y-71064642D01*
X146035714Y-71278928D01*
X146892857Y-72136071D01*
X145964285Y-72136071D01*
X145035714Y-70636071D02*
X144892857Y-70636071D01*
X144750000Y-70707500D01*
X144678571Y-70778928D01*
X144607142Y-70921785D01*
X144535714Y-71207500D01*
X144535714Y-71564642D01*
X144607142Y-71850357D01*
X144678571Y-71993214D01*
X144750000Y-72064642D01*
X144892857Y-72136071D01*
X145035714Y-72136071D01*
X145178571Y-72064642D01*
X145250000Y-71993214D01*
X145321428Y-71850357D01*
X145392857Y-71564642D01*
X145392857Y-71207500D01*
X145321428Y-70921785D01*
X145250000Y-70778928D01*
X145178571Y-70707500D01*
X145035714Y-70636071D01*
X143964285Y-70778928D02*
X143892857Y-70707500D01*
X143750000Y-70636071D01*
X143392857Y-70636071D01*
X143250000Y-70707500D01*
X143178571Y-70778928D01*
X143107142Y-70921785D01*
X143107142Y-71064642D01*
X143178571Y-71278928D01*
X144035714Y-72136071D01*
X143107142Y-72136071D01*
X142535714Y-70778928D02*
X142464285Y-70707500D01*
X142321428Y-70636071D01*
X141964285Y-70636071D01*
X141821428Y-70707500D01*
X141750000Y-70778928D01*
X141678571Y-70921785D01*
X141678571Y-71064642D01*
X141750000Y-71278928D01*
X142607142Y-72136071D01*
X141678571Y-72136071D01*
X146892857Y-102878214D02*
X146964285Y-102949642D01*
X147178571Y-103021071D01*
X147321428Y-103021071D01*
X147535714Y-102949642D01*
X147678571Y-102806785D01*
X147750000Y-102663928D01*
X147821428Y-102378214D01*
X147821428Y-102163928D01*
X147750000Y-101878214D01*
X147678571Y-101735357D01*
X147535714Y-101592500D01*
X147321428Y-101521071D01*
X147178571Y-101521071D01*
X146964285Y-101592500D01*
X146892857Y-101663928D01*
X145607142Y-103021071D02*
X145607142Y-102235357D01*
X145678571Y-102092500D01*
X145821428Y-102021071D01*
X146107142Y-102021071D01*
X146250000Y-102092500D01*
X145607142Y-102949642D02*
X145750000Y-103021071D01*
X146107142Y-103021071D01*
X146250000Y-102949642D01*
X146321428Y-102806785D01*
X146321428Y-102663928D01*
X146250000Y-102521071D01*
X146107142Y-102449642D01*
X145750000Y-102449642D01*
X145607142Y-102378214D01*
X144892857Y-103021071D02*
X144892857Y-102021071D01*
X144892857Y-102163928D02*
X144821428Y-102092500D01*
X144678571Y-102021071D01*
X144464285Y-102021071D01*
X144321428Y-102092500D01*
X144250000Y-102235357D01*
X144250000Y-103021071D01*
X144250000Y-102235357D02*
X144178571Y-102092500D01*
X144035714Y-102021071D01*
X143821428Y-102021071D01*
X143678571Y-102092500D01*
X143607142Y-102235357D01*
X143607142Y-103021071D01*
X142892857Y-103021071D02*
X142892857Y-102021071D01*
X142892857Y-101521071D02*
X142964285Y-101592500D01*
X142892857Y-101663928D01*
X142821428Y-101592500D01*
X142892857Y-101521071D01*
X142892857Y-101663928D01*
X141964285Y-103021071D02*
X142107142Y-102949642D01*
X142178571Y-102806785D01*
X142178571Y-101521071D01*
X141178571Y-103021071D02*
X141321428Y-102949642D01*
X141392857Y-102878214D01*
X141464285Y-102735357D01*
X141464285Y-102306785D01*
X141392857Y-102163928D01*
X141321428Y-102092500D01*
X141178571Y-102021071D01*
X140964285Y-102021071D01*
X140821428Y-102092500D01*
X140750000Y-102163928D01*
X140678571Y-102306785D01*
X140678571Y-102735357D01*
X140750000Y-102878214D01*
X140821428Y-102949642D01*
X140964285Y-103021071D01*
X141178571Y-103021071D01*
X146821428Y-104078928D02*
X146750000Y-104007500D01*
X146607142Y-103936071D01*
X146250000Y-103936071D01*
X146107142Y-104007500D01*
X146035714Y-104078928D01*
X145964285Y-104221785D01*
X145964285Y-104364642D01*
X146035714Y-104578928D01*
X146892857Y-105436071D01*
X145964285Y-105436071D01*
X145035714Y-103936071D02*
X144892857Y-103936071D01*
X144750000Y-104007500D01*
X144678571Y-104078928D01*
X144607142Y-104221785D01*
X144535714Y-104507500D01*
X144535714Y-104864642D01*
X144607142Y-105150357D01*
X144678571Y-105293214D01*
X144750000Y-105364642D01*
X144892857Y-105436071D01*
X145035714Y-105436071D01*
X145178571Y-105364642D01*
X145250000Y-105293214D01*
X145321428Y-105150357D01*
X145392857Y-104864642D01*
X145392857Y-104507500D01*
X145321428Y-104221785D01*
X145250000Y-104078928D01*
X145178571Y-104007500D01*
X145035714Y-103936071D01*
X143964285Y-104078928D02*
X143892857Y-104007500D01*
X143750000Y-103936071D01*
X143392857Y-103936071D01*
X143250000Y-104007500D01*
X143178571Y-104078928D01*
X143107142Y-104221785D01*
X143107142Y-104364642D01*
X143178571Y-104578928D01*
X144035714Y-105436071D01*
X143107142Y-105436071D01*
X142535714Y-104078928D02*
X142464285Y-104007500D01*
X142321428Y-103936071D01*
X141964285Y-103936071D01*
X141821428Y-104007500D01*
X141750000Y-104078928D01*
X141678571Y-104221785D01*
X141678571Y-104364642D01*
X141750000Y-104578928D01*
X142607142Y-105436071D01*
X141678571Y-105436071D01*
X96892857Y-102878214D02*
X96964285Y-102949642D01*
X97178571Y-103021071D01*
X97321428Y-103021071D01*
X97535714Y-102949642D01*
X97678571Y-102806785D01*
X97750000Y-102663928D01*
X97821428Y-102378214D01*
X97821428Y-102163928D01*
X97750000Y-101878214D01*
X97678571Y-101735357D01*
X97535714Y-101592500D01*
X97321428Y-101521071D01*
X97178571Y-101521071D01*
X96964285Y-101592500D01*
X96892857Y-101663928D01*
X95607142Y-103021071D02*
X95607142Y-102235357D01*
X95678571Y-102092500D01*
X95821428Y-102021071D01*
X96107142Y-102021071D01*
X96250000Y-102092500D01*
X95607142Y-102949642D02*
X95750000Y-103021071D01*
X96107142Y-103021071D01*
X96250000Y-102949642D01*
X96321428Y-102806785D01*
X96321428Y-102663928D01*
X96250000Y-102521071D01*
X96107142Y-102449642D01*
X95750000Y-102449642D01*
X95607142Y-102378214D01*
X94892857Y-103021071D02*
X94892857Y-102021071D01*
X94892857Y-102163928D02*
X94821428Y-102092500D01*
X94678571Y-102021071D01*
X94464285Y-102021071D01*
X94321428Y-102092500D01*
X94250000Y-102235357D01*
X94250000Y-103021071D01*
X94250000Y-102235357D02*
X94178571Y-102092500D01*
X94035714Y-102021071D01*
X93821428Y-102021071D01*
X93678571Y-102092500D01*
X93607142Y-102235357D01*
X93607142Y-103021071D01*
X92892857Y-103021071D02*
X92892857Y-102021071D01*
X92892857Y-101521071D02*
X92964285Y-101592500D01*
X92892857Y-101663928D01*
X92821428Y-101592500D01*
X92892857Y-101521071D01*
X92892857Y-101663928D01*
X91964285Y-103021071D02*
X92107142Y-102949642D01*
X92178571Y-102806785D01*
X92178571Y-101521071D01*
X91178571Y-103021071D02*
X91321428Y-102949642D01*
X91392857Y-102878214D01*
X91464285Y-102735357D01*
X91464285Y-102306785D01*
X91392857Y-102163928D01*
X91321428Y-102092500D01*
X91178571Y-102021071D01*
X90964285Y-102021071D01*
X90821428Y-102092500D01*
X90750000Y-102163928D01*
X90678571Y-102306785D01*
X90678571Y-102735357D01*
X90750000Y-102878214D01*
X90821428Y-102949642D01*
X90964285Y-103021071D01*
X91178571Y-103021071D01*
X96821428Y-104078928D02*
X96750000Y-104007500D01*
X96607142Y-103936071D01*
X96250000Y-103936071D01*
X96107142Y-104007500D01*
X96035714Y-104078928D01*
X95964285Y-104221785D01*
X95964285Y-104364642D01*
X96035714Y-104578928D01*
X96892857Y-105436071D01*
X95964285Y-105436071D01*
X95035714Y-103936071D02*
X94892857Y-103936071D01*
X94750000Y-104007500D01*
X94678571Y-104078928D01*
X94607142Y-104221785D01*
X94535714Y-104507500D01*
X94535714Y-104864642D01*
X94607142Y-105150357D01*
X94678571Y-105293214D01*
X94750000Y-105364642D01*
X94892857Y-105436071D01*
X95035714Y-105436071D01*
X95178571Y-105364642D01*
X95250000Y-105293214D01*
X95321428Y-105150357D01*
X95392857Y-104864642D01*
X95392857Y-104507500D01*
X95321428Y-104221785D01*
X95250000Y-104078928D01*
X95178571Y-104007500D01*
X95035714Y-103936071D01*
X93964285Y-104078928D02*
X93892857Y-104007500D01*
X93750000Y-103936071D01*
X93392857Y-103936071D01*
X93250000Y-104007500D01*
X93178571Y-104078928D01*
X93107142Y-104221785D01*
X93107142Y-104364642D01*
X93178571Y-104578928D01*
X94035714Y-105436071D01*
X93107142Y-105436071D01*
X92535714Y-104078928D02*
X92464285Y-104007500D01*
X92321428Y-103936071D01*
X91964285Y-103936071D01*
X91821428Y-104007500D01*
X91750000Y-104078928D01*
X91678571Y-104221785D01*
X91678571Y-104364642D01*
X91750000Y-104578928D01*
X92607142Y-105436071D01*
X91678571Y-105436071D01*
D11*
%TO.C,G\u002A\u002A\u002A5*%
X148957665Y-127744310D02*
X148955118Y-127751167D01*
X148955118Y-127751167D02*
X148892780Y-127814247D01*
X148892780Y-127814247D02*
X148758852Y-127763813D01*
X148758852Y-127763813D02*
X148743616Y-127754958D01*
X148743616Y-127754958D02*
X148589211Y-127697037D01*
X148589211Y-127697037D02*
X148478107Y-127764417D01*
X148478107Y-127764417D02*
X148469367Y-127774703D01*
X148469367Y-127774703D02*
X148335481Y-127856786D01*
X148335481Y-127856786D02*
X148093407Y-127943424D01*
X148093407Y-127943424D02*
X147869171Y-127999582D01*
X147869171Y-127999582D02*
X147581683Y-128070321D01*
X147581683Y-128070321D02*
X147435760Y-128139967D01*
X147435760Y-128139967D02*
X147404288Y-128222263D01*
X147404288Y-128222263D02*
X147406970Y-128233837D01*
X147406970Y-128233837D02*
X147439059Y-128358759D01*
X147439059Y-128358759D02*
X147503060Y-128616231D01*
X147503060Y-128616231D02*
X147591078Y-128974213D01*
X147591078Y-128974213D02*
X147695220Y-129400665D01*
X147695220Y-129400665D02*
X147752192Y-129635000D01*
X147752192Y-129635000D02*
X147857130Y-130065205D01*
X147857130Y-130065205D02*
X147985984Y-130590142D01*
X147985984Y-130590142D02*
X148133651Y-131189303D01*
X148133651Y-131189303D02*
X148295028Y-131842183D01*
X148295028Y-131842183D02*
X148465009Y-132528277D01*
X148465009Y-132528277D02*
X148638492Y-133227079D01*
X148638492Y-133227079D02*
X148810373Y-133918083D01*
X148810373Y-133918083D02*
X148975548Y-134580785D01*
X148975548Y-134580785D02*
X149128912Y-135194677D01*
X149128912Y-135194677D02*
X149265364Y-135739255D01*
X149265364Y-135739255D02*
X149379798Y-136194013D01*
X149379798Y-136194013D02*
X149467110Y-136538445D01*
X149467110Y-136538445D02*
X149522198Y-136752047D01*
X149522198Y-136752047D02*
X149538149Y-136810500D01*
X149538149Y-136810500D02*
X149527071Y-136934189D01*
X149527071Y-136934189D02*
X149441283Y-136958667D01*
X149441283Y-136958667D02*
X149352132Y-136986683D01*
X149352132Y-136986683D02*
X149332697Y-137099737D01*
X149332697Y-137099737D02*
X149357930Y-137271965D01*
X149357930Y-137271965D02*
X149427539Y-137501951D01*
X149427539Y-137501951D02*
X149522270Y-137660299D01*
X149522270Y-137660299D02*
X149538187Y-137674132D01*
X149538187Y-137674132D02*
X149618290Y-137805445D01*
X149618290Y-137805445D02*
X149686084Y-138040119D01*
X149686084Y-138040119D02*
X149709823Y-138186628D01*
X149709823Y-138186628D02*
X149759977Y-138610257D01*
X149759977Y-138610257D02*
X147680191Y-141276667D01*
X147680191Y-141276667D02*
X144837263Y-141276194D01*
X144837263Y-141276194D02*
X144064050Y-141273428D01*
X144064050Y-141273428D02*
X143368349Y-141265720D01*
X143368349Y-141265720D02*
X142767625Y-141253553D01*
X142767625Y-141253553D02*
X142279343Y-141237410D01*
X142279343Y-141237410D02*
X141920968Y-141217774D01*
X141920968Y-141217774D02*
X141709965Y-141195129D01*
X141709965Y-141195129D02*
X141681712Y-141188895D01*
X141681712Y-141188895D02*
X141369348Y-141028800D01*
X141369348Y-141028800D02*
X141038989Y-140725225D01*
X141038989Y-140725225D02*
X141018880Y-140702534D01*
X141018880Y-140702534D02*
X140681315Y-140364946D01*
X140681315Y-140364946D02*
X140340695Y-140108032D01*
X140340695Y-140108032D02*
X140031772Y-139955116D01*
X140031772Y-139955116D02*
X139856500Y-139922434D01*
X139856500Y-139922434D02*
X139707801Y-139890198D01*
X139707801Y-139890198D02*
X139666000Y-139837333D01*
X139666000Y-139837333D02*
X139597085Y-139763029D01*
X139597085Y-139763029D02*
X139534004Y-139752667D01*
X139534004Y-139752667D02*
X139446369Y-139793712D01*
X139446369Y-139793712D02*
X139454334Y-139837333D01*
X139454334Y-139837333D02*
X139422616Y-139899112D01*
X139422616Y-139899112D02*
X139268831Y-139923859D01*
X139268831Y-139923859D02*
X138966818Y-139979415D01*
X138966818Y-139979415D02*
X138624293Y-140117716D01*
X138624293Y-140117716D02*
X138320902Y-140302196D01*
X138320902Y-140302196D02*
X138192378Y-140418042D01*
X138192378Y-140418042D02*
X138040570Y-140550849D01*
X138040570Y-140550849D02*
X137926270Y-140599333D01*
X137926270Y-140599333D02*
X137803824Y-140677005D01*
X137803824Y-140677005D02*
X137732174Y-140890891D01*
X137732174Y-140890891D02*
X137718667Y-141082291D01*
X137718667Y-141082291D02*
X137732877Y-141227591D01*
X137732877Y-141227591D02*
X137796002Y-141229190D01*
X137796002Y-141229190D02*
X137850489Y-141187998D01*
X137850489Y-141187998D02*
X137925134Y-141141894D01*
X137925134Y-141141894D02*
X137954059Y-141188733D01*
X137954059Y-141188733D02*
X137944145Y-141357764D01*
X137944145Y-141357764D02*
X137925493Y-141506914D01*
X137925493Y-141506914D02*
X137928509Y-142040387D01*
X137928509Y-142040387D02*
X138089441Y-142515759D01*
X138089441Y-142515759D02*
X138293490Y-142814330D01*
X138293490Y-142814330D02*
X138636487Y-143107341D01*
X138636487Y-143107341D02*
X139069383Y-143269073D01*
X139069383Y-143269073D02*
X139498152Y-143308667D01*
X139498152Y-143308667D02*
X139984079Y-143243698D01*
X139984079Y-143243698D02*
X140383320Y-143042147D01*
X140383320Y-143042147D02*
X140711076Y-142694045D01*
X140711076Y-142694045D02*
X140885938Y-142398500D01*
X140885938Y-142398500D02*
X140993931Y-142184834D01*
X140993931Y-142184834D02*
X140216334Y-142184834D01*
X140216334Y-142184834D02*
X140059325Y-142361020D01*
X140059325Y-142361020D02*
X139872190Y-142510261D01*
X139872190Y-142510261D02*
X139608722Y-142594753D01*
X139608722Y-142594753D02*
X139437151Y-142619803D01*
X139437151Y-142619803D02*
X139289973Y-142595404D01*
X139289973Y-142595404D02*
X139113301Y-142530183D01*
X139113301Y-142530183D02*
X138884719Y-142349480D01*
X138884719Y-142349480D02*
X138725262Y-142078862D01*
X138725262Y-142078862D02*
X138651595Y-141773468D01*
X138651595Y-141773468D02*
X138680387Y-141488439D01*
X138680387Y-141488439D02*
X138755834Y-141347569D01*
X138755834Y-141347569D02*
X138971272Y-141147291D01*
X138971272Y-141147291D02*
X139225820Y-140999735D01*
X139225820Y-140999735D02*
X139449113Y-140945524D01*
X139449113Y-140945524D02*
X139452006Y-140945636D01*
X139452006Y-140945636D02*
X139517057Y-140965751D01*
X139517057Y-140965751D02*
X139415648Y-141012493D01*
X139415648Y-141012493D02*
X139353827Y-141031343D01*
X139353827Y-141031343D02*
X139042387Y-141193217D01*
X139042387Y-141193217D02*
X138834145Y-141447575D01*
X138834145Y-141447575D02*
X138757550Y-141754398D01*
X138757550Y-141754398D02*
X138765734Y-141858641D01*
X138765734Y-141858641D02*
X138886573Y-142190719D01*
X138886573Y-142190719D02*
X139108561Y-142396361D01*
X139108561Y-142396361D02*
X139412092Y-142467843D01*
X139412092Y-142467843D02*
X139777560Y-142397441D01*
X139777560Y-142397441D02*
X139945372Y-142323417D01*
X139945372Y-142323417D02*
X140171039Y-142208000D01*
X140171039Y-142208000D02*
X139412000Y-142208000D01*
X139412000Y-142208000D02*
X139347571Y-142290206D01*
X139347571Y-142290206D02*
X139327334Y-142292667D01*
X139327334Y-142292667D02*
X139245127Y-142228237D01*
X139245127Y-142228237D02*
X139242667Y-142208000D01*
X139242667Y-142208000D02*
X139307096Y-142125793D01*
X139307096Y-142125793D02*
X139327334Y-142123333D01*
X139327334Y-142123333D02*
X139409540Y-142187762D01*
X139409540Y-142187762D02*
X139412000Y-142208000D01*
X139412000Y-142208000D02*
X140171039Y-142208000D01*
X140171039Y-142208000D02*
X140216334Y-142184834D01*
X140216334Y-142184834D02*
X140993931Y-142184834D01*
X140993931Y-142184834D02*
X141025016Y-142123333D01*
X141025016Y-142123333D02*
X141829270Y-142123333D01*
X141829270Y-142123333D02*
X142222338Y-142125508D01*
X142222338Y-142125508D02*
X142480909Y-142150323D01*
X142480909Y-142150323D02*
X142639756Y-142225210D01*
X142639756Y-142225210D02*
X142733646Y-142377602D01*
X142733646Y-142377602D02*
X142797352Y-142634934D01*
X142797352Y-142634934D02*
X142848716Y-142927667D01*
X142848716Y-142927667D02*
X142921845Y-143351000D01*
X142921845Y-143351000D02*
X142966089Y-142758333D01*
X142966089Y-142758333D02*
X143010334Y-142165667D01*
X143010334Y-142165667D02*
X145643905Y-142123333D01*
X145643905Y-142123333D02*
X148277476Y-142081000D01*
X148277476Y-142081000D02*
X148411780Y-141921330D01*
X148411780Y-141921330D02*
X139147768Y-141921330D01*
X139147768Y-141921330D02*
X139126845Y-142038225D01*
X139126845Y-142038225D02*
X139103858Y-142064587D01*
X139103858Y-142064587D02*
X138998316Y-142081710D01*
X138998316Y-142081710D02*
X138912742Y-141995896D01*
X138912742Y-141995896D02*
X138904000Y-141949003D01*
X138904000Y-141949003D02*
X138972652Y-141878297D01*
X138972652Y-141878297D02*
X139031000Y-141869333D01*
X139031000Y-141869333D02*
X139147768Y-141921330D01*
X139147768Y-141921330D02*
X148411780Y-141921330D01*
X148411780Y-141921330D02*
X148505123Y-141810358D01*
X148505123Y-141810358D02*
X148689401Y-141624916D01*
X148689401Y-141624916D02*
X148711901Y-141608983D01*
X148711901Y-141608983D02*
X139141773Y-141608983D01*
X139141773Y-141608983D02*
X139100902Y-141686186D01*
X139100902Y-141686186D02*
X139031000Y-141700000D01*
X139031000Y-141700000D02*
X138925627Y-141657040D01*
X138925627Y-141657040D02*
X138920228Y-141608983D01*
X138920228Y-141608983D02*
X139007637Y-141521509D01*
X139007637Y-141521509D02*
X139031000Y-141517967D01*
X139031000Y-141517967D02*
X139130275Y-141583881D01*
X139130275Y-141583881D02*
X139141773Y-141608983D01*
X139141773Y-141608983D02*
X148711901Y-141608983D01*
X148711901Y-141608983D02*
X148863136Y-141501891D01*
X148863136Y-141501891D02*
X148898386Y-141487153D01*
X148898386Y-141487153D02*
X149044596Y-141402538D01*
X149044596Y-141402538D02*
X149039591Y-141361333D01*
X149039591Y-141361333D02*
X139412000Y-141361333D01*
X139412000Y-141361333D02*
X139347571Y-141443540D01*
X139347571Y-141443540D02*
X139327334Y-141446000D01*
X139327334Y-141446000D02*
X139245127Y-141381571D01*
X139245127Y-141381571D02*
X139242667Y-141361333D01*
X139242667Y-141361333D02*
X139307096Y-141279127D01*
X139307096Y-141279127D02*
X139327334Y-141276667D01*
X139327334Y-141276667D02*
X139409540Y-141341096D01*
X139409540Y-141341096D02*
X139412000Y-141361333D01*
X139412000Y-141361333D02*
X149039591Y-141361333D01*
X149039591Y-141361333D02*
X149034488Y-141319334D01*
X149034488Y-141319334D02*
X148876720Y-141277112D01*
X148876720Y-141277112D02*
X148852334Y-141276667D01*
X148852334Y-141276667D02*
X148693309Y-141254905D01*
X148693309Y-141254905D02*
X148641139Y-141213167D01*
X148641139Y-141213167D02*
X148691406Y-141123604D01*
X148691406Y-141123604D02*
X148825450Y-140935320D01*
X148825450Y-140935320D02*
X149018798Y-140679809D01*
X149018798Y-140679809D02*
X149246976Y-140388563D01*
X149246976Y-140388563D02*
X149485511Y-140093074D01*
X149485511Y-140093074D02*
X149709930Y-139824837D01*
X149709930Y-139824837D02*
X149804680Y-139715883D01*
X149804680Y-139715883D02*
X150024470Y-139467432D01*
X150024470Y-139467432D02*
X150137238Y-139793157D01*
X150137238Y-139793157D02*
X150202780Y-139999076D01*
X150202780Y-139999076D02*
X150230407Y-140120417D01*
X150230407Y-140120417D02*
X150228504Y-140132526D01*
X150228504Y-140132526D02*
X149791375Y-140484511D01*
X149791375Y-140484511D02*
X149467562Y-140901478D01*
X149467562Y-140901478D02*
X149277229Y-141352070D01*
X149277229Y-141352070D02*
X149234161Y-141678833D01*
X149234161Y-141678833D02*
X149260635Y-141850105D01*
X149260635Y-141850105D02*
X149319928Y-141952290D01*
X149319928Y-141952290D02*
X149380083Y-141954327D01*
X149380083Y-141954327D02*
X149408382Y-141848167D01*
X149408382Y-141848167D02*
X149430415Y-141858974D01*
X149430415Y-141858974D02*
X149480850Y-142000420D01*
X149480850Y-142000420D02*
X149523285Y-142148408D01*
X149523285Y-142148408D02*
X149717901Y-142590163D01*
X149717901Y-142590163D02*
X150026677Y-142955441D01*
X150026677Y-142955441D02*
X150394781Y-143192094D01*
X150394781Y-143192094D02*
X150671920Y-143266373D01*
X150671920Y-143266373D02*
X151018283Y-143300430D01*
X151018283Y-143300430D02*
X151365995Y-143293362D01*
X151365995Y-143293362D02*
X151647182Y-143244266D01*
X151647182Y-143244266D02*
X151731000Y-143209862D01*
X151731000Y-143209862D02*
X152150623Y-142892196D01*
X152150623Y-142892196D02*
X152437762Y-142494708D01*
X152437762Y-142494708D02*
X152588898Y-142046445D01*
X152588898Y-142046445D02*
X152600513Y-141576453D01*
X152600513Y-141576453D02*
X152469087Y-141113778D01*
X152469087Y-141113778D02*
X152191103Y-140687467D01*
X152191103Y-140687467D02*
X152053523Y-140547619D01*
X152053523Y-140547619D02*
X151895458Y-140386803D01*
X151895458Y-140386803D02*
X151826715Y-140282677D01*
X151826715Y-140282677D02*
X151841455Y-140260667D01*
X151841455Y-140260667D02*
X151936502Y-140208437D01*
X151936502Y-140208437D02*
X151942667Y-140181188D01*
X151942667Y-140181188D02*
X151867241Y-140122778D01*
X151867241Y-140122778D02*
X151676108Y-140065616D01*
X151676108Y-140065616D02*
X151557472Y-140043945D01*
X151557472Y-140043945D02*
X151300527Y-139986389D01*
X151300527Y-139986389D02*
X151107695Y-139909590D01*
X151107695Y-139909590D02*
X151064762Y-139878666D01*
X151064762Y-139878666D02*
X151010874Y-139764664D01*
X151010874Y-139764664D02*
X150927346Y-139514251D01*
X150927346Y-139514251D02*
X150822586Y-139156021D01*
X150822586Y-139156021D02*
X150704999Y-138718567D01*
X150704999Y-138718567D02*
X150596167Y-138284923D01*
X150596167Y-138284923D02*
X150476320Y-137808014D01*
X150476320Y-137808014D02*
X150364076Y-137391524D01*
X150364076Y-137391524D02*
X150267239Y-137062109D01*
X150267239Y-137062109D02*
X150193612Y-136846426D01*
X150193612Y-136846426D02*
X150153030Y-136771343D01*
X150153030Y-136771343D02*
X150098856Y-136682456D01*
X150098856Y-136682456D02*
X150019729Y-136465518D01*
X150019729Y-136465518D02*
X149928213Y-136157606D01*
X149928213Y-136157606D02*
X149871725Y-135941162D01*
X149871725Y-135941162D02*
X149807513Y-135685361D01*
X149807513Y-135685361D02*
X149707563Y-135290882D01*
X149707563Y-135290882D02*
X149578356Y-134783032D01*
X149578356Y-134783032D02*
X149426370Y-134187119D01*
X149426370Y-134187119D02*
X149258085Y-133528451D01*
X149258085Y-133528451D02*
X149079983Y-132832335D01*
X149079983Y-132832335D02*
X148898542Y-132124079D01*
X148898542Y-132124079D02*
X148720243Y-131428991D01*
X148720243Y-131428991D02*
X148551565Y-130772378D01*
X148551565Y-130772378D02*
X148398988Y-130179549D01*
X148398988Y-130179549D02*
X148268993Y-129675810D01*
X148268993Y-129675810D02*
X148168059Y-129286470D01*
X148168059Y-129286470D02*
X148154101Y-129232882D01*
X148154101Y-129232882D02*
X148084547Y-128914888D01*
X148084547Y-128914888D02*
X148087778Y-128703170D01*
X148087778Y-128703170D02*
X148185800Y-128576466D01*
X148185800Y-128576466D02*
X148400622Y-128513516D01*
X148400622Y-128513516D02*
X148754251Y-128493057D01*
X148754251Y-128493057D02*
X148920999Y-128492000D01*
X148920999Y-128492000D02*
X149256986Y-128490580D01*
X149256986Y-128490580D02*
X149449089Y-128480757D01*
X149449089Y-128480757D02*
X149522757Y-128454191D01*
X149522757Y-128454191D02*
X149503438Y-128402538D01*
X149503438Y-128402538D02*
X149426179Y-128326400D01*
X149426179Y-128326400D02*
X149275964Y-128118931D01*
X149275964Y-128118931D02*
X149191820Y-127903066D01*
X149191820Y-127903066D02*
X149120443Y-127705850D01*
X149120443Y-127705850D02*
X149035503Y-127648511D01*
X149035503Y-127648511D02*
X148957665Y-127744310D01*
X148957665Y-127744310D02*
X148957665Y-127744310D01*
G36*
X148505123Y-141810358D02*
G01*
X148411780Y-141921330D01*
X148277476Y-142081000D01*
X145643905Y-142123333D01*
X143010334Y-142165667D01*
X142966089Y-142758333D01*
X142921845Y-143351000D01*
X142848716Y-142927667D01*
X142797352Y-142634934D01*
X142733646Y-142377602D01*
X142639756Y-142225210D01*
X142480909Y-142150323D01*
X142222338Y-142125508D01*
X141829270Y-142123333D01*
X141025016Y-142123333D01*
X140993931Y-142184834D01*
X140885938Y-142398500D01*
X140711076Y-142694045D01*
X140383320Y-143042147D01*
X139984079Y-143243698D01*
X139498152Y-143308667D01*
X139069383Y-143269073D01*
X138636487Y-143107341D01*
X138293490Y-142814330D01*
X138089441Y-142515759D01*
X137928509Y-142040387D01*
X137927000Y-141773468D01*
X138651595Y-141773468D01*
X138725262Y-142078862D01*
X138884719Y-142349480D01*
X139113301Y-142530183D01*
X139289973Y-142595404D01*
X139437151Y-142619803D01*
X139608722Y-142594753D01*
X139872190Y-142510261D01*
X140059325Y-142361020D01*
X140216334Y-142184834D01*
X140171039Y-142208000D01*
X139945372Y-142323417D01*
X139777560Y-142397441D01*
X139412092Y-142467843D01*
X139108561Y-142396361D01*
X138905228Y-142208000D01*
X139242667Y-142208000D01*
X139245127Y-142228237D01*
X139327334Y-142292667D01*
X139347571Y-142290206D01*
X139412000Y-142208000D01*
X139409540Y-142187762D01*
X139327334Y-142123333D01*
X139307096Y-142125793D01*
X139242667Y-142208000D01*
X138905228Y-142208000D01*
X138886573Y-142190719D01*
X138798616Y-141949003D01*
X138904000Y-141949003D01*
X138912742Y-141995896D01*
X138998316Y-142081710D01*
X139103858Y-142064587D01*
X139126845Y-142038225D01*
X139147768Y-141921330D01*
X139031000Y-141869333D01*
X138972652Y-141878297D01*
X138904000Y-141949003D01*
X138798616Y-141949003D01*
X138765734Y-141858641D01*
X138757550Y-141754398D01*
X138793851Y-141608983D01*
X138920228Y-141608983D01*
X138925627Y-141657040D01*
X139031000Y-141700000D01*
X139100902Y-141686186D01*
X139141773Y-141608983D01*
X139130275Y-141583881D01*
X139031000Y-141517967D01*
X139007637Y-141521509D01*
X138920228Y-141608983D01*
X138793851Y-141608983D01*
X138834145Y-141447575D01*
X138904751Y-141361333D01*
X139242667Y-141361333D01*
X139245127Y-141381571D01*
X139327334Y-141446000D01*
X139347571Y-141443540D01*
X139412000Y-141361333D01*
X139409540Y-141341096D01*
X139327334Y-141276667D01*
X139307096Y-141279127D01*
X139242667Y-141361333D01*
X138904751Y-141361333D01*
X139042387Y-141193217D01*
X139353827Y-141031343D01*
X139415648Y-141012493D01*
X139517057Y-140965751D01*
X139452006Y-140945636D01*
X139449113Y-140945524D01*
X139225820Y-140999735D01*
X138971272Y-141147291D01*
X138755834Y-141347569D01*
X138680387Y-141488439D01*
X138651595Y-141773468D01*
X137927000Y-141773468D01*
X137925493Y-141506914D01*
X137944145Y-141357764D01*
X137954059Y-141188733D01*
X137925134Y-141141894D01*
X137850489Y-141187998D01*
X137796002Y-141229190D01*
X137732877Y-141227591D01*
X137718667Y-141082291D01*
X137732174Y-140890891D01*
X137803824Y-140677005D01*
X137926270Y-140599333D01*
X138040570Y-140550849D01*
X138192378Y-140418042D01*
X138320902Y-140302196D01*
X138624293Y-140117716D01*
X138966818Y-139979415D01*
X139268831Y-139923859D01*
X139422616Y-139899112D01*
X139454334Y-139837333D01*
X139446369Y-139793712D01*
X139534004Y-139752667D01*
X139597085Y-139763029D01*
X139666000Y-139837333D01*
X139707801Y-139890198D01*
X139856500Y-139922434D01*
X140031772Y-139955116D01*
X140340695Y-140108032D01*
X140681315Y-140364946D01*
X141018880Y-140702534D01*
X141038989Y-140725225D01*
X141369348Y-141028800D01*
X141681712Y-141188895D01*
X141709965Y-141195129D01*
X141920968Y-141217774D01*
X142279343Y-141237410D01*
X142767625Y-141253553D01*
X143368349Y-141265720D01*
X144064050Y-141273428D01*
X144837263Y-141276194D01*
X147680191Y-141276667D01*
X149759977Y-138610257D01*
X149709823Y-138186628D01*
X149686084Y-138040119D01*
X149618290Y-137805445D01*
X149538187Y-137674132D01*
X149522270Y-137660299D01*
X149427539Y-137501951D01*
X149357930Y-137271965D01*
X149332697Y-137099737D01*
X149352132Y-136986683D01*
X149441283Y-136958667D01*
X149527071Y-136934189D01*
X149538149Y-136810500D01*
X149522198Y-136752047D01*
X149467110Y-136538445D01*
X149379798Y-136194013D01*
X149265364Y-135739255D01*
X149128912Y-135194677D01*
X148975548Y-134580785D01*
X148810373Y-133918083D01*
X148638492Y-133227079D01*
X148465009Y-132528277D01*
X148295028Y-131842183D01*
X148133651Y-131189303D01*
X147985984Y-130590142D01*
X147857130Y-130065205D01*
X147752192Y-129635000D01*
X147695220Y-129400665D01*
X147591078Y-128974213D01*
X147503060Y-128616231D01*
X147439059Y-128358759D01*
X147406970Y-128233837D01*
X147404288Y-128222263D01*
X147435760Y-128139967D01*
X147581683Y-128070321D01*
X147869171Y-127999582D01*
X148093407Y-127943424D01*
X148335481Y-127856786D01*
X148469367Y-127774703D01*
X148478107Y-127764417D01*
X148589211Y-127697037D01*
X148743616Y-127754958D01*
X148758852Y-127763813D01*
X148892780Y-127814247D01*
X148955118Y-127751167D01*
X148957665Y-127744310D01*
X149035503Y-127648511D01*
X149120443Y-127705850D01*
X149191820Y-127903066D01*
X149275964Y-128118931D01*
X149426179Y-128326400D01*
X149503438Y-128402538D01*
X149522757Y-128454191D01*
X149449089Y-128480757D01*
X149256986Y-128490580D01*
X148920999Y-128492000D01*
X148754251Y-128493057D01*
X148400622Y-128513516D01*
X148185800Y-128576466D01*
X148087778Y-128703170D01*
X148084547Y-128914888D01*
X148154101Y-129232882D01*
X148168059Y-129286470D01*
X148268993Y-129675810D01*
X148398988Y-130179549D01*
X148551565Y-130772378D01*
X148720243Y-131428991D01*
X148898542Y-132124079D01*
X149079983Y-132832335D01*
X149258085Y-133528451D01*
X149426370Y-134187119D01*
X149578356Y-134783032D01*
X149707563Y-135290882D01*
X149807513Y-135685361D01*
X149871725Y-135941162D01*
X149928213Y-136157606D01*
X150019729Y-136465518D01*
X150098856Y-136682456D01*
X150153030Y-136771343D01*
X150193612Y-136846426D01*
X150267239Y-137062109D01*
X150364076Y-137391524D01*
X150476320Y-137808014D01*
X150596167Y-138284923D01*
X150704999Y-138718567D01*
X150822586Y-139156021D01*
X150927346Y-139514251D01*
X151010874Y-139764664D01*
X151064762Y-139878666D01*
X151107695Y-139909590D01*
X151300527Y-139986389D01*
X151557472Y-140043945D01*
X151676108Y-140065616D01*
X151867241Y-140122778D01*
X151942667Y-140181188D01*
X151936502Y-140208437D01*
X151841455Y-140260667D01*
X151826715Y-140282677D01*
X151895458Y-140386803D01*
X152053523Y-140547619D01*
X152191103Y-140687467D01*
X152469087Y-141113778D01*
X152600513Y-141576453D01*
X152588898Y-142046445D01*
X152437762Y-142494708D01*
X152150623Y-142892196D01*
X151731000Y-143209862D01*
X151647182Y-143244266D01*
X151365995Y-143293362D01*
X151018283Y-143300430D01*
X150671920Y-143266373D01*
X150394781Y-143192094D01*
X150026677Y-142955441D01*
X149717901Y-142590163D01*
X149523285Y-142148408D01*
X149480850Y-142000420D01*
X149430415Y-141858974D01*
X149408382Y-141848167D01*
X149380083Y-141954327D01*
X149319928Y-141952290D01*
X149260635Y-141850105D01*
X149234161Y-141678833D01*
X149277229Y-141352070D01*
X149467562Y-140901478D01*
X149791375Y-140484511D01*
X150228504Y-140132526D01*
X150230407Y-140120417D01*
X150202780Y-139999076D01*
X150137238Y-139793157D01*
X150024470Y-139467432D01*
X149804680Y-139715883D01*
X149709930Y-139824837D01*
X149485511Y-140093074D01*
X149246976Y-140388563D01*
X149018798Y-140679809D01*
X148825450Y-140935320D01*
X148691406Y-141123604D01*
X148641139Y-141213167D01*
X148693309Y-141254905D01*
X148852334Y-141276667D01*
X148876720Y-141277112D01*
X149034488Y-141319334D01*
X149039591Y-141361333D01*
X149044596Y-141402538D01*
X148898386Y-141487153D01*
X148863136Y-141501891D01*
X148711901Y-141608983D01*
X148689401Y-141624916D01*
X148505123Y-141810358D01*
G37*
X148505123Y-141810358D02*
X148411780Y-141921330D01*
X148277476Y-142081000D01*
X145643905Y-142123333D01*
X143010334Y-142165667D01*
X142966089Y-142758333D01*
X142921845Y-143351000D01*
X142848716Y-142927667D01*
X142797352Y-142634934D01*
X142733646Y-142377602D01*
X142639756Y-142225210D01*
X142480909Y-142150323D01*
X142222338Y-142125508D01*
X141829270Y-142123333D01*
X141025016Y-142123333D01*
X140993931Y-142184834D01*
X140885938Y-142398500D01*
X140711076Y-142694045D01*
X140383320Y-143042147D01*
X139984079Y-143243698D01*
X139498152Y-143308667D01*
X139069383Y-143269073D01*
X138636487Y-143107341D01*
X138293490Y-142814330D01*
X138089441Y-142515759D01*
X137928509Y-142040387D01*
X137927000Y-141773468D01*
X138651595Y-141773468D01*
X138725262Y-142078862D01*
X138884719Y-142349480D01*
X139113301Y-142530183D01*
X139289973Y-142595404D01*
X139437151Y-142619803D01*
X139608722Y-142594753D01*
X139872190Y-142510261D01*
X140059325Y-142361020D01*
X140216334Y-142184834D01*
X140171039Y-142208000D01*
X139945372Y-142323417D01*
X139777560Y-142397441D01*
X139412092Y-142467843D01*
X139108561Y-142396361D01*
X138905228Y-142208000D01*
X139242667Y-142208000D01*
X139245127Y-142228237D01*
X139327334Y-142292667D01*
X139347571Y-142290206D01*
X139412000Y-142208000D01*
X139409540Y-142187762D01*
X139327334Y-142123333D01*
X139307096Y-142125793D01*
X139242667Y-142208000D01*
X138905228Y-142208000D01*
X138886573Y-142190719D01*
X138798616Y-141949003D01*
X138904000Y-141949003D01*
X138912742Y-141995896D01*
X138998316Y-142081710D01*
X139103858Y-142064587D01*
X139126845Y-142038225D01*
X139147768Y-141921330D01*
X139031000Y-141869333D01*
X138972652Y-141878297D01*
X138904000Y-141949003D01*
X138798616Y-141949003D01*
X138765734Y-141858641D01*
X138757550Y-141754398D01*
X138793851Y-141608983D01*
X138920228Y-141608983D01*
X138925627Y-141657040D01*
X139031000Y-141700000D01*
X139100902Y-141686186D01*
X139141773Y-141608983D01*
X139130275Y-141583881D01*
X139031000Y-141517967D01*
X139007637Y-141521509D01*
X138920228Y-141608983D01*
X138793851Y-141608983D01*
X138834145Y-141447575D01*
X138904751Y-141361333D01*
X139242667Y-141361333D01*
X139245127Y-141381571D01*
X139327334Y-141446000D01*
X139347571Y-141443540D01*
X139412000Y-141361333D01*
X139409540Y-141341096D01*
X139327334Y-141276667D01*
X139307096Y-141279127D01*
X139242667Y-141361333D01*
X138904751Y-141361333D01*
X139042387Y-141193217D01*
X139353827Y-141031343D01*
X139415648Y-141012493D01*
X139517057Y-140965751D01*
X139452006Y-140945636D01*
X139449113Y-140945524D01*
X139225820Y-140999735D01*
X138971272Y-141147291D01*
X138755834Y-141347569D01*
X138680387Y-141488439D01*
X138651595Y-141773468D01*
X137927000Y-141773468D01*
X137925493Y-141506914D01*
X137944145Y-141357764D01*
X137954059Y-141188733D01*
X137925134Y-141141894D01*
X137850489Y-141187998D01*
X137796002Y-141229190D01*
X137732877Y-141227591D01*
X137718667Y-141082291D01*
X137732174Y-140890891D01*
X137803824Y-140677005D01*
X137926270Y-140599333D01*
X138040570Y-140550849D01*
X138192378Y-140418042D01*
X138320902Y-140302196D01*
X138624293Y-140117716D01*
X138966818Y-139979415D01*
X139268831Y-139923859D01*
X139422616Y-139899112D01*
X139454334Y-139837333D01*
X139446369Y-139793712D01*
X139534004Y-139752667D01*
X139597085Y-139763029D01*
X139666000Y-139837333D01*
X139707801Y-139890198D01*
X139856500Y-139922434D01*
X140031772Y-139955116D01*
X140340695Y-140108032D01*
X140681315Y-140364946D01*
X141018880Y-140702534D01*
X141038989Y-140725225D01*
X141369348Y-141028800D01*
X141681712Y-141188895D01*
X141709965Y-141195129D01*
X141920968Y-141217774D01*
X142279343Y-141237410D01*
X142767625Y-141253553D01*
X143368349Y-141265720D01*
X144064050Y-141273428D01*
X144837263Y-141276194D01*
X147680191Y-141276667D01*
X149759977Y-138610257D01*
X149709823Y-138186628D01*
X149686084Y-138040119D01*
X149618290Y-137805445D01*
X149538187Y-137674132D01*
X149522270Y-137660299D01*
X149427539Y-137501951D01*
X149357930Y-137271965D01*
X149332697Y-137099737D01*
X149352132Y-136986683D01*
X149441283Y-136958667D01*
X149527071Y-136934189D01*
X149538149Y-136810500D01*
X149522198Y-136752047D01*
X149467110Y-136538445D01*
X149379798Y-136194013D01*
X149265364Y-135739255D01*
X149128912Y-135194677D01*
X148975548Y-134580785D01*
X148810373Y-133918083D01*
X148638492Y-133227079D01*
X148465009Y-132528277D01*
X148295028Y-131842183D01*
X148133651Y-131189303D01*
X147985984Y-130590142D01*
X147857130Y-130065205D01*
X147752192Y-129635000D01*
X147695220Y-129400665D01*
X147591078Y-128974213D01*
X147503060Y-128616231D01*
X147439059Y-128358759D01*
X147406970Y-128233837D01*
X147404288Y-128222263D01*
X147435760Y-128139967D01*
X147581683Y-128070321D01*
X147869171Y-127999582D01*
X148093407Y-127943424D01*
X148335481Y-127856786D01*
X148469367Y-127774703D01*
X148478107Y-127764417D01*
X148589211Y-127697037D01*
X148743616Y-127754958D01*
X148758852Y-127763813D01*
X148892780Y-127814247D01*
X148955118Y-127751167D01*
X148957665Y-127744310D01*
X149035503Y-127648511D01*
X149120443Y-127705850D01*
X149191820Y-127903066D01*
X149275964Y-128118931D01*
X149426179Y-128326400D01*
X149503438Y-128402538D01*
X149522757Y-128454191D01*
X149449089Y-128480757D01*
X149256986Y-128490580D01*
X148920999Y-128492000D01*
X148754251Y-128493057D01*
X148400622Y-128513516D01*
X148185800Y-128576466D01*
X148087778Y-128703170D01*
X148084547Y-128914888D01*
X148154101Y-129232882D01*
X148168059Y-129286470D01*
X148268993Y-129675810D01*
X148398988Y-130179549D01*
X148551565Y-130772378D01*
X148720243Y-131428991D01*
X148898542Y-132124079D01*
X149079983Y-132832335D01*
X149258085Y-133528451D01*
X149426370Y-134187119D01*
X149578356Y-134783032D01*
X149707563Y-135290882D01*
X149807513Y-135685361D01*
X149871725Y-135941162D01*
X149928213Y-136157606D01*
X150019729Y-136465518D01*
X150098856Y-136682456D01*
X150153030Y-136771343D01*
X150193612Y-136846426D01*
X150267239Y-137062109D01*
X150364076Y-137391524D01*
X150476320Y-137808014D01*
X150596167Y-138284923D01*
X150704999Y-138718567D01*
X150822586Y-139156021D01*
X150927346Y-139514251D01*
X151010874Y-139764664D01*
X151064762Y-139878666D01*
X151107695Y-139909590D01*
X151300527Y-139986389D01*
X151557472Y-140043945D01*
X151676108Y-140065616D01*
X151867241Y-140122778D01*
X151942667Y-140181188D01*
X151936502Y-140208437D01*
X151841455Y-140260667D01*
X151826715Y-140282677D01*
X151895458Y-140386803D01*
X152053523Y-140547619D01*
X152191103Y-140687467D01*
X152469087Y-141113778D01*
X152600513Y-141576453D01*
X152588898Y-142046445D01*
X152437762Y-142494708D01*
X152150623Y-142892196D01*
X151731000Y-143209862D01*
X151647182Y-143244266D01*
X151365995Y-143293362D01*
X151018283Y-143300430D01*
X150671920Y-143266373D01*
X150394781Y-143192094D01*
X150026677Y-142955441D01*
X149717901Y-142590163D01*
X149523285Y-142148408D01*
X149480850Y-142000420D01*
X149430415Y-141858974D01*
X149408382Y-141848167D01*
X149380083Y-141954327D01*
X149319928Y-141952290D01*
X149260635Y-141850105D01*
X149234161Y-141678833D01*
X149277229Y-141352070D01*
X149467562Y-140901478D01*
X149791375Y-140484511D01*
X150228504Y-140132526D01*
X150230407Y-140120417D01*
X150202780Y-139999076D01*
X150137238Y-139793157D01*
X150024470Y-139467432D01*
X149804680Y-139715883D01*
X149709930Y-139824837D01*
X149485511Y-140093074D01*
X149246976Y-140388563D01*
X149018798Y-140679809D01*
X148825450Y-140935320D01*
X148691406Y-141123604D01*
X148641139Y-141213167D01*
X148693309Y-141254905D01*
X148852334Y-141276667D01*
X148876720Y-141277112D01*
X149034488Y-141319334D01*
X149039591Y-141361333D01*
X149044596Y-141402538D01*
X148898386Y-141487153D01*
X148863136Y-141501891D01*
X148711901Y-141608983D01*
X148689401Y-141624916D01*
X148505123Y-141810358D01*
%TO.C,G\u002A\u002A\u002A3*%
X148957665Y-94444310D02*
X148955118Y-94451167D01*
X148955118Y-94451167D02*
X148892780Y-94514247D01*
X148892780Y-94514247D02*
X148758852Y-94463813D01*
X148758852Y-94463813D02*
X148743616Y-94454958D01*
X148743616Y-94454958D02*
X148589211Y-94397037D01*
X148589211Y-94397037D02*
X148478107Y-94464417D01*
X148478107Y-94464417D02*
X148469367Y-94474703D01*
X148469367Y-94474703D02*
X148335481Y-94556786D01*
X148335481Y-94556786D02*
X148093407Y-94643424D01*
X148093407Y-94643424D02*
X147869171Y-94699582D01*
X147869171Y-94699582D02*
X147581683Y-94770321D01*
X147581683Y-94770321D02*
X147435760Y-94839967D01*
X147435760Y-94839967D02*
X147404288Y-94922263D01*
X147404288Y-94922263D02*
X147406970Y-94933837D01*
X147406970Y-94933837D02*
X147439059Y-95058759D01*
X147439059Y-95058759D02*
X147503060Y-95316231D01*
X147503060Y-95316231D02*
X147591078Y-95674213D01*
X147591078Y-95674213D02*
X147695220Y-96100665D01*
X147695220Y-96100665D02*
X147752192Y-96335000D01*
X147752192Y-96335000D02*
X147857130Y-96765205D01*
X147857130Y-96765205D02*
X147985984Y-97290142D01*
X147985984Y-97290142D02*
X148133651Y-97889303D01*
X148133651Y-97889303D02*
X148295028Y-98542183D01*
X148295028Y-98542183D02*
X148465009Y-99228277D01*
X148465009Y-99228277D02*
X148638492Y-99927079D01*
X148638492Y-99927079D02*
X148810373Y-100618083D01*
X148810373Y-100618083D02*
X148975548Y-101280785D01*
X148975548Y-101280785D02*
X149128912Y-101894677D01*
X149128912Y-101894677D02*
X149265364Y-102439255D01*
X149265364Y-102439255D02*
X149379798Y-102894013D01*
X149379798Y-102894013D02*
X149467110Y-103238445D01*
X149467110Y-103238445D02*
X149522198Y-103452047D01*
X149522198Y-103452047D02*
X149538149Y-103510500D01*
X149538149Y-103510500D02*
X149527071Y-103634189D01*
X149527071Y-103634189D02*
X149441283Y-103658667D01*
X149441283Y-103658667D02*
X149352132Y-103686683D01*
X149352132Y-103686683D02*
X149332697Y-103799737D01*
X149332697Y-103799737D02*
X149357930Y-103971965D01*
X149357930Y-103971965D02*
X149427539Y-104201951D01*
X149427539Y-104201951D02*
X149522270Y-104360299D01*
X149522270Y-104360299D02*
X149538187Y-104374132D01*
X149538187Y-104374132D02*
X149618290Y-104505445D01*
X149618290Y-104505445D02*
X149686084Y-104740119D01*
X149686084Y-104740119D02*
X149709823Y-104886628D01*
X149709823Y-104886628D02*
X149759977Y-105310257D01*
X149759977Y-105310257D02*
X147680191Y-107976667D01*
X147680191Y-107976667D02*
X144837263Y-107976194D01*
X144837263Y-107976194D02*
X144064050Y-107973428D01*
X144064050Y-107973428D02*
X143368349Y-107965720D01*
X143368349Y-107965720D02*
X142767625Y-107953553D01*
X142767625Y-107953553D02*
X142279343Y-107937410D01*
X142279343Y-107937410D02*
X141920968Y-107917774D01*
X141920968Y-107917774D02*
X141709965Y-107895129D01*
X141709965Y-107895129D02*
X141681712Y-107888895D01*
X141681712Y-107888895D02*
X141369348Y-107728800D01*
X141369348Y-107728800D02*
X141038989Y-107425225D01*
X141038989Y-107425225D02*
X141018880Y-107402534D01*
X141018880Y-107402534D02*
X140681315Y-107064946D01*
X140681315Y-107064946D02*
X140340695Y-106808032D01*
X140340695Y-106808032D02*
X140031772Y-106655116D01*
X140031772Y-106655116D02*
X139856500Y-106622434D01*
X139856500Y-106622434D02*
X139707801Y-106590198D01*
X139707801Y-106590198D02*
X139666000Y-106537333D01*
X139666000Y-106537333D02*
X139597085Y-106463029D01*
X139597085Y-106463029D02*
X139534004Y-106452667D01*
X139534004Y-106452667D02*
X139446369Y-106493712D01*
X139446369Y-106493712D02*
X139454334Y-106537333D01*
X139454334Y-106537333D02*
X139422616Y-106599112D01*
X139422616Y-106599112D02*
X139268831Y-106623859D01*
X139268831Y-106623859D02*
X138966818Y-106679415D01*
X138966818Y-106679415D02*
X138624293Y-106817716D01*
X138624293Y-106817716D02*
X138320902Y-107002196D01*
X138320902Y-107002196D02*
X138192378Y-107118042D01*
X138192378Y-107118042D02*
X138040570Y-107250849D01*
X138040570Y-107250849D02*
X137926270Y-107299333D01*
X137926270Y-107299333D02*
X137803824Y-107377005D01*
X137803824Y-107377005D02*
X137732174Y-107590891D01*
X137732174Y-107590891D02*
X137718667Y-107782291D01*
X137718667Y-107782291D02*
X137732877Y-107927591D01*
X137732877Y-107927591D02*
X137796002Y-107929190D01*
X137796002Y-107929190D02*
X137850489Y-107887998D01*
X137850489Y-107887998D02*
X137925134Y-107841894D01*
X137925134Y-107841894D02*
X137954059Y-107888733D01*
X137954059Y-107888733D02*
X137944145Y-108057764D01*
X137944145Y-108057764D02*
X137925493Y-108206914D01*
X137925493Y-108206914D02*
X137928509Y-108740387D01*
X137928509Y-108740387D02*
X138089441Y-109215759D01*
X138089441Y-109215759D02*
X138293490Y-109514330D01*
X138293490Y-109514330D02*
X138636487Y-109807341D01*
X138636487Y-109807341D02*
X139069383Y-109969073D01*
X139069383Y-109969073D02*
X139498152Y-110008667D01*
X139498152Y-110008667D02*
X139984079Y-109943698D01*
X139984079Y-109943698D02*
X140383320Y-109742147D01*
X140383320Y-109742147D02*
X140711076Y-109394045D01*
X140711076Y-109394045D02*
X140885938Y-109098500D01*
X140885938Y-109098500D02*
X140993931Y-108884834D01*
X140993931Y-108884834D02*
X140216334Y-108884834D01*
X140216334Y-108884834D02*
X140059325Y-109061020D01*
X140059325Y-109061020D02*
X139872190Y-109210261D01*
X139872190Y-109210261D02*
X139608722Y-109294753D01*
X139608722Y-109294753D02*
X139437151Y-109319803D01*
X139437151Y-109319803D02*
X139289973Y-109295404D01*
X139289973Y-109295404D02*
X139113301Y-109230183D01*
X139113301Y-109230183D02*
X138884719Y-109049480D01*
X138884719Y-109049480D02*
X138725262Y-108778862D01*
X138725262Y-108778862D02*
X138651595Y-108473468D01*
X138651595Y-108473468D02*
X138680387Y-108188439D01*
X138680387Y-108188439D02*
X138755834Y-108047569D01*
X138755834Y-108047569D02*
X138971272Y-107847291D01*
X138971272Y-107847291D02*
X139225820Y-107699735D01*
X139225820Y-107699735D02*
X139449113Y-107645524D01*
X139449113Y-107645524D02*
X139452006Y-107645636D01*
X139452006Y-107645636D02*
X139517057Y-107665751D01*
X139517057Y-107665751D02*
X139415648Y-107712493D01*
X139415648Y-107712493D02*
X139353827Y-107731343D01*
X139353827Y-107731343D02*
X139042387Y-107893217D01*
X139042387Y-107893217D02*
X138834145Y-108147575D01*
X138834145Y-108147575D02*
X138757550Y-108454398D01*
X138757550Y-108454398D02*
X138765734Y-108558641D01*
X138765734Y-108558641D02*
X138886573Y-108890719D01*
X138886573Y-108890719D02*
X139108561Y-109096361D01*
X139108561Y-109096361D02*
X139412092Y-109167843D01*
X139412092Y-109167843D02*
X139777560Y-109097441D01*
X139777560Y-109097441D02*
X139945372Y-109023417D01*
X139945372Y-109023417D02*
X140171039Y-108908000D01*
X140171039Y-108908000D02*
X139412000Y-108908000D01*
X139412000Y-108908000D02*
X139347571Y-108990206D01*
X139347571Y-108990206D02*
X139327334Y-108992667D01*
X139327334Y-108992667D02*
X139245127Y-108928237D01*
X139245127Y-108928237D02*
X139242667Y-108908000D01*
X139242667Y-108908000D02*
X139307096Y-108825793D01*
X139307096Y-108825793D02*
X139327334Y-108823333D01*
X139327334Y-108823333D02*
X139409540Y-108887762D01*
X139409540Y-108887762D02*
X139412000Y-108908000D01*
X139412000Y-108908000D02*
X140171039Y-108908000D01*
X140171039Y-108908000D02*
X140216334Y-108884834D01*
X140216334Y-108884834D02*
X140993931Y-108884834D01*
X140993931Y-108884834D02*
X141025016Y-108823333D01*
X141025016Y-108823333D02*
X141829270Y-108823333D01*
X141829270Y-108823333D02*
X142222338Y-108825508D01*
X142222338Y-108825508D02*
X142480909Y-108850323D01*
X142480909Y-108850323D02*
X142639756Y-108925210D01*
X142639756Y-108925210D02*
X142733646Y-109077602D01*
X142733646Y-109077602D02*
X142797352Y-109334934D01*
X142797352Y-109334934D02*
X142848716Y-109627667D01*
X142848716Y-109627667D02*
X142921845Y-110051000D01*
X142921845Y-110051000D02*
X142966089Y-109458333D01*
X142966089Y-109458333D02*
X143010334Y-108865667D01*
X143010334Y-108865667D02*
X145643905Y-108823333D01*
X145643905Y-108823333D02*
X148277476Y-108781000D01*
X148277476Y-108781000D02*
X148411780Y-108621330D01*
X148411780Y-108621330D02*
X139147768Y-108621330D01*
X139147768Y-108621330D02*
X139126845Y-108738225D01*
X139126845Y-108738225D02*
X139103858Y-108764587D01*
X139103858Y-108764587D02*
X138998316Y-108781710D01*
X138998316Y-108781710D02*
X138912742Y-108695896D01*
X138912742Y-108695896D02*
X138904000Y-108649003D01*
X138904000Y-108649003D02*
X138972652Y-108578297D01*
X138972652Y-108578297D02*
X139031000Y-108569333D01*
X139031000Y-108569333D02*
X139147768Y-108621330D01*
X139147768Y-108621330D02*
X148411780Y-108621330D01*
X148411780Y-108621330D02*
X148505123Y-108510358D01*
X148505123Y-108510358D02*
X148689401Y-108324916D01*
X148689401Y-108324916D02*
X148711901Y-108308983D01*
X148711901Y-108308983D02*
X139141773Y-108308983D01*
X139141773Y-108308983D02*
X139100902Y-108386186D01*
X139100902Y-108386186D02*
X139031000Y-108400000D01*
X139031000Y-108400000D02*
X138925627Y-108357040D01*
X138925627Y-108357040D02*
X138920228Y-108308983D01*
X138920228Y-108308983D02*
X139007637Y-108221509D01*
X139007637Y-108221509D02*
X139031000Y-108217967D01*
X139031000Y-108217967D02*
X139130275Y-108283881D01*
X139130275Y-108283881D02*
X139141773Y-108308983D01*
X139141773Y-108308983D02*
X148711901Y-108308983D01*
X148711901Y-108308983D02*
X148863136Y-108201891D01*
X148863136Y-108201891D02*
X148898386Y-108187153D01*
X148898386Y-108187153D02*
X149044596Y-108102538D01*
X149044596Y-108102538D02*
X149039591Y-108061333D01*
X149039591Y-108061333D02*
X139412000Y-108061333D01*
X139412000Y-108061333D02*
X139347571Y-108143540D01*
X139347571Y-108143540D02*
X139327334Y-108146000D01*
X139327334Y-108146000D02*
X139245127Y-108081571D01*
X139245127Y-108081571D02*
X139242667Y-108061333D01*
X139242667Y-108061333D02*
X139307096Y-107979127D01*
X139307096Y-107979127D02*
X139327334Y-107976667D01*
X139327334Y-107976667D02*
X139409540Y-108041096D01*
X139409540Y-108041096D02*
X139412000Y-108061333D01*
X139412000Y-108061333D02*
X149039591Y-108061333D01*
X149039591Y-108061333D02*
X149034488Y-108019334D01*
X149034488Y-108019334D02*
X148876720Y-107977112D01*
X148876720Y-107977112D02*
X148852334Y-107976667D01*
X148852334Y-107976667D02*
X148693309Y-107954905D01*
X148693309Y-107954905D02*
X148641139Y-107913167D01*
X148641139Y-107913167D02*
X148691406Y-107823604D01*
X148691406Y-107823604D02*
X148825450Y-107635320D01*
X148825450Y-107635320D02*
X149018798Y-107379809D01*
X149018798Y-107379809D02*
X149246976Y-107088563D01*
X149246976Y-107088563D02*
X149485511Y-106793074D01*
X149485511Y-106793074D02*
X149709930Y-106524837D01*
X149709930Y-106524837D02*
X149804680Y-106415883D01*
X149804680Y-106415883D02*
X150024470Y-106167432D01*
X150024470Y-106167432D02*
X150137238Y-106493157D01*
X150137238Y-106493157D02*
X150202780Y-106699076D01*
X150202780Y-106699076D02*
X150230407Y-106820417D01*
X150230407Y-106820417D02*
X150228504Y-106832526D01*
X150228504Y-106832526D02*
X149791375Y-107184511D01*
X149791375Y-107184511D02*
X149467562Y-107601478D01*
X149467562Y-107601478D02*
X149277229Y-108052070D01*
X149277229Y-108052070D02*
X149234161Y-108378833D01*
X149234161Y-108378833D02*
X149260635Y-108550105D01*
X149260635Y-108550105D02*
X149319928Y-108652290D01*
X149319928Y-108652290D02*
X149380083Y-108654327D01*
X149380083Y-108654327D02*
X149408382Y-108548167D01*
X149408382Y-108548167D02*
X149430415Y-108558974D01*
X149430415Y-108558974D02*
X149480850Y-108700420D01*
X149480850Y-108700420D02*
X149523285Y-108848408D01*
X149523285Y-108848408D02*
X149717901Y-109290163D01*
X149717901Y-109290163D02*
X150026677Y-109655441D01*
X150026677Y-109655441D02*
X150394781Y-109892094D01*
X150394781Y-109892094D02*
X150671920Y-109966373D01*
X150671920Y-109966373D02*
X151018283Y-110000430D01*
X151018283Y-110000430D02*
X151365995Y-109993362D01*
X151365995Y-109993362D02*
X151647182Y-109944266D01*
X151647182Y-109944266D02*
X151731000Y-109909862D01*
X151731000Y-109909862D02*
X152150623Y-109592196D01*
X152150623Y-109592196D02*
X152437762Y-109194708D01*
X152437762Y-109194708D02*
X152588898Y-108746445D01*
X152588898Y-108746445D02*
X152600513Y-108276453D01*
X152600513Y-108276453D02*
X152469087Y-107813778D01*
X152469087Y-107813778D02*
X152191103Y-107387467D01*
X152191103Y-107387467D02*
X152053523Y-107247619D01*
X152053523Y-107247619D02*
X151895458Y-107086803D01*
X151895458Y-107086803D02*
X151826715Y-106982677D01*
X151826715Y-106982677D02*
X151841455Y-106960667D01*
X151841455Y-106960667D02*
X151936502Y-106908437D01*
X151936502Y-106908437D02*
X151942667Y-106881188D01*
X151942667Y-106881188D02*
X151867241Y-106822778D01*
X151867241Y-106822778D02*
X151676108Y-106765616D01*
X151676108Y-106765616D02*
X151557472Y-106743945D01*
X151557472Y-106743945D02*
X151300527Y-106686389D01*
X151300527Y-106686389D02*
X151107695Y-106609590D01*
X151107695Y-106609590D02*
X151064762Y-106578666D01*
X151064762Y-106578666D02*
X151010874Y-106464664D01*
X151010874Y-106464664D02*
X150927346Y-106214251D01*
X150927346Y-106214251D02*
X150822586Y-105856021D01*
X150822586Y-105856021D02*
X150704999Y-105418567D01*
X150704999Y-105418567D02*
X150596167Y-104984923D01*
X150596167Y-104984923D02*
X150476320Y-104508014D01*
X150476320Y-104508014D02*
X150364076Y-104091524D01*
X150364076Y-104091524D02*
X150267239Y-103762109D01*
X150267239Y-103762109D02*
X150193612Y-103546426D01*
X150193612Y-103546426D02*
X150153030Y-103471343D01*
X150153030Y-103471343D02*
X150098856Y-103382456D01*
X150098856Y-103382456D02*
X150019729Y-103165518D01*
X150019729Y-103165518D02*
X149928213Y-102857606D01*
X149928213Y-102857606D02*
X149871725Y-102641162D01*
X149871725Y-102641162D02*
X149807513Y-102385361D01*
X149807513Y-102385361D02*
X149707563Y-101990882D01*
X149707563Y-101990882D02*
X149578356Y-101483032D01*
X149578356Y-101483032D02*
X149426370Y-100887119D01*
X149426370Y-100887119D02*
X149258085Y-100228451D01*
X149258085Y-100228451D02*
X149079983Y-99532335D01*
X149079983Y-99532335D02*
X148898542Y-98824079D01*
X148898542Y-98824079D02*
X148720243Y-98128991D01*
X148720243Y-98128991D02*
X148551565Y-97472378D01*
X148551565Y-97472378D02*
X148398988Y-96879549D01*
X148398988Y-96879549D02*
X148268993Y-96375810D01*
X148268993Y-96375810D02*
X148168059Y-95986470D01*
X148168059Y-95986470D02*
X148154101Y-95932882D01*
X148154101Y-95932882D02*
X148084547Y-95614888D01*
X148084547Y-95614888D02*
X148087778Y-95403170D01*
X148087778Y-95403170D02*
X148185800Y-95276466D01*
X148185800Y-95276466D02*
X148400622Y-95213516D01*
X148400622Y-95213516D02*
X148754251Y-95193057D01*
X148754251Y-95193057D02*
X148920999Y-95192000D01*
X148920999Y-95192000D02*
X149256986Y-95190580D01*
X149256986Y-95190580D02*
X149449089Y-95180757D01*
X149449089Y-95180757D02*
X149522757Y-95154191D01*
X149522757Y-95154191D02*
X149503438Y-95102538D01*
X149503438Y-95102538D02*
X149426179Y-95026400D01*
X149426179Y-95026400D02*
X149275964Y-94818931D01*
X149275964Y-94818931D02*
X149191820Y-94603066D01*
X149191820Y-94603066D02*
X149120443Y-94405850D01*
X149120443Y-94405850D02*
X149035503Y-94348511D01*
X149035503Y-94348511D02*
X148957665Y-94444310D01*
X148957665Y-94444310D02*
X148957665Y-94444310D01*
G36*
X148505123Y-108510358D02*
G01*
X148411780Y-108621330D01*
X148277476Y-108781000D01*
X145643905Y-108823333D01*
X143010334Y-108865667D01*
X142966089Y-109458333D01*
X142921845Y-110051000D01*
X142848716Y-109627667D01*
X142797352Y-109334934D01*
X142733646Y-109077602D01*
X142639756Y-108925210D01*
X142480909Y-108850323D01*
X142222338Y-108825508D01*
X141829270Y-108823333D01*
X141025016Y-108823333D01*
X140993931Y-108884834D01*
X140885938Y-109098500D01*
X140711076Y-109394045D01*
X140383320Y-109742147D01*
X139984079Y-109943698D01*
X139498152Y-110008667D01*
X139069383Y-109969073D01*
X138636487Y-109807341D01*
X138293490Y-109514330D01*
X138089441Y-109215759D01*
X137928509Y-108740387D01*
X137927000Y-108473468D01*
X138651595Y-108473468D01*
X138725262Y-108778862D01*
X138884719Y-109049480D01*
X139113301Y-109230183D01*
X139289973Y-109295404D01*
X139437151Y-109319803D01*
X139608722Y-109294753D01*
X139872190Y-109210261D01*
X140059325Y-109061020D01*
X140216334Y-108884834D01*
X140171039Y-108908000D01*
X139945372Y-109023417D01*
X139777560Y-109097441D01*
X139412092Y-109167843D01*
X139108561Y-109096361D01*
X138905228Y-108908000D01*
X139242667Y-108908000D01*
X139245127Y-108928237D01*
X139327334Y-108992667D01*
X139347571Y-108990206D01*
X139412000Y-108908000D01*
X139409540Y-108887762D01*
X139327334Y-108823333D01*
X139307096Y-108825793D01*
X139242667Y-108908000D01*
X138905228Y-108908000D01*
X138886573Y-108890719D01*
X138798616Y-108649003D01*
X138904000Y-108649003D01*
X138912742Y-108695896D01*
X138998316Y-108781710D01*
X139103858Y-108764587D01*
X139126845Y-108738225D01*
X139147768Y-108621330D01*
X139031000Y-108569333D01*
X138972652Y-108578297D01*
X138904000Y-108649003D01*
X138798616Y-108649003D01*
X138765734Y-108558641D01*
X138757550Y-108454398D01*
X138793851Y-108308983D01*
X138920228Y-108308983D01*
X138925627Y-108357040D01*
X139031000Y-108400000D01*
X139100902Y-108386186D01*
X139141773Y-108308983D01*
X139130275Y-108283881D01*
X139031000Y-108217967D01*
X139007637Y-108221509D01*
X138920228Y-108308983D01*
X138793851Y-108308983D01*
X138834145Y-108147575D01*
X138904751Y-108061333D01*
X139242667Y-108061333D01*
X139245127Y-108081571D01*
X139327334Y-108146000D01*
X139347571Y-108143540D01*
X139412000Y-108061333D01*
X139409540Y-108041096D01*
X139327334Y-107976667D01*
X139307096Y-107979127D01*
X139242667Y-108061333D01*
X138904751Y-108061333D01*
X139042387Y-107893217D01*
X139353827Y-107731343D01*
X139415648Y-107712493D01*
X139517057Y-107665751D01*
X139452006Y-107645636D01*
X139449113Y-107645524D01*
X139225820Y-107699735D01*
X138971272Y-107847291D01*
X138755834Y-108047569D01*
X138680387Y-108188439D01*
X138651595Y-108473468D01*
X137927000Y-108473468D01*
X137925493Y-108206914D01*
X137944145Y-108057764D01*
X137954059Y-107888733D01*
X137925134Y-107841894D01*
X137850489Y-107887998D01*
X137796002Y-107929190D01*
X137732877Y-107927591D01*
X137718667Y-107782291D01*
X137732174Y-107590891D01*
X137803824Y-107377005D01*
X137926270Y-107299333D01*
X138040570Y-107250849D01*
X138192378Y-107118042D01*
X138320902Y-107002196D01*
X138624293Y-106817716D01*
X138966818Y-106679415D01*
X139268831Y-106623859D01*
X139422616Y-106599112D01*
X139454334Y-106537333D01*
X139446369Y-106493712D01*
X139534004Y-106452667D01*
X139597085Y-106463029D01*
X139666000Y-106537333D01*
X139707801Y-106590198D01*
X139856500Y-106622434D01*
X140031772Y-106655116D01*
X140340695Y-106808032D01*
X140681315Y-107064946D01*
X141018880Y-107402534D01*
X141038989Y-107425225D01*
X141369348Y-107728800D01*
X141681712Y-107888895D01*
X141709965Y-107895129D01*
X141920968Y-107917774D01*
X142279343Y-107937410D01*
X142767625Y-107953553D01*
X143368349Y-107965720D01*
X144064050Y-107973428D01*
X144837263Y-107976194D01*
X147680191Y-107976667D01*
X149759977Y-105310257D01*
X149709823Y-104886628D01*
X149686084Y-104740119D01*
X149618290Y-104505445D01*
X149538187Y-104374132D01*
X149522270Y-104360299D01*
X149427539Y-104201951D01*
X149357930Y-103971965D01*
X149332697Y-103799737D01*
X149352132Y-103686683D01*
X149441283Y-103658667D01*
X149527071Y-103634189D01*
X149538149Y-103510500D01*
X149522198Y-103452047D01*
X149467110Y-103238445D01*
X149379798Y-102894013D01*
X149265364Y-102439255D01*
X149128912Y-101894677D01*
X148975548Y-101280785D01*
X148810373Y-100618083D01*
X148638492Y-99927079D01*
X148465009Y-99228277D01*
X148295028Y-98542183D01*
X148133651Y-97889303D01*
X147985984Y-97290142D01*
X147857130Y-96765205D01*
X147752192Y-96335000D01*
X147695220Y-96100665D01*
X147591078Y-95674213D01*
X147503060Y-95316231D01*
X147439059Y-95058759D01*
X147406970Y-94933837D01*
X147404288Y-94922263D01*
X147435760Y-94839967D01*
X147581683Y-94770321D01*
X147869171Y-94699582D01*
X148093407Y-94643424D01*
X148335481Y-94556786D01*
X148469367Y-94474703D01*
X148478107Y-94464417D01*
X148589211Y-94397037D01*
X148743616Y-94454958D01*
X148758852Y-94463813D01*
X148892780Y-94514247D01*
X148955118Y-94451167D01*
X148957665Y-94444310D01*
X149035503Y-94348511D01*
X149120443Y-94405850D01*
X149191820Y-94603066D01*
X149275964Y-94818931D01*
X149426179Y-95026400D01*
X149503438Y-95102538D01*
X149522757Y-95154191D01*
X149449089Y-95180757D01*
X149256986Y-95190580D01*
X148920999Y-95192000D01*
X148754251Y-95193057D01*
X148400622Y-95213516D01*
X148185800Y-95276466D01*
X148087778Y-95403170D01*
X148084547Y-95614888D01*
X148154101Y-95932882D01*
X148168059Y-95986470D01*
X148268993Y-96375810D01*
X148398988Y-96879549D01*
X148551565Y-97472378D01*
X148720243Y-98128991D01*
X148898542Y-98824079D01*
X149079983Y-99532335D01*
X149258085Y-100228451D01*
X149426370Y-100887119D01*
X149578356Y-101483032D01*
X149707563Y-101990882D01*
X149807513Y-102385361D01*
X149871725Y-102641162D01*
X149928213Y-102857606D01*
X150019729Y-103165518D01*
X150098856Y-103382456D01*
X150153030Y-103471343D01*
X150193612Y-103546426D01*
X150267239Y-103762109D01*
X150364076Y-104091524D01*
X150476320Y-104508014D01*
X150596167Y-104984923D01*
X150704999Y-105418567D01*
X150822586Y-105856021D01*
X150927346Y-106214251D01*
X151010874Y-106464664D01*
X151064762Y-106578666D01*
X151107695Y-106609590D01*
X151300527Y-106686389D01*
X151557472Y-106743945D01*
X151676108Y-106765616D01*
X151867241Y-106822778D01*
X151942667Y-106881188D01*
X151936502Y-106908437D01*
X151841455Y-106960667D01*
X151826715Y-106982677D01*
X151895458Y-107086803D01*
X152053523Y-107247619D01*
X152191103Y-107387467D01*
X152469087Y-107813778D01*
X152600513Y-108276453D01*
X152588898Y-108746445D01*
X152437762Y-109194708D01*
X152150623Y-109592196D01*
X151731000Y-109909862D01*
X151647182Y-109944266D01*
X151365995Y-109993362D01*
X151018283Y-110000430D01*
X150671920Y-109966373D01*
X150394781Y-109892094D01*
X150026677Y-109655441D01*
X149717901Y-109290163D01*
X149523285Y-108848408D01*
X149480850Y-108700420D01*
X149430415Y-108558974D01*
X149408382Y-108548167D01*
X149380083Y-108654327D01*
X149319928Y-108652290D01*
X149260635Y-108550105D01*
X149234161Y-108378833D01*
X149277229Y-108052070D01*
X149467562Y-107601478D01*
X149791375Y-107184511D01*
X150228504Y-106832526D01*
X150230407Y-106820417D01*
X150202780Y-106699076D01*
X150137238Y-106493157D01*
X150024470Y-106167432D01*
X149804680Y-106415883D01*
X149709930Y-106524837D01*
X149485511Y-106793074D01*
X149246976Y-107088563D01*
X149018798Y-107379809D01*
X148825450Y-107635320D01*
X148691406Y-107823604D01*
X148641139Y-107913167D01*
X148693309Y-107954905D01*
X148852334Y-107976667D01*
X148876720Y-107977112D01*
X149034488Y-108019334D01*
X149039591Y-108061333D01*
X149044596Y-108102538D01*
X148898386Y-108187153D01*
X148863136Y-108201891D01*
X148711901Y-108308983D01*
X148689401Y-108324916D01*
X148505123Y-108510358D01*
G37*
X148505123Y-108510358D02*
X148411780Y-108621330D01*
X148277476Y-108781000D01*
X145643905Y-108823333D01*
X143010334Y-108865667D01*
X142966089Y-109458333D01*
X142921845Y-110051000D01*
X142848716Y-109627667D01*
X142797352Y-109334934D01*
X142733646Y-109077602D01*
X142639756Y-108925210D01*
X142480909Y-108850323D01*
X142222338Y-108825508D01*
X141829270Y-108823333D01*
X141025016Y-108823333D01*
X140993931Y-108884834D01*
X140885938Y-109098500D01*
X140711076Y-109394045D01*
X140383320Y-109742147D01*
X139984079Y-109943698D01*
X139498152Y-110008667D01*
X139069383Y-109969073D01*
X138636487Y-109807341D01*
X138293490Y-109514330D01*
X138089441Y-109215759D01*
X137928509Y-108740387D01*
X137927000Y-108473468D01*
X138651595Y-108473468D01*
X138725262Y-108778862D01*
X138884719Y-109049480D01*
X139113301Y-109230183D01*
X139289973Y-109295404D01*
X139437151Y-109319803D01*
X139608722Y-109294753D01*
X139872190Y-109210261D01*
X140059325Y-109061020D01*
X140216334Y-108884834D01*
X140171039Y-108908000D01*
X139945372Y-109023417D01*
X139777560Y-109097441D01*
X139412092Y-109167843D01*
X139108561Y-109096361D01*
X138905228Y-108908000D01*
X139242667Y-108908000D01*
X139245127Y-108928237D01*
X139327334Y-108992667D01*
X139347571Y-108990206D01*
X139412000Y-108908000D01*
X139409540Y-108887762D01*
X139327334Y-108823333D01*
X139307096Y-108825793D01*
X139242667Y-108908000D01*
X138905228Y-108908000D01*
X138886573Y-108890719D01*
X138798616Y-108649003D01*
X138904000Y-108649003D01*
X138912742Y-108695896D01*
X138998316Y-108781710D01*
X139103858Y-108764587D01*
X139126845Y-108738225D01*
X139147768Y-108621330D01*
X139031000Y-108569333D01*
X138972652Y-108578297D01*
X138904000Y-108649003D01*
X138798616Y-108649003D01*
X138765734Y-108558641D01*
X138757550Y-108454398D01*
X138793851Y-108308983D01*
X138920228Y-108308983D01*
X138925627Y-108357040D01*
X139031000Y-108400000D01*
X139100902Y-108386186D01*
X139141773Y-108308983D01*
X139130275Y-108283881D01*
X139031000Y-108217967D01*
X139007637Y-108221509D01*
X138920228Y-108308983D01*
X138793851Y-108308983D01*
X138834145Y-108147575D01*
X138904751Y-108061333D01*
X139242667Y-108061333D01*
X139245127Y-108081571D01*
X139327334Y-108146000D01*
X139347571Y-108143540D01*
X139412000Y-108061333D01*
X139409540Y-108041096D01*
X139327334Y-107976667D01*
X139307096Y-107979127D01*
X139242667Y-108061333D01*
X138904751Y-108061333D01*
X139042387Y-107893217D01*
X139353827Y-107731343D01*
X139415648Y-107712493D01*
X139517057Y-107665751D01*
X139452006Y-107645636D01*
X139449113Y-107645524D01*
X139225820Y-107699735D01*
X138971272Y-107847291D01*
X138755834Y-108047569D01*
X138680387Y-108188439D01*
X138651595Y-108473468D01*
X137927000Y-108473468D01*
X137925493Y-108206914D01*
X137944145Y-108057764D01*
X137954059Y-107888733D01*
X137925134Y-107841894D01*
X137850489Y-107887998D01*
X137796002Y-107929190D01*
X137732877Y-107927591D01*
X137718667Y-107782291D01*
X137732174Y-107590891D01*
X137803824Y-107377005D01*
X137926270Y-107299333D01*
X138040570Y-107250849D01*
X138192378Y-107118042D01*
X138320902Y-107002196D01*
X138624293Y-106817716D01*
X138966818Y-106679415D01*
X139268831Y-106623859D01*
X139422616Y-106599112D01*
X139454334Y-106537333D01*
X139446369Y-106493712D01*
X139534004Y-106452667D01*
X139597085Y-106463029D01*
X139666000Y-106537333D01*
X139707801Y-106590198D01*
X139856500Y-106622434D01*
X140031772Y-106655116D01*
X140340695Y-106808032D01*
X140681315Y-107064946D01*
X141018880Y-107402534D01*
X141038989Y-107425225D01*
X141369348Y-107728800D01*
X141681712Y-107888895D01*
X141709965Y-107895129D01*
X141920968Y-107917774D01*
X142279343Y-107937410D01*
X142767625Y-107953553D01*
X143368349Y-107965720D01*
X144064050Y-107973428D01*
X144837263Y-107976194D01*
X147680191Y-107976667D01*
X149759977Y-105310257D01*
X149709823Y-104886628D01*
X149686084Y-104740119D01*
X149618290Y-104505445D01*
X149538187Y-104374132D01*
X149522270Y-104360299D01*
X149427539Y-104201951D01*
X149357930Y-103971965D01*
X149332697Y-103799737D01*
X149352132Y-103686683D01*
X149441283Y-103658667D01*
X149527071Y-103634189D01*
X149538149Y-103510500D01*
X149522198Y-103452047D01*
X149467110Y-103238445D01*
X149379798Y-102894013D01*
X149265364Y-102439255D01*
X149128912Y-101894677D01*
X148975548Y-101280785D01*
X148810373Y-100618083D01*
X148638492Y-99927079D01*
X148465009Y-99228277D01*
X148295028Y-98542183D01*
X148133651Y-97889303D01*
X147985984Y-97290142D01*
X147857130Y-96765205D01*
X147752192Y-96335000D01*
X147695220Y-96100665D01*
X147591078Y-95674213D01*
X147503060Y-95316231D01*
X147439059Y-95058759D01*
X147406970Y-94933837D01*
X147404288Y-94922263D01*
X147435760Y-94839967D01*
X147581683Y-94770321D01*
X147869171Y-94699582D01*
X148093407Y-94643424D01*
X148335481Y-94556786D01*
X148469367Y-94474703D01*
X148478107Y-94464417D01*
X148589211Y-94397037D01*
X148743616Y-94454958D01*
X148758852Y-94463813D01*
X148892780Y-94514247D01*
X148955118Y-94451167D01*
X148957665Y-94444310D01*
X149035503Y-94348511D01*
X149120443Y-94405850D01*
X149191820Y-94603066D01*
X149275964Y-94818931D01*
X149426179Y-95026400D01*
X149503438Y-95102538D01*
X149522757Y-95154191D01*
X149449089Y-95180757D01*
X149256986Y-95190580D01*
X148920999Y-95192000D01*
X148754251Y-95193057D01*
X148400622Y-95213516D01*
X148185800Y-95276466D01*
X148087778Y-95403170D01*
X148084547Y-95614888D01*
X148154101Y-95932882D01*
X148168059Y-95986470D01*
X148268993Y-96375810D01*
X148398988Y-96879549D01*
X148551565Y-97472378D01*
X148720243Y-98128991D01*
X148898542Y-98824079D01*
X149079983Y-99532335D01*
X149258085Y-100228451D01*
X149426370Y-100887119D01*
X149578356Y-101483032D01*
X149707563Y-101990882D01*
X149807513Y-102385361D01*
X149871725Y-102641162D01*
X149928213Y-102857606D01*
X150019729Y-103165518D01*
X150098856Y-103382456D01*
X150153030Y-103471343D01*
X150193612Y-103546426D01*
X150267239Y-103762109D01*
X150364076Y-104091524D01*
X150476320Y-104508014D01*
X150596167Y-104984923D01*
X150704999Y-105418567D01*
X150822586Y-105856021D01*
X150927346Y-106214251D01*
X151010874Y-106464664D01*
X151064762Y-106578666D01*
X151107695Y-106609590D01*
X151300527Y-106686389D01*
X151557472Y-106743945D01*
X151676108Y-106765616D01*
X151867241Y-106822778D01*
X151942667Y-106881188D01*
X151936502Y-106908437D01*
X151841455Y-106960667D01*
X151826715Y-106982677D01*
X151895458Y-107086803D01*
X152053523Y-107247619D01*
X152191103Y-107387467D01*
X152469087Y-107813778D01*
X152600513Y-108276453D01*
X152588898Y-108746445D01*
X152437762Y-109194708D01*
X152150623Y-109592196D01*
X151731000Y-109909862D01*
X151647182Y-109944266D01*
X151365995Y-109993362D01*
X151018283Y-110000430D01*
X150671920Y-109966373D01*
X150394781Y-109892094D01*
X150026677Y-109655441D01*
X149717901Y-109290163D01*
X149523285Y-108848408D01*
X149480850Y-108700420D01*
X149430415Y-108558974D01*
X149408382Y-108548167D01*
X149380083Y-108654327D01*
X149319928Y-108652290D01*
X149260635Y-108550105D01*
X149234161Y-108378833D01*
X149277229Y-108052070D01*
X149467562Y-107601478D01*
X149791375Y-107184511D01*
X150228504Y-106832526D01*
X150230407Y-106820417D01*
X150202780Y-106699076D01*
X150137238Y-106493157D01*
X150024470Y-106167432D01*
X149804680Y-106415883D01*
X149709930Y-106524837D01*
X149485511Y-106793074D01*
X149246976Y-107088563D01*
X149018798Y-107379809D01*
X148825450Y-107635320D01*
X148691406Y-107823604D01*
X148641139Y-107913167D01*
X148693309Y-107954905D01*
X148852334Y-107976667D01*
X148876720Y-107977112D01*
X149034488Y-108019334D01*
X149039591Y-108061333D01*
X149044596Y-108102538D01*
X148898386Y-108187153D01*
X148863136Y-108201891D01*
X148711901Y-108308983D01*
X148689401Y-108324916D01*
X148505123Y-108510358D01*
%TO.C,G\u002A\u002A\u002A1*%
X148957665Y-61144310D02*
X148955118Y-61151167D01*
X148955118Y-61151167D02*
X148892780Y-61214247D01*
X148892780Y-61214247D02*
X148758852Y-61163813D01*
X148758852Y-61163813D02*
X148743616Y-61154958D01*
X148743616Y-61154958D02*
X148589211Y-61097037D01*
X148589211Y-61097037D02*
X148478107Y-61164417D01*
X148478107Y-61164417D02*
X148469367Y-61174703D01*
X148469367Y-61174703D02*
X148335481Y-61256786D01*
X148335481Y-61256786D02*
X148093407Y-61343424D01*
X148093407Y-61343424D02*
X147869171Y-61399582D01*
X147869171Y-61399582D02*
X147581683Y-61470321D01*
X147581683Y-61470321D02*
X147435760Y-61539967D01*
X147435760Y-61539967D02*
X147404288Y-61622263D01*
X147404288Y-61622263D02*
X147406970Y-61633837D01*
X147406970Y-61633837D02*
X147439059Y-61758759D01*
X147439059Y-61758759D02*
X147503060Y-62016231D01*
X147503060Y-62016231D02*
X147591078Y-62374213D01*
X147591078Y-62374213D02*
X147695220Y-62800665D01*
X147695220Y-62800665D02*
X147752192Y-63035000D01*
X147752192Y-63035000D02*
X147857130Y-63465205D01*
X147857130Y-63465205D02*
X147985984Y-63990142D01*
X147985984Y-63990142D02*
X148133651Y-64589303D01*
X148133651Y-64589303D02*
X148295028Y-65242183D01*
X148295028Y-65242183D02*
X148465009Y-65928277D01*
X148465009Y-65928277D02*
X148638492Y-66627079D01*
X148638492Y-66627079D02*
X148810373Y-67318083D01*
X148810373Y-67318083D02*
X148975548Y-67980785D01*
X148975548Y-67980785D02*
X149128912Y-68594677D01*
X149128912Y-68594677D02*
X149265364Y-69139255D01*
X149265364Y-69139255D02*
X149379798Y-69594013D01*
X149379798Y-69594013D02*
X149467110Y-69938445D01*
X149467110Y-69938445D02*
X149522198Y-70152047D01*
X149522198Y-70152047D02*
X149538149Y-70210500D01*
X149538149Y-70210500D02*
X149527071Y-70334189D01*
X149527071Y-70334189D02*
X149441283Y-70358667D01*
X149441283Y-70358667D02*
X149352132Y-70386683D01*
X149352132Y-70386683D02*
X149332697Y-70499737D01*
X149332697Y-70499737D02*
X149357930Y-70671965D01*
X149357930Y-70671965D02*
X149427539Y-70901951D01*
X149427539Y-70901951D02*
X149522270Y-71060299D01*
X149522270Y-71060299D02*
X149538187Y-71074132D01*
X149538187Y-71074132D02*
X149618290Y-71205445D01*
X149618290Y-71205445D02*
X149686084Y-71440119D01*
X149686084Y-71440119D02*
X149709823Y-71586628D01*
X149709823Y-71586628D02*
X149759977Y-72010257D01*
X149759977Y-72010257D02*
X147680191Y-74676667D01*
X147680191Y-74676667D02*
X144837263Y-74676194D01*
X144837263Y-74676194D02*
X144064050Y-74673428D01*
X144064050Y-74673428D02*
X143368349Y-74665720D01*
X143368349Y-74665720D02*
X142767625Y-74653553D01*
X142767625Y-74653553D02*
X142279343Y-74637410D01*
X142279343Y-74637410D02*
X141920968Y-74617774D01*
X141920968Y-74617774D02*
X141709965Y-74595129D01*
X141709965Y-74595129D02*
X141681712Y-74588895D01*
X141681712Y-74588895D02*
X141369348Y-74428800D01*
X141369348Y-74428800D02*
X141038989Y-74125225D01*
X141038989Y-74125225D02*
X141018880Y-74102534D01*
X141018880Y-74102534D02*
X140681315Y-73764946D01*
X140681315Y-73764946D02*
X140340695Y-73508032D01*
X140340695Y-73508032D02*
X140031772Y-73355116D01*
X140031772Y-73355116D02*
X139856500Y-73322434D01*
X139856500Y-73322434D02*
X139707801Y-73290198D01*
X139707801Y-73290198D02*
X139666000Y-73237333D01*
X139666000Y-73237333D02*
X139597085Y-73163029D01*
X139597085Y-73163029D02*
X139534004Y-73152667D01*
X139534004Y-73152667D02*
X139446369Y-73193712D01*
X139446369Y-73193712D02*
X139454334Y-73237333D01*
X139454334Y-73237333D02*
X139422616Y-73299112D01*
X139422616Y-73299112D02*
X139268831Y-73323859D01*
X139268831Y-73323859D02*
X138966818Y-73379415D01*
X138966818Y-73379415D02*
X138624293Y-73517716D01*
X138624293Y-73517716D02*
X138320902Y-73702196D01*
X138320902Y-73702196D02*
X138192378Y-73818042D01*
X138192378Y-73818042D02*
X138040570Y-73950849D01*
X138040570Y-73950849D02*
X137926270Y-73999333D01*
X137926270Y-73999333D02*
X137803824Y-74077005D01*
X137803824Y-74077005D02*
X137732174Y-74290891D01*
X137732174Y-74290891D02*
X137718667Y-74482291D01*
X137718667Y-74482291D02*
X137732877Y-74627591D01*
X137732877Y-74627591D02*
X137796002Y-74629190D01*
X137796002Y-74629190D02*
X137850489Y-74587998D01*
X137850489Y-74587998D02*
X137925134Y-74541894D01*
X137925134Y-74541894D02*
X137954059Y-74588733D01*
X137954059Y-74588733D02*
X137944145Y-74757764D01*
X137944145Y-74757764D02*
X137925493Y-74906914D01*
X137925493Y-74906914D02*
X137928509Y-75440387D01*
X137928509Y-75440387D02*
X138089441Y-75915759D01*
X138089441Y-75915759D02*
X138293490Y-76214330D01*
X138293490Y-76214330D02*
X138636487Y-76507341D01*
X138636487Y-76507341D02*
X139069383Y-76669073D01*
X139069383Y-76669073D02*
X139498152Y-76708667D01*
X139498152Y-76708667D02*
X139984079Y-76643698D01*
X139984079Y-76643698D02*
X140383320Y-76442147D01*
X140383320Y-76442147D02*
X140711076Y-76094045D01*
X140711076Y-76094045D02*
X140885938Y-75798500D01*
X140885938Y-75798500D02*
X140993931Y-75584834D01*
X140993931Y-75584834D02*
X140216334Y-75584834D01*
X140216334Y-75584834D02*
X140059325Y-75761020D01*
X140059325Y-75761020D02*
X139872190Y-75910261D01*
X139872190Y-75910261D02*
X139608722Y-75994753D01*
X139608722Y-75994753D02*
X139437151Y-76019803D01*
X139437151Y-76019803D02*
X139289973Y-75995404D01*
X139289973Y-75995404D02*
X139113301Y-75930183D01*
X139113301Y-75930183D02*
X138884719Y-75749480D01*
X138884719Y-75749480D02*
X138725262Y-75478862D01*
X138725262Y-75478862D02*
X138651595Y-75173468D01*
X138651595Y-75173468D02*
X138680387Y-74888439D01*
X138680387Y-74888439D02*
X138755834Y-74747569D01*
X138755834Y-74747569D02*
X138971272Y-74547291D01*
X138971272Y-74547291D02*
X139225820Y-74399735D01*
X139225820Y-74399735D02*
X139449113Y-74345524D01*
X139449113Y-74345524D02*
X139452006Y-74345636D01*
X139452006Y-74345636D02*
X139517057Y-74365751D01*
X139517057Y-74365751D02*
X139415648Y-74412493D01*
X139415648Y-74412493D02*
X139353827Y-74431343D01*
X139353827Y-74431343D02*
X139042387Y-74593217D01*
X139042387Y-74593217D02*
X138834145Y-74847575D01*
X138834145Y-74847575D02*
X138757550Y-75154398D01*
X138757550Y-75154398D02*
X138765734Y-75258641D01*
X138765734Y-75258641D02*
X138886573Y-75590719D01*
X138886573Y-75590719D02*
X139108561Y-75796361D01*
X139108561Y-75796361D02*
X139412092Y-75867843D01*
X139412092Y-75867843D02*
X139777560Y-75797441D01*
X139777560Y-75797441D02*
X139945372Y-75723417D01*
X139945372Y-75723417D02*
X140171039Y-75608000D01*
X140171039Y-75608000D02*
X139412000Y-75608000D01*
X139412000Y-75608000D02*
X139347571Y-75690206D01*
X139347571Y-75690206D02*
X139327334Y-75692667D01*
X139327334Y-75692667D02*
X139245127Y-75628237D01*
X139245127Y-75628237D02*
X139242667Y-75608000D01*
X139242667Y-75608000D02*
X139307096Y-75525793D01*
X139307096Y-75525793D02*
X139327334Y-75523333D01*
X139327334Y-75523333D02*
X139409540Y-75587762D01*
X139409540Y-75587762D02*
X139412000Y-75608000D01*
X139412000Y-75608000D02*
X140171039Y-75608000D01*
X140171039Y-75608000D02*
X140216334Y-75584834D01*
X140216334Y-75584834D02*
X140993931Y-75584834D01*
X140993931Y-75584834D02*
X141025016Y-75523333D01*
X141025016Y-75523333D02*
X141829270Y-75523333D01*
X141829270Y-75523333D02*
X142222338Y-75525508D01*
X142222338Y-75525508D02*
X142480909Y-75550323D01*
X142480909Y-75550323D02*
X142639756Y-75625210D01*
X142639756Y-75625210D02*
X142733646Y-75777602D01*
X142733646Y-75777602D02*
X142797352Y-76034934D01*
X142797352Y-76034934D02*
X142848716Y-76327667D01*
X142848716Y-76327667D02*
X142921845Y-76751000D01*
X142921845Y-76751000D02*
X142966089Y-76158333D01*
X142966089Y-76158333D02*
X143010334Y-75565667D01*
X143010334Y-75565667D02*
X145643905Y-75523333D01*
X145643905Y-75523333D02*
X148277476Y-75481000D01*
X148277476Y-75481000D02*
X148411780Y-75321330D01*
X148411780Y-75321330D02*
X139147768Y-75321330D01*
X139147768Y-75321330D02*
X139126845Y-75438225D01*
X139126845Y-75438225D02*
X139103858Y-75464587D01*
X139103858Y-75464587D02*
X138998316Y-75481710D01*
X138998316Y-75481710D02*
X138912742Y-75395896D01*
X138912742Y-75395896D02*
X138904000Y-75349003D01*
X138904000Y-75349003D02*
X138972652Y-75278297D01*
X138972652Y-75278297D02*
X139031000Y-75269333D01*
X139031000Y-75269333D02*
X139147768Y-75321330D01*
X139147768Y-75321330D02*
X148411780Y-75321330D01*
X148411780Y-75321330D02*
X148505123Y-75210358D01*
X148505123Y-75210358D02*
X148689401Y-75024916D01*
X148689401Y-75024916D02*
X148711901Y-75008983D01*
X148711901Y-75008983D02*
X139141773Y-75008983D01*
X139141773Y-75008983D02*
X139100902Y-75086186D01*
X139100902Y-75086186D02*
X139031000Y-75100000D01*
X139031000Y-75100000D02*
X138925627Y-75057040D01*
X138925627Y-75057040D02*
X138920228Y-75008983D01*
X138920228Y-75008983D02*
X139007637Y-74921509D01*
X139007637Y-74921509D02*
X139031000Y-74917967D01*
X139031000Y-74917967D02*
X139130275Y-74983881D01*
X139130275Y-74983881D02*
X139141773Y-75008983D01*
X139141773Y-75008983D02*
X148711901Y-75008983D01*
X148711901Y-75008983D02*
X148863136Y-74901891D01*
X148863136Y-74901891D02*
X148898386Y-74887153D01*
X148898386Y-74887153D02*
X149044596Y-74802538D01*
X149044596Y-74802538D02*
X149039591Y-74761333D01*
X149039591Y-74761333D02*
X139412000Y-74761333D01*
X139412000Y-74761333D02*
X139347571Y-74843540D01*
X139347571Y-74843540D02*
X139327334Y-74846000D01*
X139327334Y-74846000D02*
X139245127Y-74781571D01*
X139245127Y-74781571D02*
X139242667Y-74761333D01*
X139242667Y-74761333D02*
X139307096Y-74679127D01*
X139307096Y-74679127D02*
X139327334Y-74676667D01*
X139327334Y-74676667D02*
X139409540Y-74741096D01*
X139409540Y-74741096D02*
X139412000Y-74761333D01*
X139412000Y-74761333D02*
X149039591Y-74761333D01*
X149039591Y-74761333D02*
X149034488Y-74719334D01*
X149034488Y-74719334D02*
X148876720Y-74677112D01*
X148876720Y-74677112D02*
X148852334Y-74676667D01*
X148852334Y-74676667D02*
X148693309Y-74654905D01*
X148693309Y-74654905D02*
X148641139Y-74613167D01*
X148641139Y-74613167D02*
X148691406Y-74523604D01*
X148691406Y-74523604D02*
X148825450Y-74335320D01*
X148825450Y-74335320D02*
X149018798Y-74079809D01*
X149018798Y-74079809D02*
X149246976Y-73788563D01*
X149246976Y-73788563D02*
X149485511Y-73493074D01*
X149485511Y-73493074D02*
X149709930Y-73224837D01*
X149709930Y-73224837D02*
X149804680Y-73115883D01*
X149804680Y-73115883D02*
X150024470Y-72867432D01*
X150024470Y-72867432D02*
X150137238Y-73193157D01*
X150137238Y-73193157D02*
X150202780Y-73399076D01*
X150202780Y-73399076D02*
X150230407Y-73520417D01*
X150230407Y-73520417D02*
X150228504Y-73532526D01*
X150228504Y-73532526D02*
X149791375Y-73884511D01*
X149791375Y-73884511D02*
X149467562Y-74301478D01*
X149467562Y-74301478D02*
X149277229Y-74752070D01*
X149277229Y-74752070D02*
X149234161Y-75078833D01*
X149234161Y-75078833D02*
X149260635Y-75250105D01*
X149260635Y-75250105D02*
X149319928Y-75352290D01*
X149319928Y-75352290D02*
X149380083Y-75354327D01*
X149380083Y-75354327D02*
X149408382Y-75248167D01*
X149408382Y-75248167D02*
X149430415Y-75258974D01*
X149430415Y-75258974D02*
X149480850Y-75400420D01*
X149480850Y-75400420D02*
X149523285Y-75548408D01*
X149523285Y-75548408D02*
X149717901Y-75990163D01*
X149717901Y-75990163D02*
X150026677Y-76355441D01*
X150026677Y-76355441D02*
X150394781Y-76592094D01*
X150394781Y-76592094D02*
X150671920Y-76666373D01*
X150671920Y-76666373D02*
X151018283Y-76700430D01*
X151018283Y-76700430D02*
X151365995Y-76693362D01*
X151365995Y-76693362D02*
X151647182Y-76644266D01*
X151647182Y-76644266D02*
X151731000Y-76609862D01*
X151731000Y-76609862D02*
X152150623Y-76292196D01*
X152150623Y-76292196D02*
X152437762Y-75894708D01*
X152437762Y-75894708D02*
X152588898Y-75446445D01*
X152588898Y-75446445D02*
X152600513Y-74976453D01*
X152600513Y-74976453D02*
X152469087Y-74513778D01*
X152469087Y-74513778D02*
X152191103Y-74087467D01*
X152191103Y-74087467D02*
X152053523Y-73947619D01*
X152053523Y-73947619D02*
X151895458Y-73786803D01*
X151895458Y-73786803D02*
X151826715Y-73682677D01*
X151826715Y-73682677D02*
X151841455Y-73660667D01*
X151841455Y-73660667D02*
X151936502Y-73608437D01*
X151936502Y-73608437D02*
X151942667Y-73581188D01*
X151942667Y-73581188D02*
X151867241Y-73522778D01*
X151867241Y-73522778D02*
X151676108Y-73465616D01*
X151676108Y-73465616D02*
X151557472Y-73443945D01*
X151557472Y-73443945D02*
X151300527Y-73386389D01*
X151300527Y-73386389D02*
X151107695Y-73309590D01*
X151107695Y-73309590D02*
X151064762Y-73278666D01*
X151064762Y-73278666D02*
X151010874Y-73164664D01*
X151010874Y-73164664D02*
X150927346Y-72914251D01*
X150927346Y-72914251D02*
X150822586Y-72556021D01*
X150822586Y-72556021D02*
X150704999Y-72118567D01*
X150704999Y-72118567D02*
X150596167Y-71684923D01*
X150596167Y-71684923D02*
X150476320Y-71208014D01*
X150476320Y-71208014D02*
X150364076Y-70791524D01*
X150364076Y-70791524D02*
X150267239Y-70462109D01*
X150267239Y-70462109D02*
X150193612Y-70246426D01*
X150193612Y-70246426D02*
X150153030Y-70171343D01*
X150153030Y-70171343D02*
X150098856Y-70082456D01*
X150098856Y-70082456D02*
X150019729Y-69865518D01*
X150019729Y-69865518D02*
X149928213Y-69557606D01*
X149928213Y-69557606D02*
X149871725Y-69341162D01*
X149871725Y-69341162D02*
X149807513Y-69085361D01*
X149807513Y-69085361D02*
X149707563Y-68690882D01*
X149707563Y-68690882D02*
X149578356Y-68183032D01*
X149578356Y-68183032D02*
X149426370Y-67587119D01*
X149426370Y-67587119D02*
X149258085Y-66928451D01*
X149258085Y-66928451D02*
X149079983Y-66232335D01*
X149079983Y-66232335D02*
X148898542Y-65524079D01*
X148898542Y-65524079D02*
X148720243Y-64828991D01*
X148720243Y-64828991D02*
X148551565Y-64172378D01*
X148551565Y-64172378D02*
X148398988Y-63579549D01*
X148398988Y-63579549D02*
X148268993Y-63075810D01*
X148268993Y-63075810D02*
X148168059Y-62686470D01*
X148168059Y-62686470D02*
X148154101Y-62632882D01*
X148154101Y-62632882D02*
X148084547Y-62314888D01*
X148084547Y-62314888D02*
X148087778Y-62103170D01*
X148087778Y-62103170D02*
X148185800Y-61976466D01*
X148185800Y-61976466D02*
X148400622Y-61913516D01*
X148400622Y-61913516D02*
X148754251Y-61893057D01*
X148754251Y-61893057D02*
X148920999Y-61892000D01*
X148920999Y-61892000D02*
X149256986Y-61890580D01*
X149256986Y-61890580D02*
X149449089Y-61880757D01*
X149449089Y-61880757D02*
X149522757Y-61854191D01*
X149522757Y-61854191D02*
X149503438Y-61802538D01*
X149503438Y-61802538D02*
X149426179Y-61726400D01*
X149426179Y-61726400D02*
X149275964Y-61518931D01*
X149275964Y-61518931D02*
X149191820Y-61303066D01*
X149191820Y-61303066D02*
X149120443Y-61105850D01*
X149120443Y-61105850D02*
X149035503Y-61048511D01*
X149035503Y-61048511D02*
X148957665Y-61144310D01*
X148957665Y-61144310D02*
X148957665Y-61144310D01*
G36*
X148505123Y-75210358D02*
G01*
X148411780Y-75321330D01*
X148277476Y-75481000D01*
X145643905Y-75523333D01*
X143010334Y-75565667D01*
X142966089Y-76158333D01*
X142921845Y-76751000D01*
X142848716Y-76327667D01*
X142797352Y-76034934D01*
X142733646Y-75777602D01*
X142639756Y-75625210D01*
X142480909Y-75550323D01*
X142222338Y-75525508D01*
X141829270Y-75523333D01*
X141025016Y-75523333D01*
X140993931Y-75584834D01*
X140885938Y-75798500D01*
X140711076Y-76094045D01*
X140383320Y-76442147D01*
X139984079Y-76643698D01*
X139498152Y-76708667D01*
X139069383Y-76669073D01*
X138636487Y-76507341D01*
X138293490Y-76214330D01*
X138089441Y-75915759D01*
X137928509Y-75440387D01*
X137927000Y-75173468D01*
X138651595Y-75173468D01*
X138725262Y-75478862D01*
X138884719Y-75749480D01*
X139113301Y-75930183D01*
X139289973Y-75995404D01*
X139437151Y-76019803D01*
X139608722Y-75994753D01*
X139872190Y-75910261D01*
X140059325Y-75761020D01*
X140216334Y-75584834D01*
X140171039Y-75608000D01*
X139945372Y-75723417D01*
X139777560Y-75797441D01*
X139412092Y-75867843D01*
X139108561Y-75796361D01*
X138905228Y-75608000D01*
X139242667Y-75608000D01*
X139245127Y-75628237D01*
X139327334Y-75692667D01*
X139347571Y-75690206D01*
X139412000Y-75608000D01*
X139409540Y-75587762D01*
X139327334Y-75523333D01*
X139307096Y-75525793D01*
X139242667Y-75608000D01*
X138905228Y-75608000D01*
X138886573Y-75590719D01*
X138798616Y-75349003D01*
X138904000Y-75349003D01*
X138912742Y-75395896D01*
X138998316Y-75481710D01*
X139103858Y-75464587D01*
X139126845Y-75438225D01*
X139147768Y-75321330D01*
X139031000Y-75269333D01*
X138972652Y-75278297D01*
X138904000Y-75349003D01*
X138798616Y-75349003D01*
X138765734Y-75258641D01*
X138757550Y-75154398D01*
X138793851Y-75008983D01*
X138920228Y-75008983D01*
X138925627Y-75057040D01*
X139031000Y-75100000D01*
X139100902Y-75086186D01*
X139141773Y-75008983D01*
X139130275Y-74983881D01*
X139031000Y-74917967D01*
X139007637Y-74921509D01*
X138920228Y-75008983D01*
X138793851Y-75008983D01*
X138834145Y-74847575D01*
X138904751Y-74761333D01*
X139242667Y-74761333D01*
X139245127Y-74781571D01*
X139327334Y-74846000D01*
X139347571Y-74843540D01*
X139412000Y-74761333D01*
X139409540Y-74741096D01*
X139327334Y-74676667D01*
X139307096Y-74679127D01*
X139242667Y-74761333D01*
X138904751Y-74761333D01*
X139042387Y-74593217D01*
X139353827Y-74431343D01*
X139415648Y-74412493D01*
X139517057Y-74365751D01*
X139452006Y-74345636D01*
X139449113Y-74345524D01*
X139225820Y-74399735D01*
X138971272Y-74547291D01*
X138755834Y-74747569D01*
X138680387Y-74888439D01*
X138651595Y-75173468D01*
X137927000Y-75173468D01*
X137925493Y-74906914D01*
X137944145Y-74757764D01*
X137954059Y-74588733D01*
X137925134Y-74541894D01*
X137850489Y-74587998D01*
X137796002Y-74629190D01*
X137732877Y-74627591D01*
X137718667Y-74482291D01*
X137732174Y-74290891D01*
X137803824Y-74077005D01*
X137926270Y-73999333D01*
X138040570Y-73950849D01*
X138192378Y-73818042D01*
X138320902Y-73702196D01*
X138624293Y-73517716D01*
X138966818Y-73379415D01*
X139268831Y-73323859D01*
X139422616Y-73299112D01*
X139454334Y-73237333D01*
X139446369Y-73193712D01*
X139534004Y-73152667D01*
X139597085Y-73163029D01*
X139666000Y-73237333D01*
X139707801Y-73290198D01*
X139856500Y-73322434D01*
X140031772Y-73355116D01*
X140340695Y-73508032D01*
X140681315Y-73764946D01*
X141018880Y-74102534D01*
X141038989Y-74125225D01*
X141369348Y-74428800D01*
X141681712Y-74588895D01*
X141709965Y-74595129D01*
X141920968Y-74617774D01*
X142279343Y-74637410D01*
X142767625Y-74653553D01*
X143368349Y-74665720D01*
X144064050Y-74673428D01*
X144837263Y-74676194D01*
X147680191Y-74676667D01*
X149759977Y-72010257D01*
X149709823Y-71586628D01*
X149686084Y-71440119D01*
X149618290Y-71205445D01*
X149538187Y-71074132D01*
X149522270Y-71060299D01*
X149427539Y-70901951D01*
X149357930Y-70671965D01*
X149332697Y-70499737D01*
X149352132Y-70386683D01*
X149441283Y-70358667D01*
X149527071Y-70334189D01*
X149538149Y-70210500D01*
X149522198Y-70152047D01*
X149467110Y-69938445D01*
X149379798Y-69594013D01*
X149265364Y-69139255D01*
X149128912Y-68594677D01*
X148975548Y-67980785D01*
X148810373Y-67318083D01*
X148638492Y-66627079D01*
X148465009Y-65928277D01*
X148295028Y-65242183D01*
X148133651Y-64589303D01*
X147985984Y-63990142D01*
X147857130Y-63465205D01*
X147752192Y-63035000D01*
X147695220Y-62800665D01*
X147591078Y-62374213D01*
X147503060Y-62016231D01*
X147439059Y-61758759D01*
X147406970Y-61633837D01*
X147404288Y-61622263D01*
X147435760Y-61539967D01*
X147581683Y-61470321D01*
X147869171Y-61399582D01*
X148093407Y-61343424D01*
X148335481Y-61256786D01*
X148469367Y-61174703D01*
X148478107Y-61164417D01*
X148589211Y-61097037D01*
X148743616Y-61154958D01*
X148758852Y-61163813D01*
X148892780Y-61214247D01*
X148955118Y-61151167D01*
X148957665Y-61144310D01*
X149035503Y-61048511D01*
X149120443Y-61105850D01*
X149191820Y-61303066D01*
X149275964Y-61518931D01*
X149426179Y-61726400D01*
X149503438Y-61802538D01*
X149522757Y-61854191D01*
X149449089Y-61880757D01*
X149256986Y-61890580D01*
X148920999Y-61892000D01*
X148754251Y-61893057D01*
X148400622Y-61913516D01*
X148185800Y-61976466D01*
X148087778Y-62103170D01*
X148084547Y-62314888D01*
X148154101Y-62632882D01*
X148168059Y-62686470D01*
X148268993Y-63075810D01*
X148398988Y-63579549D01*
X148551565Y-64172378D01*
X148720243Y-64828991D01*
X148898542Y-65524079D01*
X149079983Y-66232335D01*
X149258085Y-66928451D01*
X149426370Y-67587119D01*
X149578356Y-68183032D01*
X149707563Y-68690882D01*
X149807513Y-69085361D01*
X149871725Y-69341162D01*
X149928213Y-69557606D01*
X150019729Y-69865518D01*
X150098856Y-70082456D01*
X150153030Y-70171343D01*
X150193612Y-70246426D01*
X150267239Y-70462109D01*
X150364076Y-70791524D01*
X150476320Y-71208014D01*
X150596167Y-71684923D01*
X150704999Y-72118567D01*
X150822586Y-72556021D01*
X150927346Y-72914251D01*
X151010874Y-73164664D01*
X151064762Y-73278666D01*
X151107695Y-73309590D01*
X151300527Y-73386389D01*
X151557472Y-73443945D01*
X151676108Y-73465616D01*
X151867241Y-73522778D01*
X151942667Y-73581188D01*
X151936502Y-73608437D01*
X151841455Y-73660667D01*
X151826715Y-73682677D01*
X151895458Y-73786803D01*
X152053523Y-73947619D01*
X152191103Y-74087467D01*
X152469087Y-74513778D01*
X152600513Y-74976453D01*
X152588898Y-75446445D01*
X152437762Y-75894708D01*
X152150623Y-76292196D01*
X151731000Y-76609862D01*
X151647182Y-76644266D01*
X151365995Y-76693362D01*
X151018283Y-76700430D01*
X150671920Y-76666373D01*
X150394781Y-76592094D01*
X150026677Y-76355441D01*
X149717901Y-75990163D01*
X149523285Y-75548408D01*
X149480850Y-75400420D01*
X149430415Y-75258974D01*
X149408382Y-75248167D01*
X149380083Y-75354327D01*
X149319928Y-75352290D01*
X149260635Y-75250105D01*
X149234161Y-75078833D01*
X149277229Y-74752070D01*
X149467562Y-74301478D01*
X149791375Y-73884511D01*
X150228504Y-73532526D01*
X150230407Y-73520417D01*
X150202780Y-73399076D01*
X150137238Y-73193157D01*
X150024470Y-72867432D01*
X149804680Y-73115883D01*
X149709930Y-73224837D01*
X149485511Y-73493074D01*
X149246976Y-73788563D01*
X149018798Y-74079809D01*
X148825450Y-74335320D01*
X148691406Y-74523604D01*
X148641139Y-74613167D01*
X148693309Y-74654905D01*
X148852334Y-74676667D01*
X148876720Y-74677112D01*
X149034488Y-74719334D01*
X149039591Y-74761333D01*
X149044596Y-74802538D01*
X148898386Y-74887153D01*
X148863136Y-74901891D01*
X148711901Y-75008983D01*
X148689401Y-75024916D01*
X148505123Y-75210358D01*
G37*
X148505123Y-75210358D02*
X148411780Y-75321330D01*
X148277476Y-75481000D01*
X145643905Y-75523333D01*
X143010334Y-75565667D01*
X142966089Y-76158333D01*
X142921845Y-76751000D01*
X142848716Y-76327667D01*
X142797352Y-76034934D01*
X142733646Y-75777602D01*
X142639756Y-75625210D01*
X142480909Y-75550323D01*
X142222338Y-75525508D01*
X141829270Y-75523333D01*
X141025016Y-75523333D01*
X140993931Y-75584834D01*
X140885938Y-75798500D01*
X140711076Y-76094045D01*
X140383320Y-76442147D01*
X139984079Y-76643698D01*
X139498152Y-76708667D01*
X139069383Y-76669073D01*
X138636487Y-76507341D01*
X138293490Y-76214330D01*
X138089441Y-75915759D01*
X137928509Y-75440387D01*
X137927000Y-75173468D01*
X138651595Y-75173468D01*
X138725262Y-75478862D01*
X138884719Y-75749480D01*
X139113301Y-75930183D01*
X139289973Y-75995404D01*
X139437151Y-76019803D01*
X139608722Y-75994753D01*
X139872190Y-75910261D01*
X140059325Y-75761020D01*
X140216334Y-75584834D01*
X140171039Y-75608000D01*
X139945372Y-75723417D01*
X139777560Y-75797441D01*
X139412092Y-75867843D01*
X139108561Y-75796361D01*
X138905228Y-75608000D01*
X139242667Y-75608000D01*
X139245127Y-75628237D01*
X139327334Y-75692667D01*
X139347571Y-75690206D01*
X139412000Y-75608000D01*
X139409540Y-75587762D01*
X139327334Y-75523333D01*
X139307096Y-75525793D01*
X139242667Y-75608000D01*
X138905228Y-75608000D01*
X138886573Y-75590719D01*
X138798616Y-75349003D01*
X138904000Y-75349003D01*
X138912742Y-75395896D01*
X138998316Y-75481710D01*
X139103858Y-75464587D01*
X139126845Y-75438225D01*
X139147768Y-75321330D01*
X139031000Y-75269333D01*
X138972652Y-75278297D01*
X138904000Y-75349003D01*
X138798616Y-75349003D01*
X138765734Y-75258641D01*
X138757550Y-75154398D01*
X138793851Y-75008983D01*
X138920228Y-75008983D01*
X138925627Y-75057040D01*
X139031000Y-75100000D01*
X139100902Y-75086186D01*
X139141773Y-75008983D01*
X139130275Y-74983881D01*
X139031000Y-74917967D01*
X139007637Y-74921509D01*
X138920228Y-75008983D01*
X138793851Y-75008983D01*
X138834145Y-74847575D01*
X138904751Y-74761333D01*
X139242667Y-74761333D01*
X139245127Y-74781571D01*
X139327334Y-74846000D01*
X139347571Y-74843540D01*
X139412000Y-74761333D01*
X139409540Y-74741096D01*
X139327334Y-74676667D01*
X139307096Y-74679127D01*
X139242667Y-74761333D01*
X138904751Y-74761333D01*
X139042387Y-74593217D01*
X139353827Y-74431343D01*
X139415648Y-74412493D01*
X139517057Y-74365751D01*
X139452006Y-74345636D01*
X139449113Y-74345524D01*
X139225820Y-74399735D01*
X138971272Y-74547291D01*
X138755834Y-74747569D01*
X138680387Y-74888439D01*
X138651595Y-75173468D01*
X137927000Y-75173468D01*
X137925493Y-74906914D01*
X137944145Y-74757764D01*
X137954059Y-74588733D01*
X137925134Y-74541894D01*
X137850489Y-74587998D01*
X137796002Y-74629190D01*
X137732877Y-74627591D01*
X137718667Y-74482291D01*
X137732174Y-74290891D01*
X137803824Y-74077005D01*
X137926270Y-73999333D01*
X138040570Y-73950849D01*
X138192378Y-73818042D01*
X138320902Y-73702196D01*
X138624293Y-73517716D01*
X138966818Y-73379415D01*
X139268831Y-73323859D01*
X139422616Y-73299112D01*
X139454334Y-73237333D01*
X139446369Y-73193712D01*
X139534004Y-73152667D01*
X139597085Y-73163029D01*
X139666000Y-73237333D01*
X139707801Y-73290198D01*
X139856500Y-73322434D01*
X140031772Y-73355116D01*
X140340695Y-73508032D01*
X140681315Y-73764946D01*
X141018880Y-74102534D01*
X141038989Y-74125225D01*
X141369348Y-74428800D01*
X141681712Y-74588895D01*
X141709965Y-74595129D01*
X141920968Y-74617774D01*
X142279343Y-74637410D01*
X142767625Y-74653553D01*
X143368349Y-74665720D01*
X144064050Y-74673428D01*
X144837263Y-74676194D01*
X147680191Y-74676667D01*
X149759977Y-72010257D01*
X149709823Y-71586628D01*
X149686084Y-71440119D01*
X149618290Y-71205445D01*
X149538187Y-71074132D01*
X149522270Y-71060299D01*
X149427539Y-70901951D01*
X149357930Y-70671965D01*
X149332697Y-70499737D01*
X149352132Y-70386683D01*
X149441283Y-70358667D01*
X149527071Y-70334189D01*
X149538149Y-70210500D01*
X149522198Y-70152047D01*
X149467110Y-69938445D01*
X149379798Y-69594013D01*
X149265364Y-69139255D01*
X149128912Y-68594677D01*
X148975548Y-67980785D01*
X148810373Y-67318083D01*
X148638492Y-66627079D01*
X148465009Y-65928277D01*
X148295028Y-65242183D01*
X148133651Y-64589303D01*
X147985984Y-63990142D01*
X147857130Y-63465205D01*
X147752192Y-63035000D01*
X147695220Y-62800665D01*
X147591078Y-62374213D01*
X147503060Y-62016231D01*
X147439059Y-61758759D01*
X147406970Y-61633837D01*
X147404288Y-61622263D01*
X147435760Y-61539967D01*
X147581683Y-61470321D01*
X147869171Y-61399582D01*
X148093407Y-61343424D01*
X148335481Y-61256786D01*
X148469367Y-61174703D01*
X148478107Y-61164417D01*
X148589211Y-61097037D01*
X148743616Y-61154958D01*
X148758852Y-61163813D01*
X148892780Y-61214247D01*
X148955118Y-61151167D01*
X148957665Y-61144310D01*
X149035503Y-61048511D01*
X149120443Y-61105850D01*
X149191820Y-61303066D01*
X149275964Y-61518931D01*
X149426179Y-61726400D01*
X149503438Y-61802538D01*
X149522757Y-61854191D01*
X149449089Y-61880757D01*
X149256986Y-61890580D01*
X148920999Y-61892000D01*
X148754251Y-61893057D01*
X148400622Y-61913516D01*
X148185800Y-61976466D01*
X148087778Y-62103170D01*
X148084547Y-62314888D01*
X148154101Y-62632882D01*
X148168059Y-62686470D01*
X148268993Y-63075810D01*
X148398988Y-63579549D01*
X148551565Y-64172378D01*
X148720243Y-64828991D01*
X148898542Y-65524079D01*
X149079983Y-66232335D01*
X149258085Y-66928451D01*
X149426370Y-67587119D01*
X149578356Y-68183032D01*
X149707563Y-68690882D01*
X149807513Y-69085361D01*
X149871725Y-69341162D01*
X149928213Y-69557606D01*
X150019729Y-69865518D01*
X150098856Y-70082456D01*
X150153030Y-70171343D01*
X150193612Y-70246426D01*
X150267239Y-70462109D01*
X150364076Y-70791524D01*
X150476320Y-71208014D01*
X150596167Y-71684923D01*
X150704999Y-72118567D01*
X150822586Y-72556021D01*
X150927346Y-72914251D01*
X151010874Y-73164664D01*
X151064762Y-73278666D01*
X151107695Y-73309590D01*
X151300527Y-73386389D01*
X151557472Y-73443945D01*
X151676108Y-73465616D01*
X151867241Y-73522778D01*
X151942667Y-73581188D01*
X151936502Y-73608437D01*
X151841455Y-73660667D01*
X151826715Y-73682677D01*
X151895458Y-73786803D01*
X152053523Y-73947619D01*
X152191103Y-74087467D01*
X152469087Y-74513778D01*
X152600513Y-74976453D01*
X152588898Y-75446445D01*
X152437762Y-75894708D01*
X152150623Y-76292196D01*
X151731000Y-76609862D01*
X151647182Y-76644266D01*
X151365995Y-76693362D01*
X151018283Y-76700430D01*
X150671920Y-76666373D01*
X150394781Y-76592094D01*
X150026677Y-76355441D01*
X149717901Y-75990163D01*
X149523285Y-75548408D01*
X149480850Y-75400420D01*
X149430415Y-75258974D01*
X149408382Y-75248167D01*
X149380083Y-75354327D01*
X149319928Y-75352290D01*
X149260635Y-75250105D01*
X149234161Y-75078833D01*
X149277229Y-74752070D01*
X149467562Y-74301478D01*
X149791375Y-73884511D01*
X150228504Y-73532526D01*
X150230407Y-73520417D01*
X150202780Y-73399076D01*
X150137238Y-73193157D01*
X150024470Y-72867432D01*
X149804680Y-73115883D01*
X149709930Y-73224837D01*
X149485511Y-73493074D01*
X149246976Y-73788563D01*
X149018798Y-74079809D01*
X148825450Y-74335320D01*
X148691406Y-74523604D01*
X148641139Y-74613167D01*
X148693309Y-74654905D01*
X148852334Y-74676667D01*
X148876720Y-74677112D01*
X149034488Y-74719334D01*
X149039591Y-74761333D01*
X149044596Y-74802538D01*
X148898386Y-74887153D01*
X148863136Y-74901891D01*
X148711901Y-75008983D01*
X148689401Y-75024916D01*
X148505123Y-75210358D01*
%TO.C,G\u002A\u002A\u002A2*%
X98957665Y-94444310D02*
X98955118Y-94451167D01*
X98955118Y-94451167D02*
X98892780Y-94514247D01*
X98892780Y-94514247D02*
X98758852Y-94463813D01*
X98758852Y-94463813D02*
X98743616Y-94454958D01*
X98743616Y-94454958D02*
X98589211Y-94397037D01*
X98589211Y-94397037D02*
X98478107Y-94464417D01*
X98478107Y-94464417D02*
X98469367Y-94474703D01*
X98469367Y-94474703D02*
X98335481Y-94556786D01*
X98335481Y-94556786D02*
X98093407Y-94643424D01*
X98093407Y-94643424D02*
X97869171Y-94699582D01*
X97869171Y-94699582D02*
X97581683Y-94770321D01*
X97581683Y-94770321D02*
X97435760Y-94839967D01*
X97435760Y-94839967D02*
X97404288Y-94922263D01*
X97404288Y-94922263D02*
X97406970Y-94933837D01*
X97406970Y-94933837D02*
X97439059Y-95058759D01*
X97439059Y-95058759D02*
X97503060Y-95316231D01*
X97503060Y-95316231D02*
X97591078Y-95674213D01*
X97591078Y-95674213D02*
X97695220Y-96100665D01*
X97695220Y-96100665D02*
X97752192Y-96335000D01*
X97752192Y-96335000D02*
X97857130Y-96765205D01*
X97857130Y-96765205D02*
X97985984Y-97290142D01*
X97985984Y-97290142D02*
X98133651Y-97889303D01*
X98133651Y-97889303D02*
X98295028Y-98542183D01*
X98295028Y-98542183D02*
X98465009Y-99228277D01*
X98465009Y-99228277D02*
X98638492Y-99927079D01*
X98638492Y-99927079D02*
X98810373Y-100618083D01*
X98810373Y-100618083D02*
X98975548Y-101280785D01*
X98975548Y-101280785D02*
X99128912Y-101894677D01*
X99128912Y-101894677D02*
X99265364Y-102439255D01*
X99265364Y-102439255D02*
X99379798Y-102894013D01*
X99379798Y-102894013D02*
X99467110Y-103238445D01*
X99467110Y-103238445D02*
X99522198Y-103452047D01*
X99522198Y-103452047D02*
X99538149Y-103510500D01*
X99538149Y-103510500D02*
X99527071Y-103634189D01*
X99527071Y-103634189D02*
X99441283Y-103658667D01*
X99441283Y-103658667D02*
X99352132Y-103686683D01*
X99352132Y-103686683D02*
X99332697Y-103799737D01*
X99332697Y-103799737D02*
X99357930Y-103971965D01*
X99357930Y-103971965D02*
X99427539Y-104201951D01*
X99427539Y-104201951D02*
X99522270Y-104360299D01*
X99522270Y-104360299D02*
X99538187Y-104374132D01*
X99538187Y-104374132D02*
X99618290Y-104505445D01*
X99618290Y-104505445D02*
X99686084Y-104740119D01*
X99686084Y-104740119D02*
X99709823Y-104886628D01*
X99709823Y-104886628D02*
X99759977Y-105310257D01*
X99759977Y-105310257D02*
X97680191Y-107976667D01*
X97680191Y-107976667D02*
X94837263Y-107976194D01*
X94837263Y-107976194D02*
X94064050Y-107973428D01*
X94064050Y-107973428D02*
X93368349Y-107965720D01*
X93368349Y-107965720D02*
X92767625Y-107953553D01*
X92767625Y-107953553D02*
X92279343Y-107937410D01*
X92279343Y-107937410D02*
X91920968Y-107917774D01*
X91920968Y-107917774D02*
X91709965Y-107895129D01*
X91709965Y-107895129D02*
X91681712Y-107888895D01*
X91681712Y-107888895D02*
X91369348Y-107728800D01*
X91369348Y-107728800D02*
X91038989Y-107425225D01*
X91038989Y-107425225D02*
X91018880Y-107402534D01*
X91018880Y-107402534D02*
X90681315Y-107064946D01*
X90681315Y-107064946D02*
X90340695Y-106808032D01*
X90340695Y-106808032D02*
X90031772Y-106655116D01*
X90031772Y-106655116D02*
X89856500Y-106622434D01*
X89856500Y-106622434D02*
X89707801Y-106590198D01*
X89707801Y-106590198D02*
X89666000Y-106537333D01*
X89666000Y-106537333D02*
X89597085Y-106463029D01*
X89597085Y-106463029D02*
X89534004Y-106452667D01*
X89534004Y-106452667D02*
X89446369Y-106493712D01*
X89446369Y-106493712D02*
X89454334Y-106537333D01*
X89454334Y-106537333D02*
X89422616Y-106599112D01*
X89422616Y-106599112D02*
X89268831Y-106623859D01*
X89268831Y-106623859D02*
X88966818Y-106679415D01*
X88966818Y-106679415D02*
X88624293Y-106817716D01*
X88624293Y-106817716D02*
X88320902Y-107002196D01*
X88320902Y-107002196D02*
X88192378Y-107118042D01*
X88192378Y-107118042D02*
X88040570Y-107250849D01*
X88040570Y-107250849D02*
X87926270Y-107299333D01*
X87926270Y-107299333D02*
X87803824Y-107377005D01*
X87803824Y-107377005D02*
X87732174Y-107590891D01*
X87732174Y-107590891D02*
X87718667Y-107782291D01*
X87718667Y-107782291D02*
X87732877Y-107927591D01*
X87732877Y-107927591D02*
X87796002Y-107929190D01*
X87796002Y-107929190D02*
X87850489Y-107887998D01*
X87850489Y-107887998D02*
X87925134Y-107841894D01*
X87925134Y-107841894D02*
X87954059Y-107888733D01*
X87954059Y-107888733D02*
X87944145Y-108057764D01*
X87944145Y-108057764D02*
X87925493Y-108206914D01*
X87925493Y-108206914D02*
X87928509Y-108740387D01*
X87928509Y-108740387D02*
X88089441Y-109215759D01*
X88089441Y-109215759D02*
X88293490Y-109514330D01*
X88293490Y-109514330D02*
X88636487Y-109807341D01*
X88636487Y-109807341D02*
X89069383Y-109969073D01*
X89069383Y-109969073D02*
X89498152Y-110008667D01*
X89498152Y-110008667D02*
X89984079Y-109943698D01*
X89984079Y-109943698D02*
X90383320Y-109742147D01*
X90383320Y-109742147D02*
X90711076Y-109394045D01*
X90711076Y-109394045D02*
X90885938Y-109098500D01*
X90885938Y-109098500D02*
X90993931Y-108884834D01*
X90993931Y-108884834D02*
X90216334Y-108884834D01*
X90216334Y-108884834D02*
X90059325Y-109061020D01*
X90059325Y-109061020D02*
X89872190Y-109210261D01*
X89872190Y-109210261D02*
X89608722Y-109294753D01*
X89608722Y-109294753D02*
X89437151Y-109319803D01*
X89437151Y-109319803D02*
X89289973Y-109295404D01*
X89289973Y-109295404D02*
X89113301Y-109230183D01*
X89113301Y-109230183D02*
X88884719Y-109049480D01*
X88884719Y-109049480D02*
X88725262Y-108778862D01*
X88725262Y-108778862D02*
X88651595Y-108473468D01*
X88651595Y-108473468D02*
X88680387Y-108188439D01*
X88680387Y-108188439D02*
X88755834Y-108047569D01*
X88755834Y-108047569D02*
X88971272Y-107847291D01*
X88971272Y-107847291D02*
X89225820Y-107699735D01*
X89225820Y-107699735D02*
X89449113Y-107645524D01*
X89449113Y-107645524D02*
X89452006Y-107645636D01*
X89452006Y-107645636D02*
X89517057Y-107665751D01*
X89517057Y-107665751D02*
X89415648Y-107712493D01*
X89415648Y-107712493D02*
X89353827Y-107731343D01*
X89353827Y-107731343D02*
X89042387Y-107893217D01*
X89042387Y-107893217D02*
X88834145Y-108147575D01*
X88834145Y-108147575D02*
X88757550Y-108454398D01*
X88757550Y-108454398D02*
X88765734Y-108558641D01*
X88765734Y-108558641D02*
X88886573Y-108890719D01*
X88886573Y-108890719D02*
X89108561Y-109096361D01*
X89108561Y-109096361D02*
X89412092Y-109167843D01*
X89412092Y-109167843D02*
X89777560Y-109097441D01*
X89777560Y-109097441D02*
X89945372Y-109023417D01*
X89945372Y-109023417D02*
X90171039Y-108908000D01*
X90171039Y-108908000D02*
X89412000Y-108908000D01*
X89412000Y-108908000D02*
X89347571Y-108990206D01*
X89347571Y-108990206D02*
X89327334Y-108992667D01*
X89327334Y-108992667D02*
X89245127Y-108928237D01*
X89245127Y-108928237D02*
X89242667Y-108908000D01*
X89242667Y-108908000D02*
X89307096Y-108825793D01*
X89307096Y-108825793D02*
X89327334Y-108823333D01*
X89327334Y-108823333D02*
X89409540Y-108887762D01*
X89409540Y-108887762D02*
X89412000Y-108908000D01*
X89412000Y-108908000D02*
X90171039Y-108908000D01*
X90171039Y-108908000D02*
X90216334Y-108884834D01*
X90216334Y-108884834D02*
X90993931Y-108884834D01*
X90993931Y-108884834D02*
X91025016Y-108823333D01*
X91025016Y-108823333D02*
X91829270Y-108823333D01*
X91829270Y-108823333D02*
X92222338Y-108825508D01*
X92222338Y-108825508D02*
X92480909Y-108850323D01*
X92480909Y-108850323D02*
X92639756Y-108925210D01*
X92639756Y-108925210D02*
X92733646Y-109077602D01*
X92733646Y-109077602D02*
X92797352Y-109334934D01*
X92797352Y-109334934D02*
X92848716Y-109627667D01*
X92848716Y-109627667D02*
X92921845Y-110051000D01*
X92921845Y-110051000D02*
X92966089Y-109458333D01*
X92966089Y-109458333D02*
X93010334Y-108865667D01*
X93010334Y-108865667D02*
X95643905Y-108823333D01*
X95643905Y-108823333D02*
X98277476Y-108781000D01*
X98277476Y-108781000D02*
X98411780Y-108621330D01*
X98411780Y-108621330D02*
X89147768Y-108621330D01*
X89147768Y-108621330D02*
X89126845Y-108738225D01*
X89126845Y-108738225D02*
X89103858Y-108764587D01*
X89103858Y-108764587D02*
X88998316Y-108781710D01*
X88998316Y-108781710D02*
X88912742Y-108695896D01*
X88912742Y-108695896D02*
X88904000Y-108649003D01*
X88904000Y-108649003D02*
X88972652Y-108578297D01*
X88972652Y-108578297D02*
X89031000Y-108569333D01*
X89031000Y-108569333D02*
X89147768Y-108621330D01*
X89147768Y-108621330D02*
X98411780Y-108621330D01*
X98411780Y-108621330D02*
X98505123Y-108510358D01*
X98505123Y-108510358D02*
X98689401Y-108324916D01*
X98689401Y-108324916D02*
X98711901Y-108308983D01*
X98711901Y-108308983D02*
X89141773Y-108308983D01*
X89141773Y-108308983D02*
X89100902Y-108386186D01*
X89100902Y-108386186D02*
X89031000Y-108400000D01*
X89031000Y-108400000D02*
X88925627Y-108357040D01*
X88925627Y-108357040D02*
X88920228Y-108308983D01*
X88920228Y-108308983D02*
X89007637Y-108221509D01*
X89007637Y-108221509D02*
X89031000Y-108217967D01*
X89031000Y-108217967D02*
X89130275Y-108283881D01*
X89130275Y-108283881D02*
X89141773Y-108308983D01*
X89141773Y-108308983D02*
X98711901Y-108308983D01*
X98711901Y-108308983D02*
X98863136Y-108201891D01*
X98863136Y-108201891D02*
X98898386Y-108187153D01*
X98898386Y-108187153D02*
X99044596Y-108102538D01*
X99044596Y-108102538D02*
X99039591Y-108061333D01*
X99039591Y-108061333D02*
X89412000Y-108061333D01*
X89412000Y-108061333D02*
X89347571Y-108143540D01*
X89347571Y-108143540D02*
X89327334Y-108146000D01*
X89327334Y-108146000D02*
X89245127Y-108081571D01*
X89245127Y-108081571D02*
X89242667Y-108061333D01*
X89242667Y-108061333D02*
X89307096Y-107979127D01*
X89307096Y-107979127D02*
X89327334Y-107976667D01*
X89327334Y-107976667D02*
X89409540Y-108041096D01*
X89409540Y-108041096D02*
X89412000Y-108061333D01*
X89412000Y-108061333D02*
X99039591Y-108061333D01*
X99039591Y-108061333D02*
X99034488Y-108019334D01*
X99034488Y-108019334D02*
X98876720Y-107977112D01*
X98876720Y-107977112D02*
X98852334Y-107976667D01*
X98852334Y-107976667D02*
X98693309Y-107954905D01*
X98693309Y-107954905D02*
X98641139Y-107913167D01*
X98641139Y-107913167D02*
X98691406Y-107823604D01*
X98691406Y-107823604D02*
X98825450Y-107635320D01*
X98825450Y-107635320D02*
X99018798Y-107379809D01*
X99018798Y-107379809D02*
X99246976Y-107088563D01*
X99246976Y-107088563D02*
X99485511Y-106793074D01*
X99485511Y-106793074D02*
X99709930Y-106524837D01*
X99709930Y-106524837D02*
X99804680Y-106415883D01*
X99804680Y-106415883D02*
X100024470Y-106167432D01*
X100024470Y-106167432D02*
X100137238Y-106493157D01*
X100137238Y-106493157D02*
X100202780Y-106699076D01*
X100202780Y-106699076D02*
X100230407Y-106820417D01*
X100230407Y-106820417D02*
X100228504Y-106832526D01*
X100228504Y-106832526D02*
X99791375Y-107184511D01*
X99791375Y-107184511D02*
X99467562Y-107601478D01*
X99467562Y-107601478D02*
X99277229Y-108052070D01*
X99277229Y-108052070D02*
X99234161Y-108378833D01*
X99234161Y-108378833D02*
X99260635Y-108550105D01*
X99260635Y-108550105D02*
X99319928Y-108652290D01*
X99319928Y-108652290D02*
X99380083Y-108654327D01*
X99380083Y-108654327D02*
X99408382Y-108548167D01*
X99408382Y-108548167D02*
X99430415Y-108558974D01*
X99430415Y-108558974D02*
X99480850Y-108700420D01*
X99480850Y-108700420D02*
X99523285Y-108848408D01*
X99523285Y-108848408D02*
X99717901Y-109290163D01*
X99717901Y-109290163D02*
X100026677Y-109655441D01*
X100026677Y-109655441D02*
X100394781Y-109892094D01*
X100394781Y-109892094D02*
X100671920Y-109966373D01*
X100671920Y-109966373D02*
X101018283Y-110000430D01*
X101018283Y-110000430D02*
X101365995Y-109993362D01*
X101365995Y-109993362D02*
X101647182Y-109944266D01*
X101647182Y-109944266D02*
X101731000Y-109909862D01*
X101731000Y-109909862D02*
X102150623Y-109592196D01*
X102150623Y-109592196D02*
X102437762Y-109194708D01*
X102437762Y-109194708D02*
X102588898Y-108746445D01*
X102588898Y-108746445D02*
X102600513Y-108276453D01*
X102600513Y-108276453D02*
X102469087Y-107813778D01*
X102469087Y-107813778D02*
X102191103Y-107387467D01*
X102191103Y-107387467D02*
X102053523Y-107247619D01*
X102053523Y-107247619D02*
X101895458Y-107086803D01*
X101895458Y-107086803D02*
X101826715Y-106982677D01*
X101826715Y-106982677D02*
X101841455Y-106960667D01*
X101841455Y-106960667D02*
X101936502Y-106908437D01*
X101936502Y-106908437D02*
X101942667Y-106881188D01*
X101942667Y-106881188D02*
X101867241Y-106822778D01*
X101867241Y-106822778D02*
X101676108Y-106765616D01*
X101676108Y-106765616D02*
X101557472Y-106743945D01*
X101557472Y-106743945D02*
X101300527Y-106686389D01*
X101300527Y-106686389D02*
X101107695Y-106609590D01*
X101107695Y-106609590D02*
X101064762Y-106578666D01*
X101064762Y-106578666D02*
X101010874Y-106464664D01*
X101010874Y-106464664D02*
X100927346Y-106214251D01*
X100927346Y-106214251D02*
X100822586Y-105856021D01*
X100822586Y-105856021D02*
X100704999Y-105418567D01*
X100704999Y-105418567D02*
X100596167Y-104984923D01*
X100596167Y-104984923D02*
X100476320Y-104508014D01*
X100476320Y-104508014D02*
X100364076Y-104091524D01*
X100364076Y-104091524D02*
X100267239Y-103762109D01*
X100267239Y-103762109D02*
X100193612Y-103546426D01*
X100193612Y-103546426D02*
X100153030Y-103471343D01*
X100153030Y-103471343D02*
X100098856Y-103382456D01*
X100098856Y-103382456D02*
X100019729Y-103165518D01*
X100019729Y-103165518D02*
X99928213Y-102857606D01*
X99928213Y-102857606D02*
X99871725Y-102641162D01*
X99871725Y-102641162D02*
X99807513Y-102385361D01*
X99807513Y-102385361D02*
X99707563Y-101990882D01*
X99707563Y-101990882D02*
X99578356Y-101483032D01*
X99578356Y-101483032D02*
X99426370Y-100887119D01*
X99426370Y-100887119D02*
X99258085Y-100228451D01*
X99258085Y-100228451D02*
X99079983Y-99532335D01*
X99079983Y-99532335D02*
X98898542Y-98824079D01*
X98898542Y-98824079D02*
X98720243Y-98128991D01*
X98720243Y-98128991D02*
X98551565Y-97472378D01*
X98551565Y-97472378D02*
X98398988Y-96879549D01*
X98398988Y-96879549D02*
X98268993Y-96375810D01*
X98268993Y-96375810D02*
X98168059Y-95986470D01*
X98168059Y-95986470D02*
X98154101Y-95932882D01*
X98154101Y-95932882D02*
X98084547Y-95614888D01*
X98084547Y-95614888D02*
X98087778Y-95403170D01*
X98087778Y-95403170D02*
X98185800Y-95276466D01*
X98185800Y-95276466D02*
X98400622Y-95213516D01*
X98400622Y-95213516D02*
X98754251Y-95193057D01*
X98754251Y-95193057D02*
X98920999Y-95192000D01*
X98920999Y-95192000D02*
X99256986Y-95190580D01*
X99256986Y-95190580D02*
X99449089Y-95180757D01*
X99449089Y-95180757D02*
X99522757Y-95154191D01*
X99522757Y-95154191D02*
X99503438Y-95102538D01*
X99503438Y-95102538D02*
X99426179Y-95026400D01*
X99426179Y-95026400D02*
X99275964Y-94818931D01*
X99275964Y-94818931D02*
X99191820Y-94603066D01*
X99191820Y-94603066D02*
X99120443Y-94405850D01*
X99120443Y-94405850D02*
X99035503Y-94348511D01*
X99035503Y-94348511D02*
X98957665Y-94444310D01*
X98957665Y-94444310D02*
X98957665Y-94444310D01*
G36*
X98505123Y-108510358D02*
G01*
X98411780Y-108621330D01*
X98277476Y-108781000D01*
X95643905Y-108823333D01*
X93010334Y-108865667D01*
X92966089Y-109458333D01*
X92921845Y-110051000D01*
X92848716Y-109627667D01*
X92797352Y-109334934D01*
X92733646Y-109077602D01*
X92639756Y-108925210D01*
X92480909Y-108850323D01*
X92222338Y-108825508D01*
X91829270Y-108823333D01*
X91025016Y-108823333D01*
X90993931Y-108884834D01*
X90885938Y-109098500D01*
X90711076Y-109394045D01*
X90383320Y-109742147D01*
X89984079Y-109943698D01*
X89498152Y-110008667D01*
X89069383Y-109969073D01*
X88636487Y-109807341D01*
X88293490Y-109514330D01*
X88089441Y-109215759D01*
X87928509Y-108740387D01*
X87927000Y-108473468D01*
X88651595Y-108473468D01*
X88725262Y-108778862D01*
X88884719Y-109049480D01*
X89113301Y-109230183D01*
X89289973Y-109295404D01*
X89437151Y-109319803D01*
X89608722Y-109294753D01*
X89872190Y-109210261D01*
X90059325Y-109061020D01*
X90216334Y-108884834D01*
X90171039Y-108908000D01*
X89945372Y-109023417D01*
X89777560Y-109097441D01*
X89412092Y-109167843D01*
X89108561Y-109096361D01*
X88905228Y-108908000D01*
X89242667Y-108908000D01*
X89245127Y-108928237D01*
X89327334Y-108992667D01*
X89347571Y-108990206D01*
X89412000Y-108908000D01*
X89409540Y-108887762D01*
X89327334Y-108823333D01*
X89307096Y-108825793D01*
X89242667Y-108908000D01*
X88905228Y-108908000D01*
X88886573Y-108890719D01*
X88798616Y-108649003D01*
X88904000Y-108649003D01*
X88912742Y-108695896D01*
X88998316Y-108781710D01*
X89103858Y-108764587D01*
X89126845Y-108738225D01*
X89147768Y-108621330D01*
X89031000Y-108569333D01*
X88972652Y-108578297D01*
X88904000Y-108649003D01*
X88798616Y-108649003D01*
X88765734Y-108558641D01*
X88757550Y-108454398D01*
X88793851Y-108308983D01*
X88920228Y-108308983D01*
X88925627Y-108357040D01*
X89031000Y-108400000D01*
X89100902Y-108386186D01*
X89141773Y-108308983D01*
X89130275Y-108283881D01*
X89031000Y-108217967D01*
X89007637Y-108221509D01*
X88920228Y-108308983D01*
X88793851Y-108308983D01*
X88834145Y-108147575D01*
X88904751Y-108061333D01*
X89242667Y-108061333D01*
X89245127Y-108081571D01*
X89327334Y-108146000D01*
X89347571Y-108143540D01*
X89412000Y-108061333D01*
X89409540Y-108041096D01*
X89327334Y-107976667D01*
X89307096Y-107979127D01*
X89242667Y-108061333D01*
X88904751Y-108061333D01*
X89042387Y-107893217D01*
X89353827Y-107731343D01*
X89415648Y-107712493D01*
X89517057Y-107665751D01*
X89452006Y-107645636D01*
X89449113Y-107645524D01*
X89225820Y-107699735D01*
X88971272Y-107847291D01*
X88755834Y-108047569D01*
X88680387Y-108188439D01*
X88651595Y-108473468D01*
X87927000Y-108473468D01*
X87925493Y-108206914D01*
X87944145Y-108057764D01*
X87954059Y-107888733D01*
X87925134Y-107841894D01*
X87850489Y-107887998D01*
X87796002Y-107929190D01*
X87732877Y-107927591D01*
X87718667Y-107782291D01*
X87732174Y-107590891D01*
X87803824Y-107377005D01*
X87926270Y-107299333D01*
X88040570Y-107250849D01*
X88192378Y-107118042D01*
X88320902Y-107002196D01*
X88624293Y-106817716D01*
X88966818Y-106679415D01*
X89268831Y-106623859D01*
X89422616Y-106599112D01*
X89454334Y-106537333D01*
X89446369Y-106493712D01*
X89534004Y-106452667D01*
X89597085Y-106463029D01*
X89666000Y-106537333D01*
X89707801Y-106590198D01*
X89856500Y-106622434D01*
X90031772Y-106655116D01*
X90340695Y-106808032D01*
X90681315Y-107064946D01*
X91018880Y-107402534D01*
X91038989Y-107425225D01*
X91369348Y-107728800D01*
X91681712Y-107888895D01*
X91709965Y-107895129D01*
X91920968Y-107917774D01*
X92279343Y-107937410D01*
X92767625Y-107953553D01*
X93368349Y-107965720D01*
X94064050Y-107973428D01*
X94837263Y-107976194D01*
X97680191Y-107976667D01*
X99759977Y-105310257D01*
X99709823Y-104886628D01*
X99686084Y-104740119D01*
X99618290Y-104505445D01*
X99538187Y-104374132D01*
X99522270Y-104360299D01*
X99427539Y-104201951D01*
X99357930Y-103971965D01*
X99332697Y-103799737D01*
X99352132Y-103686683D01*
X99441283Y-103658667D01*
X99527071Y-103634189D01*
X99538149Y-103510500D01*
X99522198Y-103452047D01*
X99467110Y-103238445D01*
X99379798Y-102894013D01*
X99265364Y-102439255D01*
X99128912Y-101894677D01*
X98975548Y-101280785D01*
X98810373Y-100618083D01*
X98638492Y-99927079D01*
X98465009Y-99228277D01*
X98295028Y-98542183D01*
X98133651Y-97889303D01*
X97985984Y-97290142D01*
X97857130Y-96765205D01*
X97752192Y-96335000D01*
X97695220Y-96100665D01*
X97591078Y-95674213D01*
X97503060Y-95316231D01*
X97439059Y-95058759D01*
X97406970Y-94933837D01*
X97404288Y-94922263D01*
X97435760Y-94839967D01*
X97581683Y-94770321D01*
X97869171Y-94699582D01*
X98093407Y-94643424D01*
X98335481Y-94556786D01*
X98469367Y-94474703D01*
X98478107Y-94464417D01*
X98589211Y-94397037D01*
X98743616Y-94454958D01*
X98758852Y-94463813D01*
X98892780Y-94514247D01*
X98955118Y-94451167D01*
X98957665Y-94444310D01*
X99035503Y-94348511D01*
X99120443Y-94405850D01*
X99191820Y-94603066D01*
X99275964Y-94818931D01*
X99426179Y-95026400D01*
X99503438Y-95102538D01*
X99522757Y-95154191D01*
X99449089Y-95180757D01*
X99256986Y-95190580D01*
X98920999Y-95192000D01*
X98754251Y-95193057D01*
X98400622Y-95213516D01*
X98185800Y-95276466D01*
X98087778Y-95403170D01*
X98084547Y-95614888D01*
X98154101Y-95932882D01*
X98168059Y-95986470D01*
X98268993Y-96375810D01*
X98398988Y-96879549D01*
X98551565Y-97472378D01*
X98720243Y-98128991D01*
X98898542Y-98824079D01*
X99079983Y-99532335D01*
X99258085Y-100228451D01*
X99426370Y-100887119D01*
X99578356Y-101483032D01*
X99707563Y-101990882D01*
X99807513Y-102385361D01*
X99871725Y-102641162D01*
X99928213Y-102857606D01*
X100019729Y-103165518D01*
X100098856Y-103382456D01*
X100153030Y-103471343D01*
X100193612Y-103546426D01*
X100267239Y-103762109D01*
X100364076Y-104091524D01*
X100476320Y-104508014D01*
X100596167Y-104984923D01*
X100704999Y-105418567D01*
X100822586Y-105856021D01*
X100927346Y-106214251D01*
X101010874Y-106464664D01*
X101064762Y-106578666D01*
X101107695Y-106609590D01*
X101300527Y-106686389D01*
X101557472Y-106743945D01*
X101676108Y-106765616D01*
X101867241Y-106822778D01*
X101942667Y-106881188D01*
X101936502Y-106908437D01*
X101841455Y-106960667D01*
X101826715Y-106982677D01*
X101895458Y-107086803D01*
X102053523Y-107247619D01*
X102191103Y-107387467D01*
X102469087Y-107813778D01*
X102600513Y-108276453D01*
X102588898Y-108746445D01*
X102437762Y-109194708D01*
X102150623Y-109592196D01*
X101731000Y-109909862D01*
X101647182Y-109944266D01*
X101365995Y-109993362D01*
X101018283Y-110000430D01*
X100671920Y-109966373D01*
X100394781Y-109892094D01*
X100026677Y-109655441D01*
X99717901Y-109290163D01*
X99523285Y-108848408D01*
X99480850Y-108700420D01*
X99430415Y-108558974D01*
X99408382Y-108548167D01*
X99380083Y-108654327D01*
X99319928Y-108652290D01*
X99260635Y-108550105D01*
X99234161Y-108378833D01*
X99277229Y-108052070D01*
X99467562Y-107601478D01*
X99791375Y-107184511D01*
X100228504Y-106832526D01*
X100230407Y-106820417D01*
X100202780Y-106699076D01*
X100137238Y-106493157D01*
X100024470Y-106167432D01*
X99804680Y-106415883D01*
X99709930Y-106524837D01*
X99485511Y-106793074D01*
X99246976Y-107088563D01*
X99018798Y-107379809D01*
X98825450Y-107635320D01*
X98691406Y-107823604D01*
X98641139Y-107913167D01*
X98693309Y-107954905D01*
X98852334Y-107976667D01*
X98876720Y-107977112D01*
X99034488Y-108019334D01*
X99039591Y-108061333D01*
X99044596Y-108102538D01*
X98898386Y-108187153D01*
X98863136Y-108201891D01*
X98711901Y-108308983D01*
X98689401Y-108324916D01*
X98505123Y-108510358D01*
G37*
X98505123Y-108510358D02*
X98411780Y-108621330D01*
X98277476Y-108781000D01*
X95643905Y-108823333D01*
X93010334Y-108865667D01*
X92966089Y-109458333D01*
X92921845Y-110051000D01*
X92848716Y-109627667D01*
X92797352Y-109334934D01*
X92733646Y-109077602D01*
X92639756Y-108925210D01*
X92480909Y-108850323D01*
X92222338Y-108825508D01*
X91829270Y-108823333D01*
X91025016Y-108823333D01*
X90993931Y-108884834D01*
X90885938Y-109098500D01*
X90711076Y-109394045D01*
X90383320Y-109742147D01*
X89984079Y-109943698D01*
X89498152Y-110008667D01*
X89069383Y-109969073D01*
X88636487Y-109807341D01*
X88293490Y-109514330D01*
X88089441Y-109215759D01*
X87928509Y-108740387D01*
X87927000Y-108473468D01*
X88651595Y-108473468D01*
X88725262Y-108778862D01*
X88884719Y-109049480D01*
X89113301Y-109230183D01*
X89289973Y-109295404D01*
X89437151Y-109319803D01*
X89608722Y-109294753D01*
X89872190Y-109210261D01*
X90059325Y-109061020D01*
X90216334Y-108884834D01*
X90171039Y-108908000D01*
X89945372Y-109023417D01*
X89777560Y-109097441D01*
X89412092Y-109167843D01*
X89108561Y-109096361D01*
X88905228Y-108908000D01*
X89242667Y-108908000D01*
X89245127Y-108928237D01*
X89327334Y-108992667D01*
X89347571Y-108990206D01*
X89412000Y-108908000D01*
X89409540Y-108887762D01*
X89327334Y-108823333D01*
X89307096Y-108825793D01*
X89242667Y-108908000D01*
X88905228Y-108908000D01*
X88886573Y-108890719D01*
X88798616Y-108649003D01*
X88904000Y-108649003D01*
X88912742Y-108695896D01*
X88998316Y-108781710D01*
X89103858Y-108764587D01*
X89126845Y-108738225D01*
X89147768Y-108621330D01*
X89031000Y-108569333D01*
X88972652Y-108578297D01*
X88904000Y-108649003D01*
X88798616Y-108649003D01*
X88765734Y-108558641D01*
X88757550Y-108454398D01*
X88793851Y-108308983D01*
X88920228Y-108308983D01*
X88925627Y-108357040D01*
X89031000Y-108400000D01*
X89100902Y-108386186D01*
X89141773Y-108308983D01*
X89130275Y-108283881D01*
X89031000Y-108217967D01*
X89007637Y-108221509D01*
X88920228Y-108308983D01*
X88793851Y-108308983D01*
X88834145Y-108147575D01*
X88904751Y-108061333D01*
X89242667Y-108061333D01*
X89245127Y-108081571D01*
X89327334Y-108146000D01*
X89347571Y-108143540D01*
X89412000Y-108061333D01*
X89409540Y-108041096D01*
X89327334Y-107976667D01*
X89307096Y-107979127D01*
X89242667Y-108061333D01*
X88904751Y-108061333D01*
X89042387Y-107893217D01*
X89353827Y-107731343D01*
X89415648Y-107712493D01*
X89517057Y-107665751D01*
X89452006Y-107645636D01*
X89449113Y-107645524D01*
X89225820Y-107699735D01*
X88971272Y-107847291D01*
X88755834Y-108047569D01*
X88680387Y-108188439D01*
X88651595Y-108473468D01*
X87927000Y-108473468D01*
X87925493Y-108206914D01*
X87944145Y-108057764D01*
X87954059Y-107888733D01*
X87925134Y-107841894D01*
X87850489Y-107887998D01*
X87796002Y-107929190D01*
X87732877Y-107927591D01*
X87718667Y-107782291D01*
X87732174Y-107590891D01*
X87803824Y-107377005D01*
X87926270Y-107299333D01*
X88040570Y-107250849D01*
X88192378Y-107118042D01*
X88320902Y-107002196D01*
X88624293Y-106817716D01*
X88966818Y-106679415D01*
X89268831Y-106623859D01*
X89422616Y-106599112D01*
X89454334Y-106537333D01*
X89446369Y-106493712D01*
X89534004Y-106452667D01*
X89597085Y-106463029D01*
X89666000Y-106537333D01*
X89707801Y-106590198D01*
X89856500Y-106622434D01*
X90031772Y-106655116D01*
X90340695Y-106808032D01*
X90681315Y-107064946D01*
X91018880Y-107402534D01*
X91038989Y-107425225D01*
X91369348Y-107728800D01*
X91681712Y-107888895D01*
X91709965Y-107895129D01*
X91920968Y-107917774D01*
X92279343Y-107937410D01*
X92767625Y-107953553D01*
X93368349Y-107965720D01*
X94064050Y-107973428D01*
X94837263Y-107976194D01*
X97680191Y-107976667D01*
X99759977Y-105310257D01*
X99709823Y-104886628D01*
X99686084Y-104740119D01*
X99618290Y-104505445D01*
X99538187Y-104374132D01*
X99522270Y-104360299D01*
X99427539Y-104201951D01*
X99357930Y-103971965D01*
X99332697Y-103799737D01*
X99352132Y-103686683D01*
X99441283Y-103658667D01*
X99527071Y-103634189D01*
X99538149Y-103510500D01*
X99522198Y-103452047D01*
X99467110Y-103238445D01*
X99379798Y-102894013D01*
X99265364Y-102439255D01*
X99128912Y-101894677D01*
X98975548Y-101280785D01*
X98810373Y-100618083D01*
X98638492Y-99927079D01*
X98465009Y-99228277D01*
X98295028Y-98542183D01*
X98133651Y-97889303D01*
X97985984Y-97290142D01*
X97857130Y-96765205D01*
X97752192Y-96335000D01*
X97695220Y-96100665D01*
X97591078Y-95674213D01*
X97503060Y-95316231D01*
X97439059Y-95058759D01*
X97406970Y-94933837D01*
X97404288Y-94922263D01*
X97435760Y-94839967D01*
X97581683Y-94770321D01*
X97869171Y-94699582D01*
X98093407Y-94643424D01*
X98335481Y-94556786D01*
X98469367Y-94474703D01*
X98478107Y-94464417D01*
X98589211Y-94397037D01*
X98743616Y-94454958D01*
X98758852Y-94463813D01*
X98892780Y-94514247D01*
X98955118Y-94451167D01*
X98957665Y-94444310D01*
X99035503Y-94348511D01*
X99120443Y-94405850D01*
X99191820Y-94603066D01*
X99275964Y-94818931D01*
X99426179Y-95026400D01*
X99503438Y-95102538D01*
X99522757Y-95154191D01*
X99449089Y-95180757D01*
X99256986Y-95190580D01*
X98920999Y-95192000D01*
X98754251Y-95193057D01*
X98400622Y-95213516D01*
X98185800Y-95276466D01*
X98087778Y-95403170D01*
X98084547Y-95614888D01*
X98154101Y-95932882D01*
X98168059Y-95986470D01*
X98268993Y-96375810D01*
X98398988Y-96879549D01*
X98551565Y-97472378D01*
X98720243Y-98128991D01*
X98898542Y-98824079D01*
X99079983Y-99532335D01*
X99258085Y-100228451D01*
X99426370Y-100887119D01*
X99578356Y-101483032D01*
X99707563Y-101990882D01*
X99807513Y-102385361D01*
X99871725Y-102641162D01*
X99928213Y-102857606D01*
X100019729Y-103165518D01*
X100098856Y-103382456D01*
X100153030Y-103471343D01*
X100193612Y-103546426D01*
X100267239Y-103762109D01*
X100364076Y-104091524D01*
X100476320Y-104508014D01*
X100596167Y-104984923D01*
X100704999Y-105418567D01*
X100822586Y-105856021D01*
X100927346Y-106214251D01*
X101010874Y-106464664D01*
X101064762Y-106578666D01*
X101107695Y-106609590D01*
X101300527Y-106686389D01*
X101557472Y-106743945D01*
X101676108Y-106765616D01*
X101867241Y-106822778D01*
X101942667Y-106881188D01*
X101936502Y-106908437D01*
X101841455Y-106960667D01*
X101826715Y-106982677D01*
X101895458Y-107086803D01*
X102053523Y-107247619D01*
X102191103Y-107387467D01*
X102469087Y-107813778D01*
X102600513Y-108276453D01*
X102588898Y-108746445D01*
X102437762Y-109194708D01*
X102150623Y-109592196D01*
X101731000Y-109909862D01*
X101647182Y-109944266D01*
X101365995Y-109993362D01*
X101018283Y-110000430D01*
X100671920Y-109966373D01*
X100394781Y-109892094D01*
X100026677Y-109655441D01*
X99717901Y-109290163D01*
X99523285Y-108848408D01*
X99480850Y-108700420D01*
X99430415Y-108558974D01*
X99408382Y-108548167D01*
X99380083Y-108654327D01*
X99319928Y-108652290D01*
X99260635Y-108550105D01*
X99234161Y-108378833D01*
X99277229Y-108052070D01*
X99467562Y-107601478D01*
X99791375Y-107184511D01*
X100228504Y-106832526D01*
X100230407Y-106820417D01*
X100202780Y-106699076D01*
X100137238Y-106493157D01*
X100024470Y-106167432D01*
X99804680Y-106415883D01*
X99709930Y-106524837D01*
X99485511Y-106793074D01*
X99246976Y-107088563D01*
X99018798Y-107379809D01*
X98825450Y-107635320D01*
X98691406Y-107823604D01*
X98641139Y-107913167D01*
X98693309Y-107954905D01*
X98852334Y-107976667D01*
X98876720Y-107977112D01*
X99034488Y-108019334D01*
X99039591Y-108061333D01*
X99044596Y-108102538D01*
X98898386Y-108187153D01*
X98863136Y-108201891D01*
X98711901Y-108308983D01*
X98689401Y-108324916D01*
X98505123Y-108510358D01*
%TO.C,G\u002A\u002A\u002A*%
X98957665Y-61144310D02*
X98955118Y-61151167D01*
X98955118Y-61151167D02*
X98892780Y-61214247D01*
X98892780Y-61214247D02*
X98758852Y-61163813D01*
X98758852Y-61163813D02*
X98743616Y-61154958D01*
X98743616Y-61154958D02*
X98589211Y-61097037D01*
X98589211Y-61097037D02*
X98478107Y-61164417D01*
X98478107Y-61164417D02*
X98469367Y-61174703D01*
X98469367Y-61174703D02*
X98335481Y-61256786D01*
X98335481Y-61256786D02*
X98093407Y-61343424D01*
X98093407Y-61343424D02*
X97869171Y-61399582D01*
X97869171Y-61399582D02*
X97581683Y-61470321D01*
X97581683Y-61470321D02*
X97435760Y-61539967D01*
X97435760Y-61539967D02*
X97404288Y-61622263D01*
X97404288Y-61622263D02*
X97406970Y-61633837D01*
X97406970Y-61633837D02*
X97439059Y-61758759D01*
X97439059Y-61758759D02*
X97503060Y-62016231D01*
X97503060Y-62016231D02*
X97591078Y-62374213D01*
X97591078Y-62374213D02*
X97695220Y-62800665D01*
X97695220Y-62800665D02*
X97752192Y-63035000D01*
X97752192Y-63035000D02*
X97857130Y-63465205D01*
X97857130Y-63465205D02*
X97985984Y-63990142D01*
X97985984Y-63990142D02*
X98133651Y-64589303D01*
X98133651Y-64589303D02*
X98295028Y-65242183D01*
X98295028Y-65242183D02*
X98465009Y-65928277D01*
X98465009Y-65928277D02*
X98638492Y-66627079D01*
X98638492Y-66627079D02*
X98810373Y-67318083D01*
X98810373Y-67318083D02*
X98975548Y-67980785D01*
X98975548Y-67980785D02*
X99128912Y-68594677D01*
X99128912Y-68594677D02*
X99265364Y-69139255D01*
X99265364Y-69139255D02*
X99379798Y-69594013D01*
X99379798Y-69594013D02*
X99467110Y-69938445D01*
X99467110Y-69938445D02*
X99522198Y-70152047D01*
X99522198Y-70152047D02*
X99538149Y-70210500D01*
X99538149Y-70210500D02*
X99527071Y-70334189D01*
X99527071Y-70334189D02*
X99441283Y-70358667D01*
X99441283Y-70358667D02*
X99352132Y-70386683D01*
X99352132Y-70386683D02*
X99332697Y-70499737D01*
X99332697Y-70499737D02*
X99357930Y-70671965D01*
X99357930Y-70671965D02*
X99427539Y-70901951D01*
X99427539Y-70901951D02*
X99522270Y-71060299D01*
X99522270Y-71060299D02*
X99538187Y-71074132D01*
X99538187Y-71074132D02*
X99618290Y-71205445D01*
X99618290Y-71205445D02*
X99686084Y-71440119D01*
X99686084Y-71440119D02*
X99709823Y-71586628D01*
X99709823Y-71586628D02*
X99759977Y-72010257D01*
X99759977Y-72010257D02*
X97680191Y-74676667D01*
X97680191Y-74676667D02*
X94837263Y-74676194D01*
X94837263Y-74676194D02*
X94064050Y-74673428D01*
X94064050Y-74673428D02*
X93368349Y-74665720D01*
X93368349Y-74665720D02*
X92767625Y-74653553D01*
X92767625Y-74653553D02*
X92279343Y-74637410D01*
X92279343Y-74637410D02*
X91920968Y-74617774D01*
X91920968Y-74617774D02*
X91709965Y-74595129D01*
X91709965Y-74595129D02*
X91681712Y-74588895D01*
X91681712Y-74588895D02*
X91369348Y-74428800D01*
X91369348Y-74428800D02*
X91038989Y-74125225D01*
X91038989Y-74125225D02*
X91018880Y-74102534D01*
X91018880Y-74102534D02*
X90681315Y-73764946D01*
X90681315Y-73764946D02*
X90340695Y-73508032D01*
X90340695Y-73508032D02*
X90031772Y-73355116D01*
X90031772Y-73355116D02*
X89856500Y-73322434D01*
X89856500Y-73322434D02*
X89707801Y-73290198D01*
X89707801Y-73290198D02*
X89666000Y-73237333D01*
X89666000Y-73237333D02*
X89597085Y-73163029D01*
X89597085Y-73163029D02*
X89534004Y-73152667D01*
X89534004Y-73152667D02*
X89446369Y-73193712D01*
X89446369Y-73193712D02*
X89454334Y-73237333D01*
X89454334Y-73237333D02*
X89422616Y-73299112D01*
X89422616Y-73299112D02*
X89268831Y-73323859D01*
X89268831Y-73323859D02*
X88966818Y-73379415D01*
X88966818Y-73379415D02*
X88624293Y-73517716D01*
X88624293Y-73517716D02*
X88320902Y-73702196D01*
X88320902Y-73702196D02*
X88192378Y-73818042D01*
X88192378Y-73818042D02*
X88040570Y-73950849D01*
X88040570Y-73950849D02*
X87926270Y-73999333D01*
X87926270Y-73999333D02*
X87803824Y-74077005D01*
X87803824Y-74077005D02*
X87732174Y-74290891D01*
X87732174Y-74290891D02*
X87718667Y-74482291D01*
X87718667Y-74482291D02*
X87732877Y-74627591D01*
X87732877Y-74627591D02*
X87796002Y-74629190D01*
X87796002Y-74629190D02*
X87850489Y-74587998D01*
X87850489Y-74587998D02*
X87925134Y-74541894D01*
X87925134Y-74541894D02*
X87954059Y-74588733D01*
X87954059Y-74588733D02*
X87944145Y-74757764D01*
X87944145Y-74757764D02*
X87925493Y-74906914D01*
X87925493Y-74906914D02*
X87928509Y-75440387D01*
X87928509Y-75440387D02*
X88089441Y-75915759D01*
X88089441Y-75915759D02*
X88293490Y-76214330D01*
X88293490Y-76214330D02*
X88636487Y-76507341D01*
X88636487Y-76507341D02*
X89069383Y-76669073D01*
X89069383Y-76669073D02*
X89498152Y-76708667D01*
X89498152Y-76708667D02*
X89984079Y-76643698D01*
X89984079Y-76643698D02*
X90383320Y-76442147D01*
X90383320Y-76442147D02*
X90711076Y-76094045D01*
X90711076Y-76094045D02*
X90885938Y-75798500D01*
X90885938Y-75798500D02*
X90993931Y-75584834D01*
X90993931Y-75584834D02*
X90216334Y-75584834D01*
X90216334Y-75584834D02*
X90059325Y-75761020D01*
X90059325Y-75761020D02*
X89872190Y-75910261D01*
X89872190Y-75910261D02*
X89608722Y-75994753D01*
X89608722Y-75994753D02*
X89437151Y-76019803D01*
X89437151Y-76019803D02*
X89289973Y-75995404D01*
X89289973Y-75995404D02*
X89113301Y-75930183D01*
X89113301Y-75930183D02*
X88884719Y-75749480D01*
X88884719Y-75749480D02*
X88725262Y-75478862D01*
X88725262Y-75478862D02*
X88651595Y-75173468D01*
X88651595Y-75173468D02*
X88680387Y-74888439D01*
X88680387Y-74888439D02*
X88755834Y-74747569D01*
X88755834Y-74747569D02*
X88971272Y-74547291D01*
X88971272Y-74547291D02*
X89225820Y-74399735D01*
X89225820Y-74399735D02*
X89449113Y-74345524D01*
X89449113Y-74345524D02*
X89452006Y-74345636D01*
X89452006Y-74345636D02*
X89517057Y-74365751D01*
X89517057Y-74365751D02*
X89415648Y-74412493D01*
X89415648Y-74412493D02*
X89353827Y-74431343D01*
X89353827Y-74431343D02*
X89042387Y-74593217D01*
X89042387Y-74593217D02*
X88834145Y-74847575D01*
X88834145Y-74847575D02*
X88757550Y-75154398D01*
X88757550Y-75154398D02*
X88765734Y-75258641D01*
X88765734Y-75258641D02*
X88886573Y-75590719D01*
X88886573Y-75590719D02*
X89108561Y-75796361D01*
X89108561Y-75796361D02*
X89412092Y-75867843D01*
X89412092Y-75867843D02*
X89777560Y-75797441D01*
X89777560Y-75797441D02*
X89945372Y-75723417D01*
X89945372Y-75723417D02*
X90171039Y-75608000D01*
X90171039Y-75608000D02*
X89412000Y-75608000D01*
X89412000Y-75608000D02*
X89347571Y-75690206D01*
X89347571Y-75690206D02*
X89327334Y-75692667D01*
X89327334Y-75692667D02*
X89245127Y-75628237D01*
X89245127Y-75628237D02*
X89242667Y-75608000D01*
X89242667Y-75608000D02*
X89307096Y-75525793D01*
X89307096Y-75525793D02*
X89327334Y-75523333D01*
X89327334Y-75523333D02*
X89409540Y-75587762D01*
X89409540Y-75587762D02*
X89412000Y-75608000D01*
X89412000Y-75608000D02*
X90171039Y-75608000D01*
X90171039Y-75608000D02*
X90216334Y-75584834D01*
X90216334Y-75584834D02*
X90993931Y-75584834D01*
X90993931Y-75584834D02*
X91025016Y-75523333D01*
X91025016Y-75523333D02*
X91829270Y-75523333D01*
X91829270Y-75523333D02*
X92222338Y-75525508D01*
X92222338Y-75525508D02*
X92480909Y-75550323D01*
X92480909Y-75550323D02*
X92639756Y-75625210D01*
X92639756Y-75625210D02*
X92733646Y-75777602D01*
X92733646Y-75777602D02*
X92797352Y-76034934D01*
X92797352Y-76034934D02*
X92848716Y-76327667D01*
X92848716Y-76327667D02*
X92921845Y-76751000D01*
X92921845Y-76751000D02*
X92966089Y-76158333D01*
X92966089Y-76158333D02*
X93010334Y-75565667D01*
X93010334Y-75565667D02*
X95643905Y-75523333D01*
X95643905Y-75523333D02*
X98277476Y-75481000D01*
X98277476Y-75481000D02*
X98411780Y-75321330D01*
X98411780Y-75321330D02*
X89147768Y-75321330D01*
X89147768Y-75321330D02*
X89126845Y-75438225D01*
X89126845Y-75438225D02*
X89103858Y-75464587D01*
X89103858Y-75464587D02*
X88998316Y-75481710D01*
X88998316Y-75481710D02*
X88912742Y-75395896D01*
X88912742Y-75395896D02*
X88904000Y-75349003D01*
X88904000Y-75349003D02*
X88972652Y-75278297D01*
X88972652Y-75278297D02*
X89031000Y-75269333D01*
X89031000Y-75269333D02*
X89147768Y-75321330D01*
X89147768Y-75321330D02*
X98411780Y-75321330D01*
X98411780Y-75321330D02*
X98505123Y-75210358D01*
X98505123Y-75210358D02*
X98689401Y-75024916D01*
X98689401Y-75024916D02*
X98711901Y-75008983D01*
X98711901Y-75008983D02*
X89141773Y-75008983D01*
X89141773Y-75008983D02*
X89100902Y-75086186D01*
X89100902Y-75086186D02*
X89031000Y-75100000D01*
X89031000Y-75100000D02*
X88925627Y-75057040D01*
X88925627Y-75057040D02*
X88920228Y-75008983D01*
X88920228Y-75008983D02*
X89007637Y-74921509D01*
X89007637Y-74921509D02*
X89031000Y-74917967D01*
X89031000Y-74917967D02*
X89130275Y-74983881D01*
X89130275Y-74983881D02*
X89141773Y-75008983D01*
X89141773Y-75008983D02*
X98711901Y-75008983D01*
X98711901Y-75008983D02*
X98863136Y-74901891D01*
X98863136Y-74901891D02*
X98898386Y-74887153D01*
X98898386Y-74887153D02*
X99044596Y-74802538D01*
X99044596Y-74802538D02*
X99039591Y-74761333D01*
X99039591Y-74761333D02*
X89412000Y-74761333D01*
X89412000Y-74761333D02*
X89347571Y-74843540D01*
X89347571Y-74843540D02*
X89327334Y-74846000D01*
X89327334Y-74846000D02*
X89245127Y-74781571D01*
X89245127Y-74781571D02*
X89242667Y-74761333D01*
X89242667Y-74761333D02*
X89307096Y-74679127D01*
X89307096Y-74679127D02*
X89327334Y-74676667D01*
X89327334Y-74676667D02*
X89409540Y-74741096D01*
X89409540Y-74741096D02*
X89412000Y-74761333D01*
X89412000Y-74761333D02*
X99039591Y-74761333D01*
X99039591Y-74761333D02*
X99034488Y-74719334D01*
X99034488Y-74719334D02*
X98876720Y-74677112D01*
X98876720Y-74677112D02*
X98852334Y-74676667D01*
X98852334Y-74676667D02*
X98693309Y-74654905D01*
X98693309Y-74654905D02*
X98641139Y-74613167D01*
X98641139Y-74613167D02*
X98691406Y-74523604D01*
X98691406Y-74523604D02*
X98825450Y-74335320D01*
X98825450Y-74335320D02*
X99018798Y-74079809D01*
X99018798Y-74079809D02*
X99246976Y-73788563D01*
X99246976Y-73788563D02*
X99485511Y-73493074D01*
X99485511Y-73493074D02*
X99709930Y-73224837D01*
X99709930Y-73224837D02*
X99804680Y-73115883D01*
X99804680Y-73115883D02*
X100024470Y-72867432D01*
X100024470Y-72867432D02*
X100137238Y-73193157D01*
X100137238Y-73193157D02*
X100202780Y-73399076D01*
X100202780Y-73399076D02*
X100230407Y-73520417D01*
X100230407Y-73520417D02*
X100228504Y-73532526D01*
X100228504Y-73532526D02*
X99791375Y-73884511D01*
X99791375Y-73884511D02*
X99467562Y-74301478D01*
X99467562Y-74301478D02*
X99277229Y-74752070D01*
X99277229Y-74752070D02*
X99234161Y-75078833D01*
X99234161Y-75078833D02*
X99260635Y-75250105D01*
X99260635Y-75250105D02*
X99319928Y-75352290D01*
X99319928Y-75352290D02*
X99380083Y-75354327D01*
X99380083Y-75354327D02*
X99408382Y-75248167D01*
X99408382Y-75248167D02*
X99430415Y-75258974D01*
X99430415Y-75258974D02*
X99480850Y-75400420D01*
X99480850Y-75400420D02*
X99523285Y-75548408D01*
X99523285Y-75548408D02*
X99717901Y-75990163D01*
X99717901Y-75990163D02*
X100026677Y-76355441D01*
X100026677Y-76355441D02*
X100394781Y-76592094D01*
X100394781Y-76592094D02*
X100671920Y-76666373D01*
X100671920Y-76666373D02*
X101018283Y-76700430D01*
X101018283Y-76700430D02*
X101365995Y-76693362D01*
X101365995Y-76693362D02*
X101647182Y-76644266D01*
X101647182Y-76644266D02*
X101731000Y-76609862D01*
X101731000Y-76609862D02*
X102150623Y-76292196D01*
X102150623Y-76292196D02*
X102437762Y-75894708D01*
X102437762Y-75894708D02*
X102588898Y-75446445D01*
X102588898Y-75446445D02*
X102600513Y-74976453D01*
X102600513Y-74976453D02*
X102469087Y-74513778D01*
X102469087Y-74513778D02*
X102191103Y-74087467D01*
X102191103Y-74087467D02*
X102053523Y-73947619D01*
X102053523Y-73947619D02*
X101895458Y-73786803D01*
X101895458Y-73786803D02*
X101826715Y-73682677D01*
X101826715Y-73682677D02*
X101841455Y-73660667D01*
X101841455Y-73660667D02*
X101936502Y-73608437D01*
X101936502Y-73608437D02*
X101942667Y-73581188D01*
X101942667Y-73581188D02*
X101867241Y-73522778D01*
X101867241Y-73522778D02*
X101676108Y-73465616D01*
X101676108Y-73465616D02*
X101557472Y-73443945D01*
X101557472Y-73443945D02*
X101300527Y-73386389D01*
X101300527Y-73386389D02*
X101107695Y-73309590D01*
X101107695Y-73309590D02*
X101064762Y-73278666D01*
X101064762Y-73278666D02*
X101010874Y-73164664D01*
X101010874Y-73164664D02*
X100927346Y-72914251D01*
X100927346Y-72914251D02*
X100822586Y-72556021D01*
X100822586Y-72556021D02*
X100704999Y-72118567D01*
X100704999Y-72118567D02*
X100596167Y-71684923D01*
X100596167Y-71684923D02*
X100476320Y-71208014D01*
X100476320Y-71208014D02*
X100364076Y-70791524D01*
X100364076Y-70791524D02*
X100267239Y-70462109D01*
X100267239Y-70462109D02*
X100193612Y-70246426D01*
X100193612Y-70246426D02*
X100153030Y-70171343D01*
X100153030Y-70171343D02*
X100098856Y-70082456D01*
X100098856Y-70082456D02*
X100019729Y-69865518D01*
X100019729Y-69865518D02*
X99928213Y-69557606D01*
X99928213Y-69557606D02*
X99871725Y-69341162D01*
X99871725Y-69341162D02*
X99807513Y-69085361D01*
X99807513Y-69085361D02*
X99707563Y-68690882D01*
X99707563Y-68690882D02*
X99578356Y-68183032D01*
X99578356Y-68183032D02*
X99426370Y-67587119D01*
X99426370Y-67587119D02*
X99258085Y-66928451D01*
X99258085Y-66928451D02*
X99079983Y-66232335D01*
X99079983Y-66232335D02*
X98898542Y-65524079D01*
X98898542Y-65524079D02*
X98720243Y-64828991D01*
X98720243Y-64828991D02*
X98551565Y-64172378D01*
X98551565Y-64172378D02*
X98398988Y-63579549D01*
X98398988Y-63579549D02*
X98268993Y-63075810D01*
X98268993Y-63075810D02*
X98168059Y-62686470D01*
X98168059Y-62686470D02*
X98154101Y-62632882D01*
X98154101Y-62632882D02*
X98084547Y-62314888D01*
X98084547Y-62314888D02*
X98087778Y-62103170D01*
X98087778Y-62103170D02*
X98185800Y-61976466D01*
X98185800Y-61976466D02*
X98400622Y-61913516D01*
X98400622Y-61913516D02*
X98754251Y-61893057D01*
X98754251Y-61893057D02*
X98920999Y-61892000D01*
X98920999Y-61892000D02*
X99256986Y-61890580D01*
X99256986Y-61890580D02*
X99449089Y-61880757D01*
X99449089Y-61880757D02*
X99522757Y-61854191D01*
X99522757Y-61854191D02*
X99503438Y-61802538D01*
X99503438Y-61802538D02*
X99426179Y-61726400D01*
X99426179Y-61726400D02*
X99275964Y-61518931D01*
X99275964Y-61518931D02*
X99191820Y-61303066D01*
X99191820Y-61303066D02*
X99120443Y-61105850D01*
X99120443Y-61105850D02*
X99035503Y-61048511D01*
X99035503Y-61048511D02*
X98957665Y-61144310D01*
X98957665Y-61144310D02*
X98957665Y-61144310D01*
G36*
X98505123Y-75210358D02*
G01*
X98411780Y-75321330D01*
X98277476Y-75481000D01*
X95643905Y-75523333D01*
X93010334Y-75565667D01*
X92966089Y-76158333D01*
X92921845Y-76751000D01*
X92848716Y-76327667D01*
X92797352Y-76034934D01*
X92733646Y-75777602D01*
X92639756Y-75625210D01*
X92480909Y-75550323D01*
X92222338Y-75525508D01*
X91829270Y-75523333D01*
X91025016Y-75523333D01*
X90993931Y-75584834D01*
X90885938Y-75798500D01*
X90711076Y-76094045D01*
X90383320Y-76442147D01*
X89984079Y-76643698D01*
X89498152Y-76708667D01*
X89069383Y-76669073D01*
X88636487Y-76507341D01*
X88293490Y-76214330D01*
X88089441Y-75915759D01*
X87928509Y-75440387D01*
X87927000Y-75173468D01*
X88651595Y-75173468D01*
X88725262Y-75478862D01*
X88884719Y-75749480D01*
X89113301Y-75930183D01*
X89289973Y-75995404D01*
X89437151Y-76019803D01*
X89608722Y-75994753D01*
X89872190Y-75910261D01*
X90059325Y-75761020D01*
X90216334Y-75584834D01*
X90171039Y-75608000D01*
X89945372Y-75723417D01*
X89777560Y-75797441D01*
X89412092Y-75867843D01*
X89108561Y-75796361D01*
X88905228Y-75608000D01*
X89242667Y-75608000D01*
X89245127Y-75628237D01*
X89327334Y-75692667D01*
X89347571Y-75690206D01*
X89412000Y-75608000D01*
X89409540Y-75587762D01*
X89327334Y-75523333D01*
X89307096Y-75525793D01*
X89242667Y-75608000D01*
X88905228Y-75608000D01*
X88886573Y-75590719D01*
X88798616Y-75349003D01*
X88904000Y-75349003D01*
X88912742Y-75395896D01*
X88998316Y-75481710D01*
X89103858Y-75464587D01*
X89126845Y-75438225D01*
X89147768Y-75321330D01*
X89031000Y-75269333D01*
X88972652Y-75278297D01*
X88904000Y-75349003D01*
X88798616Y-75349003D01*
X88765734Y-75258641D01*
X88757550Y-75154398D01*
X88793851Y-75008983D01*
X88920228Y-75008983D01*
X88925627Y-75057040D01*
X89031000Y-75100000D01*
X89100902Y-75086186D01*
X89141773Y-75008983D01*
X89130275Y-74983881D01*
X89031000Y-74917967D01*
X89007637Y-74921509D01*
X88920228Y-75008983D01*
X88793851Y-75008983D01*
X88834145Y-74847575D01*
X88904751Y-74761333D01*
X89242667Y-74761333D01*
X89245127Y-74781571D01*
X89327334Y-74846000D01*
X89347571Y-74843540D01*
X89412000Y-74761333D01*
X89409540Y-74741096D01*
X89327334Y-74676667D01*
X89307096Y-74679127D01*
X89242667Y-74761333D01*
X88904751Y-74761333D01*
X89042387Y-74593217D01*
X89353827Y-74431343D01*
X89415648Y-74412493D01*
X89517057Y-74365751D01*
X89452006Y-74345636D01*
X89449113Y-74345524D01*
X89225820Y-74399735D01*
X88971272Y-74547291D01*
X88755834Y-74747569D01*
X88680387Y-74888439D01*
X88651595Y-75173468D01*
X87927000Y-75173468D01*
X87925493Y-74906914D01*
X87944145Y-74757764D01*
X87954059Y-74588733D01*
X87925134Y-74541894D01*
X87850489Y-74587998D01*
X87796002Y-74629190D01*
X87732877Y-74627591D01*
X87718667Y-74482291D01*
X87732174Y-74290891D01*
X87803824Y-74077005D01*
X87926270Y-73999333D01*
X88040570Y-73950849D01*
X88192378Y-73818042D01*
X88320902Y-73702196D01*
X88624293Y-73517716D01*
X88966818Y-73379415D01*
X89268831Y-73323859D01*
X89422616Y-73299112D01*
X89454334Y-73237333D01*
X89446369Y-73193712D01*
X89534004Y-73152667D01*
X89597085Y-73163029D01*
X89666000Y-73237333D01*
X89707801Y-73290198D01*
X89856500Y-73322434D01*
X90031772Y-73355116D01*
X90340695Y-73508032D01*
X90681315Y-73764946D01*
X91018880Y-74102534D01*
X91038989Y-74125225D01*
X91369348Y-74428800D01*
X91681712Y-74588895D01*
X91709965Y-74595129D01*
X91920968Y-74617774D01*
X92279343Y-74637410D01*
X92767625Y-74653553D01*
X93368349Y-74665720D01*
X94064050Y-74673428D01*
X94837263Y-74676194D01*
X97680191Y-74676667D01*
X99759977Y-72010257D01*
X99709823Y-71586628D01*
X99686084Y-71440119D01*
X99618290Y-71205445D01*
X99538187Y-71074132D01*
X99522270Y-71060299D01*
X99427539Y-70901951D01*
X99357930Y-70671965D01*
X99332697Y-70499737D01*
X99352132Y-70386683D01*
X99441283Y-70358667D01*
X99527071Y-70334189D01*
X99538149Y-70210500D01*
X99522198Y-70152047D01*
X99467110Y-69938445D01*
X99379798Y-69594013D01*
X99265364Y-69139255D01*
X99128912Y-68594677D01*
X98975548Y-67980785D01*
X98810373Y-67318083D01*
X98638492Y-66627079D01*
X98465009Y-65928277D01*
X98295028Y-65242183D01*
X98133651Y-64589303D01*
X97985984Y-63990142D01*
X97857130Y-63465205D01*
X97752192Y-63035000D01*
X97695220Y-62800665D01*
X97591078Y-62374213D01*
X97503060Y-62016231D01*
X97439059Y-61758759D01*
X97406970Y-61633837D01*
X97404288Y-61622263D01*
X97435760Y-61539967D01*
X97581683Y-61470321D01*
X97869171Y-61399582D01*
X98093407Y-61343424D01*
X98335481Y-61256786D01*
X98469367Y-61174703D01*
X98478107Y-61164417D01*
X98589211Y-61097037D01*
X98743616Y-61154958D01*
X98758852Y-61163813D01*
X98892780Y-61214247D01*
X98955118Y-61151167D01*
X98957665Y-61144310D01*
X99035503Y-61048511D01*
X99120443Y-61105850D01*
X99191820Y-61303066D01*
X99275964Y-61518931D01*
X99426179Y-61726400D01*
X99503438Y-61802538D01*
X99522757Y-61854191D01*
X99449089Y-61880757D01*
X99256986Y-61890580D01*
X98920999Y-61892000D01*
X98754251Y-61893057D01*
X98400622Y-61913516D01*
X98185800Y-61976466D01*
X98087778Y-62103170D01*
X98084547Y-62314888D01*
X98154101Y-62632882D01*
X98168059Y-62686470D01*
X98268993Y-63075810D01*
X98398988Y-63579549D01*
X98551565Y-64172378D01*
X98720243Y-64828991D01*
X98898542Y-65524079D01*
X99079983Y-66232335D01*
X99258085Y-66928451D01*
X99426370Y-67587119D01*
X99578356Y-68183032D01*
X99707563Y-68690882D01*
X99807513Y-69085361D01*
X99871725Y-69341162D01*
X99928213Y-69557606D01*
X100019729Y-69865518D01*
X100098856Y-70082456D01*
X100153030Y-70171343D01*
X100193612Y-70246426D01*
X100267239Y-70462109D01*
X100364076Y-70791524D01*
X100476320Y-71208014D01*
X100596167Y-71684923D01*
X100704999Y-72118567D01*
X100822586Y-72556021D01*
X100927346Y-72914251D01*
X101010874Y-73164664D01*
X101064762Y-73278666D01*
X101107695Y-73309590D01*
X101300527Y-73386389D01*
X101557472Y-73443945D01*
X101676108Y-73465616D01*
X101867241Y-73522778D01*
X101942667Y-73581188D01*
X101936502Y-73608437D01*
X101841455Y-73660667D01*
X101826715Y-73682677D01*
X101895458Y-73786803D01*
X102053523Y-73947619D01*
X102191103Y-74087467D01*
X102469087Y-74513778D01*
X102600513Y-74976453D01*
X102588898Y-75446445D01*
X102437762Y-75894708D01*
X102150623Y-76292196D01*
X101731000Y-76609862D01*
X101647182Y-76644266D01*
X101365995Y-76693362D01*
X101018283Y-76700430D01*
X100671920Y-76666373D01*
X100394781Y-76592094D01*
X100026677Y-76355441D01*
X99717901Y-75990163D01*
X99523285Y-75548408D01*
X99480850Y-75400420D01*
X99430415Y-75258974D01*
X99408382Y-75248167D01*
X99380083Y-75354327D01*
X99319928Y-75352290D01*
X99260635Y-75250105D01*
X99234161Y-75078833D01*
X99277229Y-74752070D01*
X99467562Y-74301478D01*
X99791375Y-73884511D01*
X100228504Y-73532526D01*
X100230407Y-73520417D01*
X100202780Y-73399076D01*
X100137238Y-73193157D01*
X100024470Y-72867432D01*
X99804680Y-73115883D01*
X99709930Y-73224837D01*
X99485511Y-73493074D01*
X99246976Y-73788563D01*
X99018798Y-74079809D01*
X98825450Y-74335320D01*
X98691406Y-74523604D01*
X98641139Y-74613167D01*
X98693309Y-74654905D01*
X98852334Y-74676667D01*
X98876720Y-74677112D01*
X99034488Y-74719334D01*
X99039591Y-74761333D01*
X99044596Y-74802538D01*
X98898386Y-74887153D01*
X98863136Y-74901891D01*
X98711901Y-75008983D01*
X98689401Y-75024916D01*
X98505123Y-75210358D01*
G37*
X98505123Y-75210358D02*
X98411780Y-75321330D01*
X98277476Y-75481000D01*
X95643905Y-75523333D01*
X93010334Y-75565667D01*
X92966089Y-76158333D01*
X92921845Y-76751000D01*
X92848716Y-76327667D01*
X92797352Y-76034934D01*
X92733646Y-75777602D01*
X92639756Y-75625210D01*
X92480909Y-75550323D01*
X92222338Y-75525508D01*
X91829270Y-75523333D01*
X91025016Y-75523333D01*
X90993931Y-75584834D01*
X90885938Y-75798500D01*
X90711076Y-76094045D01*
X90383320Y-76442147D01*
X89984079Y-76643698D01*
X89498152Y-76708667D01*
X89069383Y-76669073D01*
X88636487Y-76507341D01*
X88293490Y-76214330D01*
X88089441Y-75915759D01*
X87928509Y-75440387D01*
X87927000Y-75173468D01*
X88651595Y-75173468D01*
X88725262Y-75478862D01*
X88884719Y-75749480D01*
X89113301Y-75930183D01*
X89289973Y-75995404D01*
X89437151Y-76019803D01*
X89608722Y-75994753D01*
X89872190Y-75910261D01*
X90059325Y-75761020D01*
X90216334Y-75584834D01*
X90171039Y-75608000D01*
X89945372Y-75723417D01*
X89777560Y-75797441D01*
X89412092Y-75867843D01*
X89108561Y-75796361D01*
X88905228Y-75608000D01*
X89242667Y-75608000D01*
X89245127Y-75628237D01*
X89327334Y-75692667D01*
X89347571Y-75690206D01*
X89412000Y-75608000D01*
X89409540Y-75587762D01*
X89327334Y-75523333D01*
X89307096Y-75525793D01*
X89242667Y-75608000D01*
X88905228Y-75608000D01*
X88886573Y-75590719D01*
X88798616Y-75349003D01*
X88904000Y-75349003D01*
X88912742Y-75395896D01*
X88998316Y-75481710D01*
X89103858Y-75464587D01*
X89126845Y-75438225D01*
X89147768Y-75321330D01*
X89031000Y-75269333D01*
X88972652Y-75278297D01*
X88904000Y-75349003D01*
X88798616Y-75349003D01*
X88765734Y-75258641D01*
X88757550Y-75154398D01*
X88793851Y-75008983D01*
X88920228Y-75008983D01*
X88925627Y-75057040D01*
X89031000Y-75100000D01*
X89100902Y-75086186D01*
X89141773Y-75008983D01*
X89130275Y-74983881D01*
X89031000Y-74917967D01*
X89007637Y-74921509D01*
X88920228Y-75008983D01*
X88793851Y-75008983D01*
X88834145Y-74847575D01*
X88904751Y-74761333D01*
X89242667Y-74761333D01*
X89245127Y-74781571D01*
X89327334Y-74846000D01*
X89347571Y-74843540D01*
X89412000Y-74761333D01*
X89409540Y-74741096D01*
X89327334Y-74676667D01*
X89307096Y-74679127D01*
X89242667Y-74761333D01*
X88904751Y-74761333D01*
X89042387Y-74593217D01*
X89353827Y-74431343D01*
X89415648Y-74412493D01*
X89517057Y-74365751D01*
X89452006Y-74345636D01*
X89449113Y-74345524D01*
X89225820Y-74399735D01*
X88971272Y-74547291D01*
X88755834Y-74747569D01*
X88680387Y-74888439D01*
X88651595Y-75173468D01*
X87927000Y-75173468D01*
X87925493Y-74906914D01*
X87944145Y-74757764D01*
X87954059Y-74588733D01*
X87925134Y-74541894D01*
X87850489Y-74587998D01*
X87796002Y-74629190D01*
X87732877Y-74627591D01*
X87718667Y-74482291D01*
X87732174Y-74290891D01*
X87803824Y-74077005D01*
X87926270Y-73999333D01*
X88040570Y-73950849D01*
X88192378Y-73818042D01*
X88320902Y-73702196D01*
X88624293Y-73517716D01*
X88966818Y-73379415D01*
X89268831Y-73323859D01*
X89422616Y-73299112D01*
X89454334Y-73237333D01*
X89446369Y-73193712D01*
X89534004Y-73152667D01*
X89597085Y-73163029D01*
X89666000Y-73237333D01*
X89707801Y-73290198D01*
X89856500Y-73322434D01*
X90031772Y-73355116D01*
X90340695Y-73508032D01*
X90681315Y-73764946D01*
X91018880Y-74102534D01*
X91038989Y-74125225D01*
X91369348Y-74428800D01*
X91681712Y-74588895D01*
X91709965Y-74595129D01*
X91920968Y-74617774D01*
X92279343Y-74637410D01*
X92767625Y-74653553D01*
X93368349Y-74665720D01*
X94064050Y-74673428D01*
X94837263Y-74676194D01*
X97680191Y-74676667D01*
X99759977Y-72010257D01*
X99709823Y-71586628D01*
X99686084Y-71440119D01*
X99618290Y-71205445D01*
X99538187Y-71074132D01*
X99522270Y-71060299D01*
X99427539Y-70901951D01*
X99357930Y-70671965D01*
X99332697Y-70499737D01*
X99352132Y-70386683D01*
X99441283Y-70358667D01*
X99527071Y-70334189D01*
X99538149Y-70210500D01*
X99522198Y-70152047D01*
X99467110Y-69938445D01*
X99379798Y-69594013D01*
X99265364Y-69139255D01*
X99128912Y-68594677D01*
X98975548Y-67980785D01*
X98810373Y-67318083D01*
X98638492Y-66627079D01*
X98465009Y-65928277D01*
X98295028Y-65242183D01*
X98133651Y-64589303D01*
X97985984Y-63990142D01*
X97857130Y-63465205D01*
X97752192Y-63035000D01*
X97695220Y-62800665D01*
X97591078Y-62374213D01*
X97503060Y-62016231D01*
X97439059Y-61758759D01*
X97406970Y-61633837D01*
X97404288Y-61622263D01*
X97435760Y-61539967D01*
X97581683Y-61470321D01*
X97869171Y-61399582D01*
X98093407Y-61343424D01*
X98335481Y-61256786D01*
X98469367Y-61174703D01*
X98478107Y-61164417D01*
X98589211Y-61097037D01*
X98743616Y-61154958D01*
X98758852Y-61163813D01*
X98892780Y-61214247D01*
X98955118Y-61151167D01*
X98957665Y-61144310D01*
X99035503Y-61048511D01*
X99120443Y-61105850D01*
X99191820Y-61303066D01*
X99275964Y-61518931D01*
X99426179Y-61726400D01*
X99503438Y-61802538D01*
X99522757Y-61854191D01*
X99449089Y-61880757D01*
X99256986Y-61890580D01*
X98920999Y-61892000D01*
X98754251Y-61893057D01*
X98400622Y-61913516D01*
X98185800Y-61976466D01*
X98087778Y-62103170D01*
X98084547Y-62314888D01*
X98154101Y-62632882D01*
X98168059Y-62686470D01*
X98268993Y-63075810D01*
X98398988Y-63579549D01*
X98551565Y-64172378D01*
X98720243Y-64828991D01*
X98898542Y-65524079D01*
X99079983Y-66232335D01*
X99258085Y-66928451D01*
X99426370Y-67587119D01*
X99578356Y-68183032D01*
X99707563Y-68690882D01*
X99807513Y-69085361D01*
X99871725Y-69341162D01*
X99928213Y-69557606D01*
X100019729Y-69865518D01*
X100098856Y-70082456D01*
X100153030Y-70171343D01*
X100193612Y-70246426D01*
X100267239Y-70462109D01*
X100364076Y-70791524D01*
X100476320Y-71208014D01*
X100596167Y-71684923D01*
X100704999Y-72118567D01*
X100822586Y-72556021D01*
X100927346Y-72914251D01*
X101010874Y-73164664D01*
X101064762Y-73278666D01*
X101107695Y-73309590D01*
X101300527Y-73386389D01*
X101557472Y-73443945D01*
X101676108Y-73465616D01*
X101867241Y-73522778D01*
X101942667Y-73581188D01*
X101936502Y-73608437D01*
X101841455Y-73660667D01*
X101826715Y-73682677D01*
X101895458Y-73786803D01*
X102053523Y-73947619D01*
X102191103Y-74087467D01*
X102469087Y-74513778D01*
X102600513Y-74976453D01*
X102588898Y-75446445D01*
X102437762Y-75894708D01*
X102150623Y-76292196D01*
X101731000Y-76609862D01*
X101647182Y-76644266D01*
X101365995Y-76693362D01*
X101018283Y-76700430D01*
X100671920Y-76666373D01*
X100394781Y-76592094D01*
X100026677Y-76355441D01*
X99717901Y-75990163D01*
X99523285Y-75548408D01*
X99480850Y-75400420D01*
X99430415Y-75258974D01*
X99408382Y-75248167D01*
X99380083Y-75354327D01*
X99319928Y-75352290D01*
X99260635Y-75250105D01*
X99234161Y-75078833D01*
X99277229Y-74752070D01*
X99467562Y-74301478D01*
X99791375Y-73884511D01*
X100228504Y-73532526D01*
X100230407Y-73520417D01*
X100202780Y-73399076D01*
X100137238Y-73193157D01*
X100024470Y-72867432D01*
X99804680Y-73115883D01*
X99709930Y-73224837D01*
X99485511Y-73493074D01*
X99246976Y-73788563D01*
X99018798Y-74079809D01*
X98825450Y-74335320D01*
X98691406Y-74523604D01*
X98641139Y-74613167D01*
X98693309Y-74654905D01*
X98852334Y-74676667D01*
X98876720Y-74677112D01*
X99034488Y-74719334D01*
X99039591Y-74761333D01*
X99044596Y-74802538D01*
X98898386Y-74887153D01*
X98863136Y-74901891D01*
X98711901Y-75008983D01*
X98689401Y-75024916D01*
X98505123Y-75210358D01*
%TO.C,G\u002A\u002A\u002A4*%
X98957665Y-127744310D02*
X98955118Y-127751167D01*
X98955118Y-127751167D02*
X98892780Y-127814247D01*
X98892780Y-127814247D02*
X98758852Y-127763813D01*
X98758852Y-127763813D02*
X98743616Y-127754958D01*
X98743616Y-127754958D02*
X98589211Y-127697037D01*
X98589211Y-127697037D02*
X98478107Y-127764417D01*
X98478107Y-127764417D02*
X98469367Y-127774703D01*
X98469367Y-127774703D02*
X98335481Y-127856786D01*
X98335481Y-127856786D02*
X98093407Y-127943424D01*
X98093407Y-127943424D02*
X97869171Y-127999582D01*
X97869171Y-127999582D02*
X97581683Y-128070321D01*
X97581683Y-128070321D02*
X97435760Y-128139967D01*
X97435760Y-128139967D02*
X97404288Y-128222263D01*
X97404288Y-128222263D02*
X97406970Y-128233837D01*
X97406970Y-128233837D02*
X97439059Y-128358759D01*
X97439059Y-128358759D02*
X97503060Y-128616231D01*
X97503060Y-128616231D02*
X97591078Y-128974213D01*
X97591078Y-128974213D02*
X97695220Y-129400665D01*
X97695220Y-129400665D02*
X97752192Y-129635000D01*
X97752192Y-129635000D02*
X97857130Y-130065205D01*
X97857130Y-130065205D02*
X97985984Y-130590142D01*
X97985984Y-130590142D02*
X98133651Y-131189303D01*
X98133651Y-131189303D02*
X98295028Y-131842183D01*
X98295028Y-131842183D02*
X98465009Y-132528277D01*
X98465009Y-132528277D02*
X98638492Y-133227079D01*
X98638492Y-133227079D02*
X98810373Y-133918083D01*
X98810373Y-133918083D02*
X98975548Y-134580785D01*
X98975548Y-134580785D02*
X99128912Y-135194677D01*
X99128912Y-135194677D02*
X99265364Y-135739255D01*
X99265364Y-135739255D02*
X99379798Y-136194013D01*
X99379798Y-136194013D02*
X99467110Y-136538445D01*
X99467110Y-136538445D02*
X99522198Y-136752047D01*
X99522198Y-136752047D02*
X99538149Y-136810500D01*
X99538149Y-136810500D02*
X99527071Y-136934189D01*
X99527071Y-136934189D02*
X99441283Y-136958667D01*
X99441283Y-136958667D02*
X99352132Y-136986683D01*
X99352132Y-136986683D02*
X99332697Y-137099737D01*
X99332697Y-137099737D02*
X99357930Y-137271965D01*
X99357930Y-137271965D02*
X99427539Y-137501951D01*
X99427539Y-137501951D02*
X99522270Y-137660299D01*
X99522270Y-137660299D02*
X99538187Y-137674132D01*
X99538187Y-137674132D02*
X99618290Y-137805445D01*
X99618290Y-137805445D02*
X99686084Y-138040119D01*
X99686084Y-138040119D02*
X99709823Y-138186628D01*
X99709823Y-138186628D02*
X99759977Y-138610257D01*
X99759977Y-138610257D02*
X97680191Y-141276667D01*
X97680191Y-141276667D02*
X94837263Y-141276194D01*
X94837263Y-141276194D02*
X94064050Y-141273428D01*
X94064050Y-141273428D02*
X93368349Y-141265720D01*
X93368349Y-141265720D02*
X92767625Y-141253553D01*
X92767625Y-141253553D02*
X92279343Y-141237410D01*
X92279343Y-141237410D02*
X91920968Y-141217774D01*
X91920968Y-141217774D02*
X91709965Y-141195129D01*
X91709965Y-141195129D02*
X91681712Y-141188895D01*
X91681712Y-141188895D02*
X91369348Y-141028800D01*
X91369348Y-141028800D02*
X91038989Y-140725225D01*
X91038989Y-140725225D02*
X91018880Y-140702534D01*
X91018880Y-140702534D02*
X90681315Y-140364946D01*
X90681315Y-140364946D02*
X90340695Y-140108032D01*
X90340695Y-140108032D02*
X90031772Y-139955116D01*
X90031772Y-139955116D02*
X89856500Y-139922434D01*
X89856500Y-139922434D02*
X89707801Y-139890198D01*
X89707801Y-139890198D02*
X89666000Y-139837333D01*
X89666000Y-139837333D02*
X89597085Y-139763029D01*
X89597085Y-139763029D02*
X89534004Y-139752667D01*
X89534004Y-139752667D02*
X89446369Y-139793712D01*
X89446369Y-139793712D02*
X89454334Y-139837333D01*
X89454334Y-139837333D02*
X89422616Y-139899112D01*
X89422616Y-139899112D02*
X89268831Y-139923859D01*
X89268831Y-139923859D02*
X88966818Y-139979415D01*
X88966818Y-139979415D02*
X88624293Y-140117716D01*
X88624293Y-140117716D02*
X88320902Y-140302196D01*
X88320902Y-140302196D02*
X88192378Y-140418042D01*
X88192378Y-140418042D02*
X88040570Y-140550849D01*
X88040570Y-140550849D02*
X87926270Y-140599333D01*
X87926270Y-140599333D02*
X87803824Y-140677005D01*
X87803824Y-140677005D02*
X87732174Y-140890891D01*
X87732174Y-140890891D02*
X87718667Y-141082291D01*
X87718667Y-141082291D02*
X87732877Y-141227591D01*
X87732877Y-141227591D02*
X87796002Y-141229190D01*
X87796002Y-141229190D02*
X87850489Y-141187998D01*
X87850489Y-141187998D02*
X87925134Y-141141894D01*
X87925134Y-141141894D02*
X87954059Y-141188733D01*
X87954059Y-141188733D02*
X87944145Y-141357764D01*
X87944145Y-141357764D02*
X87925493Y-141506914D01*
X87925493Y-141506914D02*
X87928509Y-142040387D01*
X87928509Y-142040387D02*
X88089441Y-142515759D01*
X88089441Y-142515759D02*
X88293490Y-142814330D01*
X88293490Y-142814330D02*
X88636487Y-143107341D01*
X88636487Y-143107341D02*
X89069383Y-143269073D01*
X89069383Y-143269073D02*
X89498152Y-143308667D01*
X89498152Y-143308667D02*
X89984079Y-143243698D01*
X89984079Y-143243698D02*
X90383320Y-143042147D01*
X90383320Y-143042147D02*
X90711076Y-142694045D01*
X90711076Y-142694045D02*
X90885938Y-142398500D01*
X90885938Y-142398500D02*
X90993931Y-142184834D01*
X90993931Y-142184834D02*
X90216334Y-142184834D01*
X90216334Y-142184834D02*
X90059325Y-142361020D01*
X90059325Y-142361020D02*
X89872190Y-142510261D01*
X89872190Y-142510261D02*
X89608722Y-142594753D01*
X89608722Y-142594753D02*
X89437151Y-142619803D01*
X89437151Y-142619803D02*
X89289973Y-142595404D01*
X89289973Y-142595404D02*
X89113301Y-142530183D01*
X89113301Y-142530183D02*
X88884719Y-142349480D01*
X88884719Y-142349480D02*
X88725262Y-142078862D01*
X88725262Y-142078862D02*
X88651595Y-141773468D01*
X88651595Y-141773468D02*
X88680387Y-141488439D01*
X88680387Y-141488439D02*
X88755834Y-141347569D01*
X88755834Y-141347569D02*
X88971272Y-141147291D01*
X88971272Y-141147291D02*
X89225820Y-140999735D01*
X89225820Y-140999735D02*
X89449113Y-140945524D01*
X89449113Y-140945524D02*
X89452006Y-140945636D01*
X89452006Y-140945636D02*
X89517057Y-140965751D01*
X89517057Y-140965751D02*
X89415648Y-141012493D01*
X89415648Y-141012493D02*
X89353827Y-141031343D01*
X89353827Y-141031343D02*
X89042387Y-141193217D01*
X89042387Y-141193217D02*
X88834145Y-141447575D01*
X88834145Y-141447575D02*
X88757550Y-141754398D01*
X88757550Y-141754398D02*
X88765734Y-141858641D01*
X88765734Y-141858641D02*
X88886573Y-142190719D01*
X88886573Y-142190719D02*
X89108561Y-142396361D01*
X89108561Y-142396361D02*
X89412092Y-142467843D01*
X89412092Y-142467843D02*
X89777560Y-142397441D01*
X89777560Y-142397441D02*
X89945372Y-142323417D01*
X89945372Y-142323417D02*
X90171039Y-142208000D01*
X90171039Y-142208000D02*
X89412000Y-142208000D01*
X89412000Y-142208000D02*
X89347571Y-142290206D01*
X89347571Y-142290206D02*
X89327334Y-142292667D01*
X89327334Y-142292667D02*
X89245127Y-142228237D01*
X89245127Y-142228237D02*
X89242667Y-142208000D01*
X89242667Y-142208000D02*
X89307096Y-142125793D01*
X89307096Y-142125793D02*
X89327334Y-142123333D01*
X89327334Y-142123333D02*
X89409540Y-142187762D01*
X89409540Y-142187762D02*
X89412000Y-142208000D01*
X89412000Y-142208000D02*
X90171039Y-142208000D01*
X90171039Y-142208000D02*
X90216334Y-142184834D01*
X90216334Y-142184834D02*
X90993931Y-142184834D01*
X90993931Y-142184834D02*
X91025016Y-142123333D01*
X91025016Y-142123333D02*
X91829270Y-142123333D01*
X91829270Y-142123333D02*
X92222338Y-142125508D01*
X92222338Y-142125508D02*
X92480909Y-142150323D01*
X92480909Y-142150323D02*
X92639756Y-142225210D01*
X92639756Y-142225210D02*
X92733646Y-142377602D01*
X92733646Y-142377602D02*
X92797352Y-142634934D01*
X92797352Y-142634934D02*
X92848716Y-142927667D01*
X92848716Y-142927667D02*
X92921845Y-143351000D01*
X92921845Y-143351000D02*
X92966089Y-142758333D01*
X92966089Y-142758333D02*
X93010334Y-142165667D01*
X93010334Y-142165667D02*
X95643905Y-142123333D01*
X95643905Y-142123333D02*
X98277476Y-142081000D01*
X98277476Y-142081000D02*
X98411780Y-141921330D01*
X98411780Y-141921330D02*
X89147768Y-141921330D01*
X89147768Y-141921330D02*
X89126845Y-142038225D01*
X89126845Y-142038225D02*
X89103858Y-142064587D01*
X89103858Y-142064587D02*
X88998316Y-142081710D01*
X88998316Y-142081710D02*
X88912742Y-141995896D01*
X88912742Y-141995896D02*
X88904000Y-141949003D01*
X88904000Y-141949003D02*
X88972652Y-141878297D01*
X88972652Y-141878297D02*
X89031000Y-141869333D01*
X89031000Y-141869333D02*
X89147768Y-141921330D01*
X89147768Y-141921330D02*
X98411780Y-141921330D01*
X98411780Y-141921330D02*
X98505123Y-141810358D01*
X98505123Y-141810358D02*
X98689401Y-141624916D01*
X98689401Y-141624916D02*
X98711901Y-141608983D01*
X98711901Y-141608983D02*
X89141773Y-141608983D01*
X89141773Y-141608983D02*
X89100902Y-141686186D01*
X89100902Y-141686186D02*
X89031000Y-141700000D01*
X89031000Y-141700000D02*
X88925627Y-141657040D01*
X88925627Y-141657040D02*
X88920228Y-141608983D01*
X88920228Y-141608983D02*
X89007637Y-141521509D01*
X89007637Y-141521509D02*
X89031000Y-141517967D01*
X89031000Y-141517967D02*
X89130275Y-141583881D01*
X89130275Y-141583881D02*
X89141773Y-141608983D01*
X89141773Y-141608983D02*
X98711901Y-141608983D01*
X98711901Y-141608983D02*
X98863136Y-141501891D01*
X98863136Y-141501891D02*
X98898386Y-141487153D01*
X98898386Y-141487153D02*
X99044596Y-141402538D01*
X99044596Y-141402538D02*
X99039591Y-141361333D01*
X99039591Y-141361333D02*
X89412000Y-141361333D01*
X89412000Y-141361333D02*
X89347571Y-141443540D01*
X89347571Y-141443540D02*
X89327334Y-141446000D01*
X89327334Y-141446000D02*
X89245127Y-141381571D01*
X89245127Y-141381571D02*
X89242667Y-141361333D01*
X89242667Y-141361333D02*
X89307096Y-141279127D01*
X89307096Y-141279127D02*
X89327334Y-141276667D01*
X89327334Y-141276667D02*
X89409540Y-141341096D01*
X89409540Y-141341096D02*
X89412000Y-141361333D01*
X89412000Y-141361333D02*
X99039591Y-141361333D01*
X99039591Y-141361333D02*
X99034488Y-141319334D01*
X99034488Y-141319334D02*
X98876720Y-141277112D01*
X98876720Y-141277112D02*
X98852334Y-141276667D01*
X98852334Y-141276667D02*
X98693309Y-141254905D01*
X98693309Y-141254905D02*
X98641139Y-141213167D01*
X98641139Y-141213167D02*
X98691406Y-141123604D01*
X98691406Y-141123604D02*
X98825450Y-140935320D01*
X98825450Y-140935320D02*
X99018798Y-140679809D01*
X99018798Y-140679809D02*
X99246976Y-140388563D01*
X99246976Y-140388563D02*
X99485511Y-140093074D01*
X99485511Y-140093074D02*
X99709930Y-139824837D01*
X99709930Y-139824837D02*
X99804680Y-139715883D01*
X99804680Y-139715883D02*
X100024470Y-139467432D01*
X100024470Y-139467432D02*
X100137238Y-139793157D01*
X100137238Y-139793157D02*
X100202780Y-139999076D01*
X100202780Y-139999076D02*
X100230407Y-140120417D01*
X100230407Y-140120417D02*
X100228504Y-140132526D01*
X100228504Y-140132526D02*
X99791375Y-140484511D01*
X99791375Y-140484511D02*
X99467562Y-140901478D01*
X99467562Y-140901478D02*
X99277229Y-141352070D01*
X99277229Y-141352070D02*
X99234161Y-141678833D01*
X99234161Y-141678833D02*
X99260635Y-141850105D01*
X99260635Y-141850105D02*
X99319928Y-141952290D01*
X99319928Y-141952290D02*
X99380083Y-141954327D01*
X99380083Y-141954327D02*
X99408382Y-141848167D01*
X99408382Y-141848167D02*
X99430415Y-141858974D01*
X99430415Y-141858974D02*
X99480850Y-142000420D01*
X99480850Y-142000420D02*
X99523285Y-142148408D01*
X99523285Y-142148408D02*
X99717901Y-142590163D01*
X99717901Y-142590163D02*
X100026677Y-142955441D01*
X100026677Y-142955441D02*
X100394781Y-143192094D01*
X100394781Y-143192094D02*
X100671920Y-143266373D01*
X100671920Y-143266373D02*
X101018283Y-143300430D01*
X101018283Y-143300430D02*
X101365995Y-143293362D01*
X101365995Y-143293362D02*
X101647182Y-143244266D01*
X101647182Y-143244266D02*
X101731000Y-143209862D01*
X101731000Y-143209862D02*
X102150623Y-142892196D01*
X102150623Y-142892196D02*
X102437762Y-142494708D01*
X102437762Y-142494708D02*
X102588898Y-142046445D01*
X102588898Y-142046445D02*
X102600513Y-141576453D01*
X102600513Y-141576453D02*
X102469087Y-141113778D01*
X102469087Y-141113778D02*
X102191103Y-140687467D01*
X102191103Y-140687467D02*
X102053523Y-140547619D01*
X102053523Y-140547619D02*
X101895458Y-140386803D01*
X101895458Y-140386803D02*
X101826715Y-140282677D01*
X101826715Y-140282677D02*
X101841455Y-140260667D01*
X101841455Y-140260667D02*
X101936502Y-140208437D01*
X101936502Y-140208437D02*
X101942667Y-140181188D01*
X101942667Y-140181188D02*
X101867241Y-140122778D01*
X101867241Y-140122778D02*
X101676108Y-140065616D01*
X101676108Y-140065616D02*
X101557472Y-140043945D01*
X101557472Y-140043945D02*
X101300527Y-139986389D01*
X101300527Y-139986389D02*
X101107695Y-139909590D01*
X101107695Y-139909590D02*
X101064762Y-139878666D01*
X101064762Y-139878666D02*
X101010874Y-139764664D01*
X101010874Y-139764664D02*
X100927346Y-139514251D01*
X100927346Y-139514251D02*
X100822586Y-139156021D01*
X100822586Y-139156021D02*
X100704999Y-138718567D01*
X100704999Y-138718567D02*
X100596167Y-138284923D01*
X100596167Y-138284923D02*
X100476320Y-137808014D01*
X100476320Y-137808014D02*
X100364076Y-137391524D01*
X100364076Y-137391524D02*
X100267239Y-137062109D01*
X100267239Y-137062109D02*
X100193612Y-136846426D01*
X100193612Y-136846426D02*
X100153030Y-136771343D01*
X100153030Y-136771343D02*
X100098856Y-136682456D01*
X100098856Y-136682456D02*
X100019729Y-136465518D01*
X100019729Y-136465518D02*
X99928213Y-136157606D01*
X99928213Y-136157606D02*
X99871725Y-135941162D01*
X99871725Y-135941162D02*
X99807513Y-135685361D01*
X99807513Y-135685361D02*
X99707563Y-135290882D01*
X99707563Y-135290882D02*
X99578356Y-134783032D01*
X99578356Y-134783032D02*
X99426370Y-134187119D01*
X99426370Y-134187119D02*
X99258085Y-133528451D01*
X99258085Y-133528451D02*
X99079983Y-132832335D01*
X99079983Y-132832335D02*
X98898542Y-132124079D01*
X98898542Y-132124079D02*
X98720243Y-131428991D01*
X98720243Y-131428991D02*
X98551565Y-130772378D01*
X98551565Y-130772378D02*
X98398988Y-130179549D01*
X98398988Y-130179549D02*
X98268993Y-129675810D01*
X98268993Y-129675810D02*
X98168059Y-129286470D01*
X98168059Y-129286470D02*
X98154101Y-129232882D01*
X98154101Y-129232882D02*
X98084547Y-128914888D01*
X98084547Y-128914888D02*
X98087778Y-128703170D01*
X98087778Y-128703170D02*
X98185800Y-128576466D01*
X98185800Y-128576466D02*
X98400622Y-128513516D01*
X98400622Y-128513516D02*
X98754251Y-128493057D01*
X98754251Y-128493057D02*
X98920999Y-128492000D01*
X98920999Y-128492000D02*
X99256986Y-128490580D01*
X99256986Y-128490580D02*
X99449089Y-128480757D01*
X99449089Y-128480757D02*
X99522757Y-128454191D01*
X99522757Y-128454191D02*
X99503438Y-128402538D01*
X99503438Y-128402538D02*
X99426179Y-128326400D01*
X99426179Y-128326400D02*
X99275964Y-128118931D01*
X99275964Y-128118931D02*
X99191820Y-127903066D01*
X99191820Y-127903066D02*
X99120443Y-127705850D01*
X99120443Y-127705850D02*
X99035503Y-127648511D01*
X99035503Y-127648511D02*
X98957665Y-127744310D01*
X98957665Y-127744310D02*
X98957665Y-127744310D01*
G36*
X98505123Y-141810358D02*
G01*
X98411780Y-141921330D01*
X98277476Y-142081000D01*
X95643905Y-142123333D01*
X93010334Y-142165667D01*
X92966089Y-142758333D01*
X92921845Y-143351000D01*
X92848716Y-142927667D01*
X92797352Y-142634934D01*
X92733646Y-142377602D01*
X92639756Y-142225210D01*
X92480909Y-142150323D01*
X92222338Y-142125508D01*
X91829270Y-142123333D01*
X91025016Y-142123333D01*
X90993931Y-142184834D01*
X90885938Y-142398500D01*
X90711076Y-142694045D01*
X90383320Y-143042147D01*
X89984079Y-143243698D01*
X89498152Y-143308667D01*
X89069383Y-143269073D01*
X88636487Y-143107341D01*
X88293490Y-142814330D01*
X88089441Y-142515759D01*
X87928509Y-142040387D01*
X87927000Y-141773468D01*
X88651595Y-141773468D01*
X88725262Y-142078862D01*
X88884719Y-142349480D01*
X89113301Y-142530183D01*
X89289973Y-142595404D01*
X89437151Y-142619803D01*
X89608722Y-142594753D01*
X89872190Y-142510261D01*
X90059325Y-142361020D01*
X90216334Y-142184834D01*
X90171039Y-142208000D01*
X89945372Y-142323417D01*
X89777560Y-142397441D01*
X89412092Y-142467843D01*
X89108561Y-142396361D01*
X88905228Y-142208000D01*
X89242667Y-142208000D01*
X89245127Y-142228237D01*
X89327334Y-142292667D01*
X89347571Y-142290206D01*
X89412000Y-142208000D01*
X89409540Y-142187762D01*
X89327334Y-142123333D01*
X89307096Y-142125793D01*
X89242667Y-142208000D01*
X88905228Y-142208000D01*
X88886573Y-142190719D01*
X88798616Y-141949003D01*
X88904000Y-141949003D01*
X88912742Y-141995896D01*
X88998316Y-142081710D01*
X89103858Y-142064587D01*
X89126845Y-142038225D01*
X89147768Y-141921330D01*
X89031000Y-141869333D01*
X88972652Y-141878297D01*
X88904000Y-141949003D01*
X88798616Y-141949003D01*
X88765734Y-141858641D01*
X88757550Y-141754398D01*
X88793851Y-141608983D01*
X88920228Y-141608983D01*
X88925627Y-141657040D01*
X89031000Y-141700000D01*
X89100902Y-141686186D01*
X89141773Y-141608983D01*
X89130275Y-141583881D01*
X89031000Y-141517967D01*
X89007637Y-141521509D01*
X88920228Y-141608983D01*
X88793851Y-141608983D01*
X88834145Y-141447575D01*
X88904751Y-141361333D01*
X89242667Y-141361333D01*
X89245127Y-141381571D01*
X89327334Y-141446000D01*
X89347571Y-141443540D01*
X89412000Y-141361333D01*
X89409540Y-141341096D01*
X89327334Y-141276667D01*
X89307096Y-141279127D01*
X89242667Y-141361333D01*
X88904751Y-141361333D01*
X89042387Y-141193217D01*
X89353827Y-141031343D01*
X89415648Y-141012493D01*
X89517057Y-140965751D01*
X89452006Y-140945636D01*
X89449113Y-140945524D01*
X89225820Y-140999735D01*
X88971272Y-141147291D01*
X88755834Y-141347569D01*
X88680387Y-141488439D01*
X88651595Y-141773468D01*
X87927000Y-141773468D01*
X87925493Y-141506914D01*
X87944145Y-141357764D01*
X87954059Y-141188733D01*
X87925134Y-141141894D01*
X87850489Y-141187998D01*
X87796002Y-141229190D01*
X87732877Y-141227591D01*
X87718667Y-141082291D01*
X87732174Y-140890891D01*
X87803824Y-140677005D01*
X87926270Y-140599333D01*
X88040570Y-140550849D01*
X88192378Y-140418042D01*
X88320902Y-140302196D01*
X88624293Y-140117716D01*
X88966818Y-139979415D01*
X89268831Y-139923859D01*
X89422616Y-139899112D01*
X89454334Y-139837333D01*
X89446369Y-139793712D01*
X89534004Y-139752667D01*
X89597085Y-139763029D01*
X89666000Y-139837333D01*
X89707801Y-139890198D01*
X89856500Y-139922434D01*
X90031772Y-139955116D01*
X90340695Y-140108032D01*
X90681315Y-140364946D01*
X91018880Y-140702534D01*
X91038989Y-140725225D01*
X91369348Y-141028800D01*
X91681712Y-141188895D01*
X91709965Y-141195129D01*
X91920968Y-141217774D01*
X92279343Y-141237410D01*
X92767625Y-141253553D01*
X93368349Y-141265720D01*
X94064050Y-141273428D01*
X94837263Y-141276194D01*
X97680191Y-141276667D01*
X99759977Y-138610257D01*
X99709823Y-138186628D01*
X99686084Y-138040119D01*
X99618290Y-137805445D01*
X99538187Y-137674132D01*
X99522270Y-137660299D01*
X99427539Y-137501951D01*
X99357930Y-137271965D01*
X99332697Y-137099737D01*
X99352132Y-136986683D01*
X99441283Y-136958667D01*
X99527071Y-136934189D01*
X99538149Y-136810500D01*
X99522198Y-136752047D01*
X99467110Y-136538445D01*
X99379798Y-136194013D01*
X99265364Y-135739255D01*
X99128912Y-135194677D01*
X98975548Y-134580785D01*
X98810373Y-133918083D01*
X98638492Y-133227079D01*
X98465009Y-132528277D01*
X98295028Y-131842183D01*
X98133651Y-131189303D01*
X97985984Y-130590142D01*
X97857130Y-130065205D01*
X97752192Y-129635000D01*
X97695220Y-129400665D01*
X97591078Y-128974213D01*
X97503060Y-128616231D01*
X97439059Y-128358759D01*
X97406970Y-128233837D01*
X97404288Y-128222263D01*
X97435760Y-128139967D01*
X97581683Y-128070321D01*
X97869171Y-127999582D01*
X98093407Y-127943424D01*
X98335481Y-127856786D01*
X98469367Y-127774703D01*
X98478107Y-127764417D01*
X98589211Y-127697037D01*
X98743616Y-127754958D01*
X98758852Y-127763813D01*
X98892780Y-127814247D01*
X98955118Y-127751167D01*
X98957665Y-127744310D01*
X99035503Y-127648511D01*
X99120443Y-127705850D01*
X99191820Y-127903066D01*
X99275964Y-128118931D01*
X99426179Y-128326400D01*
X99503438Y-128402538D01*
X99522757Y-128454191D01*
X99449089Y-128480757D01*
X99256986Y-128490580D01*
X98920999Y-128492000D01*
X98754251Y-128493057D01*
X98400622Y-128513516D01*
X98185800Y-128576466D01*
X98087778Y-128703170D01*
X98084547Y-128914888D01*
X98154101Y-129232882D01*
X98168059Y-129286470D01*
X98268993Y-129675810D01*
X98398988Y-130179549D01*
X98551565Y-130772378D01*
X98720243Y-131428991D01*
X98898542Y-132124079D01*
X99079983Y-132832335D01*
X99258085Y-133528451D01*
X99426370Y-134187119D01*
X99578356Y-134783032D01*
X99707563Y-135290882D01*
X99807513Y-135685361D01*
X99871725Y-135941162D01*
X99928213Y-136157606D01*
X100019729Y-136465518D01*
X100098856Y-136682456D01*
X100153030Y-136771343D01*
X100193612Y-136846426D01*
X100267239Y-137062109D01*
X100364076Y-137391524D01*
X100476320Y-137808014D01*
X100596167Y-138284923D01*
X100704999Y-138718567D01*
X100822586Y-139156021D01*
X100927346Y-139514251D01*
X101010874Y-139764664D01*
X101064762Y-139878666D01*
X101107695Y-139909590D01*
X101300527Y-139986389D01*
X101557472Y-140043945D01*
X101676108Y-140065616D01*
X101867241Y-140122778D01*
X101942667Y-140181188D01*
X101936502Y-140208437D01*
X101841455Y-140260667D01*
X101826715Y-140282677D01*
X101895458Y-140386803D01*
X102053523Y-140547619D01*
X102191103Y-140687467D01*
X102469087Y-141113778D01*
X102600513Y-141576453D01*
X102588898Y-142046445D01*
X102437762Y-142494708D01*
X102150623Y-142892196D01*
X101731000Y-143209862D01*
X101647182Y-143244266D01*
X101365995Y-143293362D01*
X101018283Y-143300430D01*
X100671920Y-143266373D01*
X100394781Y-143192094D01*
X100026677Y-142955441D01*
X99717901Y-142590163D01*
X99523285Y-142148408D01*
X99480850Y-142000420D01*
X99430415Y-141858974D01*
X99408382Y-141848167D01*
X99380083Y-141954327D01*
X99319928Y-141952290D01*
X99260635Y-141850105D01*
X99234161Y-141678833D01*
X99277229Y-141352070D01*
X99467562Y-140901478D01*
X99791375Y-140484511D01*
X100228504Y-140132526D01*
X100230407Y-140120417D01*
X100202780Y-139999076D01*
X100137238Y-139793157D01*
X100024470Y-139467432D01*
X99804680Y-139715883D01*
X99709930Y-139824837D01*
X99485511Y-140093074D01*
X99246976Y-140388563D01*
X99018798Y-140679809D01*
X98825450Y-140935320D01*
X98691406Y-141123604D01*
X98641139Y-141213167D01*
X98693309Y-141254905D01*
X98852334Y-141276667D01*
X98876720Y-141277112D01*
X99034488Y-141319334D01*
X99039591Y-141361333D01*
X99044596Y-141402538D01*
X98898386Y-141487153D01*
X98863136Y-141501891D01*
X98711901Y-141608983D01*
X98689401Y-141624916D01*
X98505123Y-141810358D01*
G37*
X98505123Y-141810358D02*
X98411780Y-141921330D01*
X98277476Y-142081000D01*
X95643905Y-142123333D01*
X93010334Y-142165667D01*
X92966089Y-142758333D01*
X92921845Y-143351000D01*
X92848716Y-142927667D01*
X92797352Y-142634934D01*
X92733646Y-142377602D01*
X92639756Y-142225210D01*
X92480909Y-142150323D01*
X92222338Y-142125508D01*
X91829270Y-142123333D01*
X91025016Y-142123333D01*
X90993931Y-142184834D01*
X90885938Y-142398500D01*
X90711076Y-142694045D01*
X90383320Y-143042147D01*
X89984079Y-143243698D01*
X89498152Y-143308667D01*
X89069383Y-143269073D01*
X88636487Y-143107341D01*
X88293490Y-142814330D01*
X88089441Y-142515759D01*
X87928509Y-142040387D01*
X87927000Y-141773468D01*
X88651595Y-141773468D01*
X88725262Y-142078862D01*
X88884719Y-142349480D01*
X89113301Y-142530183D01*
X89289973Y-142595404D01*
X89437151Y-142619803D01*
X89608722Y-142594753D01*
X89872190Y-142510261D01*
X90059325Y-142361020D01*
X90216334Y-142184834D01*
X90171039Y-142208000D01*
X89945372Y-142323417D01*
X89777560Y-142397441D01*
X89412092Y-142467843D01*
X89108561Y-142396361D01*
X88905228Y-142208000D01*
X89242667Y-142208000D01*
X89245127Y-142228237D01*
X89327334Y-142292667D01*
X89347571Y-142290206D01*
X89412000Y-142208000D01*
X89409540Y-142187762D01*
X89327334Y-142123333D01*
X89307096Y-142125793D01*
X89242667Y-142208000D01*
X88905228Y-142208000D01*
X88886573Y-142190719D01*
X88798616Y-141949003D01*
X88904000Y-141949003D01*
X88912742Y-141995896D01*
X88998316Y-142081710D01*
X89103858Y-142064587D01*
X89126845Y-142038225D01*
X89147768Y-141921330D01*
X89031000Y-141869333D01*
X88972652Y-141878297D01*
X88904000Y-141949003D01*
X88798616Y-141949003D01*
X88765734Y-141858641D01*
X88757550Y-141754398D01*
X88793851Y-141608983D01*
X88920228Y-141608983D01*
X88925627Y-141657040D01*
X89031000Y-141700000D01*
X89100902Y-141686186D01*
X89141773Y-141608983D01*
X89130275Y-141583881D01*
X89031000Y-141517967D01*
X89007637Y-141521509D01*
X88920228Y-141608983D01*
X88793851Y-141608983D01*
X88834145Y-141447575D01*
X88904751Y-141361333D01*
X89242667Y-141361333D01*
X89245127Y-141381571D01*
X89327334Y-141446000D01*
X89347571Y-141443540D01*
X89412000Y-141361333D01*
X89409540Y-141341096D01*
X89327334Y-141276667D01*
X89307096Y-141279127D01*
X89242667Y-141361333D01*
X88904751Y-141361333D01*
X89042387Y-141193217D01*
X89353827Y-141031343D01*
X89415648Y-141012493D01*
X89517057Y-140965751D01*
X89452006Y-140945636D01*
X89449113Y-140945524D01*
X89225820Y-140999735D01*
X88971272Y-141147291D01*
X88755834Y-141347569D01*
X88680387Y-141488439D01*
X88651595Y-141773468D01*
X87927000Y-141773468D01*
X87925493Y-141506914D01*
X87944145Y-141357764D01*
X87954059Y-141188733D01*
X87925134Y-141141894D01*
X87850489Y-141187998D01*
X87796002Y-141229190D01*
X87732877Y-141227591D01*
X87718667Y-141082291D01*
X87732174Y-140890891D01*
X87803824Y-140677005D01*
X87926270Y-140599333D01*
X88040570Y-140550849D01*
X88192378Y-140418042D01*
X88320902Y-140302196D01*
X88624293Y-140117716D01*
X88966818Y-139979415D01*
X89268831Y-139923859D01*
X89422616Y-139899112D01*
X89454334Y-139837333D01*
X89446369Y-139793712D01*
X89534004Y-139752667D01*
X89597085Y-139763029D01*
X89666000Y-139837333D01*
X89707801Y-139890198D01*
X89856500Y-139922434D01*
X90031772Y-139955116D01*
X90340695Y-140108032D01*
X90681315Y-140364946D01*
X91018880Y-140702534D01*
X91038989Y-140725225D01*
X91369348Y-141028800D01*
X91681712Y-141188895D01*
X91709965Y-141195129D01*
X91920968Y-141217774D01*
X92279343Y-141237410D01*
X92767625Y-141253553D01*
X93368349Y-141265720D01*
X94064050Y-141273428D01*
X94837263Y-141276194D01*
X97680191Y-141276667D01*
X99759977Y-138610257D01*
X99709823Y-138186628D01*
X99686084Y-138040119D01*
X99618290Y-137805445D01*
X99538187Y-137674132D01*
X99522270Y-137660299D01*
X99427539Y-137501951D01*
X99357930Y-137271965D01*
X99332697Y-137099737D01*
X99352132Y-136986683D01*
X99441283Y-136958667D01*
X99527071Y-136934189D01*
X99538149Y-136810500D01*
X99522198Y-136752047D01*
X99467110Y-136538445D01*
X99379798Y-136194013D01*
X99265364Y-135739255D01*
X99128912Y-135194677D01*
X98975548Y-134580785D01*
X98810373Y-133918083D01*
X98638492Y-133227079D01*
X98465009Y-132528277D01*
X98295028Y-131842183D01*
X98133651Y-131189303D01*
X97985984Y-130590142D01*
X97857130Y-130065205D01*
X97752192Y-129635000D01*
X97695220Y-129400665D01*
X97591078Y-128974213D01*
X97503060Y-128616231D01*
X97439059Y-128358759D01*
X97406970Y-128233837D01*
X97404288Y-128222263D01*
X97435760Y-128139967D01*
X97581683Y-128070321D01*
X97869171Y-127999582D01*
X98093407Y-127943424D01*
X98335481Y-127856786D01*
X98469367Y-127774703D01*
X98478107Y-127764417D01*
X98589211Y-127697037D01*
X98743616Y-127754958D01*
X98758852Y-127763813D01*
X98892780Y-127814247D01*
X98955118Y-127751167D01*
X98957665Y-127744310D01*
X99035503Y-127648511D01*
X99120443Y-127705850D01*
X99191820Y-127903066D01*
X99275964Y-128118931D01*
X99426179Y-128326400D01*
X99503438Y-128402538D01*
X99522757Y-128454191D01*
X99449089Y-128480757D01*
X99256986Y-128490580D01*
X98920999Y-128492000D01*
X98754251Y-128493057D01*
X98400622Y-128513516D01*
X98185800Y-128576466D01*
X98087778Y-128703170D01*
X98084547Y-128914888D01*
X98154101Y-129232882D01*
X98168059Y-129286470D01*
X98268993Y-129675810D01*
X98398988Y-130179549D01*
X98551565Y-130772378D01*
X98720243Y-131428991D01*
X98898542Y-132124079D01*
X99079983Y-132832335D01*
X99258085Y-133528451D01*
X99426370Y-134187119D01*
X99578356Y-134783032D01*
X99707563Y-135290882D01*
X99807513Y-135685361D01*
X99871725Y-135941162D01*
X99928213Y-136157606D01*
X100019729Y-136465518D01*
X100098856Y-136682456D01*
X100153030Y-136771343D01*
X100193612Y-136846426D01*
X100267239Y-137062109D01*
X100364076Y-137391524D01*
X100476320Y-137808014D01*
X100596167Y-138284923D01*
X100704999Y-138718567D01*
X100822586Y-139156021D01*
X100927346Y-139514251D01*
X101010874Y-139764664D01*
X101064762Y-139878666D01*
X101107695Y-139909590D01*
X101300527Y-139986389D01*
X101557472Y-140043945D01*
X101676108Y-140065616D01*
X101867241Y-140122778D01*
X101942667Y-140181188D01*
X101936502Y-140208437D01*
X101841455Y-140260667D01*
X101826715Y-140282677D01*
X101895458Y-140386803D01*
X102053523Y-140547619D01*
X102191103Y-140687467D01*
X102469087Y-141113778D01*
X102600513Y-141576453D01*
X102588898Y-142046445D01*
X102437762Y-142494708D01*
X102150623Y-142892196D01*
X101731000Y-143209862D01*
X101647182Y-143244266D01*
X101365995Y-143293362D01*
X101018283Y-143300430D01*
X100671920Y-143266373D01*
X100394781Y-143192094D01*
X100026677Y-142955441D01*
X99717901Y-142590163D01*
X99523285Y-142148408D01*
X99480850Y-142000420D01*
X99430415Y-141858974D01*
X99408382Y-141848167D01*
X99380083Y-141954327D01*
X99319928Y-141952290D01*
X99260635Y-141850105D01*
X99234161Y-141678833D01*
X99277229Y-141352070D01*
X99467562Y-140901478D01*
X99791375Y-140484511D01*
X100228504Y-140132526D01*
X100230407Y-140120417D01*
X100202780Y-139999076D01*
X100137238Y-139793157D01*
X100024470Y-139467432D01*
X99804680Y-139715883D01*
X99709930Y-139824837D01*
X99485511Y-140093074D01*
X99246976Y-140388563D01*
X99018798Y-140679809D01*
X98825450Y-140935320D01*
X98691406Y-141123604D01*
X98641139Y-141213167D01*
X98693309Y-141254905D01*
X98852334Y-141276667D01*
X98876720Y-141277112D01*
X99034488Y-141319334D01*
X99039591Y-141361333D01*
X99044596Y-141402538D01*
X98898386Y-141487153D01*
X98863136Y-141501891D01*
X98711901Y-141608983D01*
X98689401Y-141624916D01*
X98505123Y-141810358D01*
%TD*%
M02*
